<svg width="217" height="37" viewBox="0 0 217 37" fill="none" xmlns="http://www.w3.org/2000/svg">
<path d="M209.606 34.999V33.479H212.182V25.287H210.07V24.119C211.174 23.911 211.958 23.639 212.63 23.207H214.022V33.479H216.326V34.999H209.606Z" fill="#FFFCF1"/>
<path d="M203.263 31.1608V29.8008H207.487V31.1608H203.263Z" fill="#FFFCF1"/>
<path d="M196.474 34.999C196.682 30.695 197.434 27.943 199.706 24.775H194.17V23.207H201.754V24.343C198.986 27.783 198.554 30.391 198.362 34.999H196.474Z" fill="#FFFCF1"/>
<path d="M188.549 35.208C186.693 35.208 185.493 34.472 184.709 33.592L185.605 32.408C186.293 33.112 187.173 33.704 188.389 33.704C189.717 33.704 190.629 32.968 190.629 31.736C190.629 30.44 189.797 29.592 187.141 29.592V28.232C189.461 28.232 190.229 27.352 190.229 26.168C190.229 25.128 189.541 24.488 188.421 24.472C187.509 24.488 186.741 24.92 186.069 25.576L185.109 24.424C186.037 23.592 187.125 23 188.485 23C190.597 23 192.085 24.104 192.085 26.04C192.085 27.4 191.301 28.344 190.053 28.808V28.888C191.413 29.224 192.485 30.248 192.485 31.832C192.485 33.96 190.709 35.208 188.549 35.208Z" fill="#FFFCF1"/>
<path d="M177.312 30.407H180.56V27.319C180.56 26.679 180.608 25.687 180.64 25.031H180.576C180.288 25.639 179.968 26.247 179.632 26.855L177.312 30.407ZM180.56 34.999V31.831H175.456V30.599L180.144 23.207H182.288V30.407H183.776V31.831H182.288V34.999H180.56Z" fill="#FFFCF1"/>
<path d="M165.968 23.2568V24.4568H168.24V23.2568H165.968ZM164.592 24.4568V23.2568H162.4V24.4568H164.592ZM169.6 23.2568V24.4568H171.904V23.2568H169.6ZM171.36 29.7688V29.0328H165.36V29.7688H171.36ZM171.36 31.3208V30.5688H165.36V31.3208H171.36ZM171.36 32.8888V32.1208H165.36V32.8888H171.36ZM163.984 28.2008H166.192C166.24 27.9448 166.288 27.6888 166.32 27.4008H160.256V26.2648H166.48C166.512 26.0088 166.544 25.7528 166.56 25.4968H160.976V22.2168H173.408V25.4968H168.08C168.032 25.7528 168 26.0088 167.968 26.2648H174.032V27.4008H167.776C167.728 27.6888 167.68 27.9608 167.632 28.2008H172.8V33.7208H163.984V28.2008ZM174.416 34.4888V35.6568H162.608V36.2648H161.104V28.4088H162.608V34.4888H174.416Z" fill="#FFFCF1"/>
<path d="M155.04 34.2965V32.2485H147.408V34.2965H155.04ZM148.416 26.7285V28.5205H153.76V26.7285H148.416ZM155.248 29.7365H151.936C151.824 30.1525 151.728 30.5845 151.632 30.9685H156.592V36.1685H155.04V35.5925H147.408V36.2165H145.92V30.9685H150.16C150.208 30.5685 150.256 30.1365 150.288 29.7365H147.008V25.5285H155.248V29.7365ZM151.84 23.0005H157.872V26.7605H156.352V24.3605H145.904V26.7605H144.448V23.0005H150.272V21.5605H151.84V23.0005Z" fill="#FFFCF1"/>
<path d="M131.152 23.6397H129.616V27.0637H131.152V23.6397ZM133.888 27.0637V23.6397H132.336V27.0637H133.888ZM132.336 31.9597H133.888V28.3598H132.336V31.9597ZM129.616 28.3598V31.9597H131.152V28.3598H129.616ZM135.184 22.3438V33.2717H129.616V34.4877H128.352V22.3438H135.184ZM142.576 23.3997V24.8557H140.416V34.4397C140.416 35.3037 140.224 35.7517 139.616 36.0077C138.992 36.2477 138.016 36.2638 136.544 36.2638C136.48 35.8478 136.256 35.1758 136.032 34.7758C137.088 34.8238 138.176 34.8077 138.496 34.7917C138.8 34.7917 138.896 34.6957 138.896 34.4237V24.8557H135.504V23.3997H142.576Z" fill="#FFFCF1"/>
<path d="M114.352 31.7197H117.52V30.3597H114.352V31.7197ZM117.52 27.9117H114.352V29.2237H117.52V27.9117ZM118.944 26.6477V34.6957C118.944 35.3837 118.8 35.7517 118.336 35.9597C117.856 36.1997 117.136 36.2157 116.128 36.2157C116.032 35.8477 115.824 35.2717 115.632 34.9357C116.336 34.9677 117.04 34.9677 117.232 34.9517C117.456 34.9357 117.52 34.8717 117.52 34.6637V32.8557H114.352V36.1837H112.96V26.6477H118.944ZM123.824 34.5197V26.3437H125.296V34.5357C125.296 35.3197 125.12 35.7197 124.576 35.9437C124.048 36.1837 123.216 36.2317 122.016 36.2157C121.952 35.8157 121.696 35.1757 121.488 34.8077C122.384 34.8397 123.248 34.8397 123.488 34.8237C123.744 34.8077 123.824 34.7437 123.824 34.5197ZM122.016 26.7917V33.3037H120.64V26.7917H122.016ZM122.768 24.0077H126.272V25.3677H112.016V24.0077H115.68C115.408 23.4317 114.848 22.6317 114.352 22.0397L115.744 21.5597C116.336 22.1997 117.008 23.0957 117.28 23.7037L116.464 24.0077H121.072C121.6 23.2557 122.16 22.2637 122.48 21.5117L124.096 22.0077C123.664 22.6957 123.216 23.3997 122.768 24.0077Z" fill="#FFFCF1"/>
<path d="M105.344 31.9442H100.896L100.704 32.0722C101.616 32.4562 102.592 33.0002 103.216 33.4642C104.064 33.0482 104.8 32.5362 105.344 31.9442ZM96.24 31.6402V28.9362H110.064V31.6402H108.608V30.0722H102.944C102.72 30.3602 102.464 30.6322 102.192 30.8882H106.272L106.528 30.8402L107.472 31.3522C105.808 34.3442 101.936 35.7202 98.048 36.2962C97.936 35.9442 97.648 35.3522 97.392 35.0482C98.928 34.8722 100.496 34.5362 101.872 34.0402C101.2 33.5762 100.32 33.0802 99.504 32.7442C98.976 33.0162 98.4 33.2562 97.776 33.4802C97.584 33.1602 97.2 32.6802 96.88 32.4562C98.864 31.8482 100.32 30.9682 101.2 30.0722H97.632V31.6402H96.24ZM107.488 27.1762V25.8002H105.392V27.1762H107.488ZM104.144 27.1762V25.8002H102.048V27.1762H104.144ZM100.8 27.1762V25.8002H98.8V27.1762H100.8ZM97.456 24.7922H108.896V28.1842H97.456V24.7922ZM106.496 22.5522H110.08V23.8162H106.496V24.5202H105.024V23.8162H101.184V24.5202H99.728V23.8162H96.208V22.5522H99.728V21.5762H101.184V22.5522H105.024V21.5762H106.496V22.5522Z" fill="#FFFCF1"/>
<path d="M94.3363 25.1281H87.8563V27.0801H92.9283V32.5841C92.9283 33.3681 92.7523 33.8001 92.1763 34.0401C91.5683 34.2801 90.6723 34.2961 89.3763 34.2961C89.2963 33.8481 89.0883 33.2241 88.8643 32.8241C89.8243 32.8721 90.7683 32.8721 91.0403 32.8561C91.3123 32.8401 91.3923 32.7761 91.3923 32.5521V28.5361H87.8563V36.2961H86.3203V28.5361H83.0403V34.3281H81.5523V27.0801H86.3203V25.1281H79.9683V23.6881H86.3043V21.4961H87.8883V23.6881H94.3363V25.1281Z" fill="#FFFCF1"/>
<path d="M72.0803 30.4562H76.4963C75.6643 29.9762 74.9283 29.3842 74.2883 28.7602C73.6163 29.4162 72.8643 29.9922 72.0803 30.4562ZM72.4803 34.3762H76.0483V31.7202H72.4803V34.3762ZM70.0003 29.3522V30.0082C71.2003 29.4962 72.3683 28.7282 73.3763 27.7362C72.8643 27.1282 72.4643 26.5042 72.1123 25.8962C71.7283 26.4562 71.2963 26.9682 70.8803 27.4002C70.6563 27.1602 70.1923 26.7762 69.8563 26.5202V27.2402H68.1283V29.3522H70.0003ZM65.8723 23.4962V25.9602H68.4803V23.4962H65.8723ZM75.6643 24.4242H72.9923L72.8483 24.7122C73.2163 25.4002 73.6643 26.0882 74.2403 26.7602C74.8163 26.0562 75.2963 25.2722 75.6643 24.4242ZM76.5603 23.0962L77.5043 23.4962C77.0083 25.1602 76.2083 26.5842 75.2163 27.7682C76.1923 28.6482 77.3443 29.3842 78.7043 29.8642C78.4163 30.1362 77.9843 30.7282 77.7923 31.0962L77.4723 30.9682V36.1682H76.0483V35.6562H72.4803V36.2162H71.1203V30.9842C70.8803 31.0962 70.6563 31.2082 70.4163 31.3042C70.3203 31.1122 70.1603 30.8722 70.0003 30.6482V30.6642H68.1283V33.1922L70.1123 32.7282L70.2563 34.0402C68.0643 34.6002 65.7443 35.1602 64.0163 35.5602L63.7603 34.1202C64.0003 34.0722 64.2563 34.0242 64.5283 33.9762V28.5842H65.7443V33.7202L66.8003 33.4802V27.2402H64.5763V22.2162H69.8563V26.3122C71.0563 25.1442 72.0643 23.4162 72.6243 21.5762L74.0643 21.9282C73.9203 22.3442 73.7603 22.7602 73.5843 23.1602H76.3043L76.5603 23.0962Z" fill="#FFFCF1"/>
<path d="M52.0481 26.1682H50.4481C50.1921 27.4322 49.9201 28.6802 49.6641 29.8322C50.1281 30.1682 50.6081 30.5522 51.0881 30.9522C51.5681 29.6242 51.8881 28.0242 52.0481 26.1682ZM52.6241 24.7602L53.5041 24.8722C53.3441 27.8162 52.9281 30.1202 52.2401 31.9282C52.8961 32.5362 53.4721 33.1282 53.8401 33.6402L52.8801 34.8402C52.5601 34.3922 52.1121 33.8802 51.5681 33.3362C50.8481 34.6162 49.9361 35.5602 48.7841 36.2642C48.5921 35.9122 48.2081 35.3522 47.9041 35.0642C48.9761 34.4882 49.8241 33.5762 50.4961 32.3122C50.1121 31.9602 49.7121 31.6242 49.3121 31.3042L49.1681 31.8962L47.9521 31.2082C48.2881 29.8962 48.6881 28.0562 49.0561 26.1682H47.8081V24.7922H49.3121C49.5201 23.6722 49.7121 22.5682 49.8561 21.5762L51.2801 21.7202C51.1201 22.6802 50.9281 23.7202 50.7201 24.7922H52.3841L52.6241 24.7602ZM55.7601 31.5282V34.1682H57.8081V31.5282H55.7601ZM57.8081 23.8642H55.7601V26.2482H57.8081V23.8642ZM60.4001 30.1682V27.6082H55.7601V30.1682H60.4001ZM62.4961 34.1682V35.5602H55.7601V36.2642H54.3041V22.4722H62.2241V23.8642H59.2321V26.2482H61.8241V31.5282H59.2321V34.1682H62.4961Z" fill="#FFFCF1"/>
<path d="M43.0244 24.28V23.224H37.1364V24.28H43.0244ZM43.0244 26.344V25.272H37.1364V26.344H43.0244ZM43.0244 28.424V27.336H37.1364V28.424H43.0244ZM44.4644 22.168V29.48H35.7284V22.168H44.4644ZM35.4244 32.376L36.9764 32.952C35.9684 34.136 34.4484 35.336 33.1204 36.088C32.8164 35.8 32.2724 35.336 31.9204 35.112C33.2324 34.44 34.6884 33.32 35.4244 32.376ZM46.2564 31.816H39.9364V36.248H38.3684V31.816H34.3204V32.2H32.8324V23.016H34.3204V30.504H46.2564V31.816ZM41.3284 33.112L42.5924 32.312C43.8084 33.144 45.4884 34.376 46.3524 35.192L45.0084 36.104C44.2244 35.304 42.5924 34.008 41.3284 33.112Z" fill="#FFFCF1"/>
<path d="M30.2884 24.2162H18.4484V27.9442C18.4484 30.4242 18.2244 33.9762 16.8324 36.2642C16.5764 36.0082 15.9684 35.5762 15.6484 35.4162C16.9284 33.2722 17.0404 30.2002 17.0404 27.9442V22.8882H22.8324V21.5762H24.3844V22.8882H30.2884V24.2162ZM21.0724 31.3042H23.6164V30.2642H21.0724V31.3042ZM21.0724 28.3442V29.3522H23.6164V28.3442H21.0724ZM27.7124 28.3442H25.0404V29.3522H27.7124V28.3442ZM27.7124 31.3042V30.2642H25.0404V31.3042H27.7124ZM30.4004 33.2242V34.4562H25.0404V36.2802H23.6164V34.4562H18.5444V33.2242H23.6164V32.2482H19.7444V27.3842H23.6164V26.4722H19.2164V25.3202H23.6164V24.2962H25.0404V25.3202H29.8724V26.4722H25.0404V27.3842H29.0884V32.2482H25.0404V33.2242H30.4004Z" fill="#FFFCF1"/>
<path d="M4.112 27.1602V30.6482H9.472V27.1602H4.112ZM14.304 30.6482V32.0722H0.016V30.6482H2.576V22.5682L3.776 22.8402C6.528 22.5682 9.456 22.1042 11.232 21.5762L12.512 22.7602C10.192 23.4322 6.992 23.8802 4.112 24.1362V25.7682H13.552V27.1602H10.992V30.6482H14.304ZM4.608 32.3282L5.984 33.2882C4.688 34.3762 2.72 35.5602 1.088 36.2962C0.848 35.9602 0.352 35.4482 0 35.1442C1.616 34.4722 3.584 33.2722 4.608 32.3282ZM8.32 33.3522L9.472 32.3602C11.008 33.1122 13.2 34.3282 14.336 35.1442L13.088 36.2962C12.08 35.4802 9.904 34.2002 8.32 33.3522Z" fill="#FFFCF1"/>
<path d="M76.981 11.999V10.479H79.557V2.28703H77.445V1.11903C78.549 0.911032 79.333 0.639031 80.005 0.207031H81.397V10.479H83.701V11.999H76.981Z" fill="#FFFCF1"/>
<path d="M67.1839 12V10.928C70.6559 7.856 72.4479 5.568 72.4479 3.632C72.4479 2.352 71.7759 1.472 70.4479 1.472C69.5199 1.472 68.7519 2.064 68.1279 2.784L67.0879 1.76C68.0959 0.656 69.1359 0 70.6719 0C72.8319 0 74.2239 1.408 74.2239 3.536C74.2239 5.808 72.4159 8.16 69.9199 10.544C70.5279 10.48 71.2639 10.432 71.8399 10.432H74.7839V12H67.1839Z" fill="#FFFCF1"/>
<path d="M58.731 11.999V10.479H61.307V2.28703H59.195V1.11903C60.299 0.911032 61.083 0.639031 61.755 0.207031H63.147V10.479H65.451V11.999H58.731Z" fill="#FFFCF1"/>
<path d="M48.9339 12V10.928C52.4059 7.856 54.1979 5.568 54.1979 3.632C54.1979 2.352 53.5259 1.472 52.1979 1.472C51.2699 1.472 50.5019 2.064 49.8779 2.784L48.8379 1.76C49.8459 0.656 50.8859 0 52.4219 0C54.5819 0 55.9739 1.408 55.9739 3.536C55.9739 5.808 54.1659 8.16 51.6699 10.544C52.2779 10.48 53.0139 10.432 53.5899 10.432H56.5339V12H48.9339Z" fill="#FFFCF1"/>
<path d="M43.2632 8.16078V6.80078H47.4872V8.16078H43.2632Z" fill="#FFFCF1"/>
<path d="M34.7622 11.999V10.479H37.3382V2.28703H35.2262V1.11903C36.3302 0.911032 37.1142 0.639031 37.7862 0.207031H39.1782V10.479H41.4822V11.999H34.7622Z" fill="#FFFCF1"/>
<path d="M27.3494 11.999C27.5574 7.69503 28.3094 4.94303 30.5814 1.77503H25.0454V0.207031H32.6294V1.34303C29.8614 4.78303 29.4294 7.39103 29.2374 11.999H27.3494Z" fill="#FFFCF1"/>
<path d="M19.9204 5.984C19.2484 5.984 18.4324 6.352 17.7284 7.36C17.9204 9.696 18.7684 10.8 20.0324 10.8C21.0564 10.8 21.8724 9.872 21.8724 8.336C21.8724 6.832 21.1844 5.984 19.9204 5.984ZM20.0484 12.208C17.8084 12.208 15.9844 10.336 15.9844 6.336C15.9844 1.808 18.1124 0 20.4324 0C21.7444 0 22.7044 0.56 23.3764 1.264L22.3684 2.384C21.9364 1.872 21.2164 1.504 20.5284 1.504C19.0244 1.504 17.7764 2.64 17.6964 6C18.3844 5.152 19.4084 4.64 20.2564 4.64C22.2404 4.64 23.5684 5.856 23.5684 8.336C23.5684 10.672 21.9684 12.208 20.0484 12.208Z" fill="#FFFCF1"/>
<path d="M12.4964 0.464844V1.92084H1.77637V0.464844H12.4964ZM12.4964 3.90484V5.36084H7.93637V11.8408H6.33637V5.36084H1.77637V3.90484H12.4964Z" fill="#FFFCF1"/>
</svg>
