<svg width="1440" height="700" viewBox="0 0 1440 700" fill="none" xmlns="http://www.w3.org/2000/svg">
<path d="M1387 412.23C1408.73 389.345 1440 351.23 1440 351.23V0L0 0V351.23C0 351.23 35.5892 394.171 60.5 419.73C125.993 486.928 168.5 520.516 249 568.73C271.567 582.246 284.502 589.406 308 601.23C391.789 643.394 443.129 660.804 535 679.73C560.215 684.925 574.478 687.352 600 690.73C692.916 703.028 747.1 703.141 840 690.73C865.327 687.347 879.477 684.906 904.5 679.73C996.356 660.731 1047.59 643.149 1131.5 601.23C1157.22 588.381 1171.39 580.592 1196 565.73C1277.92 516.267 1321.11 481.624 1387 412.23Z" fill="#D84830"/>
</svg>
