<svg width="1440" height="1837" viewBox="0 0 1440 1837" fill="none" xmlns="http://www.w3.org/2000/svg">
<path d="M1387 1549.23C1408.73 1526.35 1440 1488.23 1440 1488.23L1440 0L0 0L0 1488.23C0 1488.23 35.5892 1531.17 60.5 1556.73C125.993 1623.93 168.5 1657.52 249 1705.73C271.567 1719.25 284.502 1726.41 308 1738.23C391.789 1780.39 443.129 1797.8 535 1816.73C560.215 1821.92 574.478 1824.35 600 1827.73C692.916 1840.03 747.1 1840.14 840 1827.73C865.327 1824.35 879.477 1821.91 904.5 1816.73C996.356 1797.73 1047.59 1780.15 1131.5 1738.23C1157.22 1725.38 1171.39 1717.59 1196 1702.73C1277.92 1653.27 1321.11 1618.62 1387 1549.23Z" fill="#D84830"/>
</svg>
