<svg width="28" height="28" viewBox="0 0 28 28" fill="none" xmlns="http://www.w3.org/2000/svg">
<g clip-path="url(#clip0_1_272)">
<path d="M13.9999 2.70742C17.6804 2.70742 18.1124 2.72383 19.5671 2.78945C20.9124 2.84961 21.6397 3.07383 22.1265 3.26523C22.7718 3.5168 23.2312 3.81211 23.7124 4.29336C24.1937 4.77461 24.4944 5.23398 24.7405 5.8793C24.9265 6.36602 25.1562 7.09336 25.2163 8.43867C25.2819 9.89336 25.2983 10.3254 25.2983 14.0059C25.2983 17.6863 25.2819 18.1184 25.2163 19.573C25.1562 20.9184 24.9319 21.6457 24.7405 22.1324C24.489 22.7777 24.1937 23.2371 23.7124 23.7184C23.2312 24.1996 22.7718 24.5004 22.1265 24.7465C21.6397 24.9324 20.9124 25.1621 19.5671 25.2223C18.1124 25.2879 17.6804 25.3043 13.9999 25.3043C10.3194 25.3043 9.8874 25.2879 8.43271 25.2223C7.0874 25.1621 6.36006 24.9379 5.87334 24.7465C5.22803 24.4949 4.76865 24.1996 4.2874 23.7184C3.80615 23.2371 3.50537 22.7777 3.25928 22.1324C3.07334 21.6457 2.84365 20.9184 2.7835 19.573C2.71787 18.1184 2.70147 17.6863 2.70147 14.0059C2.70147 10.3254 2.71787 9.89336 2.7835 8.43867C2.84365 7.09336 3.06787 6.36602 3.25928 5.8793C3.51084 5.23398 3.80615 4.77461 4.2874 4.29336C4.76865 3.81211 5.22803 3.51133 5.87334 3.26523C6.36006 3.0793 7.0874 2.84961 8.43271 2.78945C9.8874 2.71836 10.3194 2.70742 13.9999 2.70742ZM13.9999 0.224609C10.2593 0.224609 9.78897 0.241016 8.31787 0.306641C6.85225 0.372266 5.85146 0.607422 4.97646 0.946484C4.06865 1.29648 3.30303 1.77227 2.5374 2.53789C1.77178 3.30352 1.30146 4.07461 0.945996 4.97695C0.606934 5.85195 0.371777 6.85273 0.306152 8.32383C0.240527 9.78945 0.224121 10.2598 0.224121 14.0004C0.224121 17.741 0.240527 18.2113 0.306152 19.6824C0.371777 21.148 0.606934 22.1488 0.945996 23.0293C1.296 23.9371 1.77178 24.7027 2.5374 25.4684C3.30303 26.234 4.07412 26.7043 4.97646 27.0598C5.85146 27.3988 6.85225 27.634 8.32334 27.6996C9.79443 27.7652 10.2593 27.7816 14.0054 27.7816C17.7515 27.7816 18.2163 27.7652 19.6874 27.6996C21.153 27.634 22.1538 27.3988 23.0343 27.0598C23.9421 26.7098 24.7077 26.234 25.4733 25.4684C26.239 24.7027 26.7093 23.9316 27.0647 23.0293C27.4038 22.1543 27.639 21.1535 27.7046 19.6824C27.7702 18.2113 27.7866 17.7465 27.7866 14.0004C27.7866 10.2543 27.7702 9.78945 27.7046 8.31836C27.639 6.85273 27.4038 5.85195 27.0647 4.97148C26.7147 4.06367 26.239 3.29805 25.4733 2.53242C24.7077 1.7668 23.9366 1.29648 23.0343 0.941016C22.1593 0.601953 21.1585 0.366797 19.6874 0.301172C18.2108 0.241016 17.7405 0.224609 13.9999 0.224609Z" fill="#D84830"/>
<path d="M13.9999 6.92383C10.0952 6.92383 6.92334 10.0902 6.92334 14.0004C6.92334 17.9105 10.0952 21.077 13.9999 21.077C17.9046 21.077 21.0765 17.9051 21.0765 14.0004C21.0765 10.0957 17.9046 6.92383 13.9999 6.92383ZM13.9999 18.5941C11.4624 18.5941 9.40615 16.5379 9.40615 14.0004C9.40615 11.4629 11.4624 9.40664 13.9999 9.40664C16.5374 9.40664 18.5937 11.4629 18.5937 14.0004C18.5937 16.5379 16.5374 18.5941 13.9999 18.5941Z" fill="#D84830"/>
<path d="M21.3557 8.29531C22.2678 8.29531 23.0072 7.55588 23.0072 6.64375C23.0072 5.73162 22.2678 4.99219 21.3557 4.99219C20.4435 4.99219 19.7041 5.73162 19.7041 6.64375C19.7041 7.55588 20.4435 8.29531 21.3557 8.29531Z" fill="#D84830"/>
</g>
<defs>
<clipPath id="clip0_1_272">
<rect width="28" height="28" fill="white"/>
</clipPath>
</defs>
</svg>
