<svg width="663" height="97" viewBox="0 0 663 97" fill="none" xmlns="http://www.w3.org/2000/svg">
<path d="M232.202 78.8V32.1H248.002C248.669 29.5667 249.236 27.1333 249.702 24.8H224.302V17.2H241.302C240.436 15.4667 239.336 13.6333 238.002 11.7C236.736 9.7 235.536 8 234.402 6.6L242.102 3.2C245.102 7 247.636 10.9 249.702 14.9L245.602 17.2H259.202C260.002 15.8667 260.836 14.3667 261.702 12.7C262.636 10.9667 263.502 9.23333 264.302 7.5C265.169 5.76666 265.836 4.26667 266.302 3L275.302 5.5C274.636 6.96666 273.669 8.8 272.402 11C271.136 13.2 269.936 15.2667 268.802 17.2H287.402V24.8H259.502C259.236 25.8667 258.936 27.0667 258.602 28.4C258.269 29.7333 257.936 30.9667 257.602 32.1H280.102V78.8H232.202ZM254.702 92.8C247.836 92.8 242.102 92.4333 237.502 91.7C232.902 91.0333 229.002 89.9333 225.802 88.4C222.669 86.9333 219.869 85 217.402 82.6C216.202 83.4667 214.569 84.5 212.502 85.7C210.436 86.9 208.369 88.1 206.302 89.3C204.236 90.5 202.569 91.5333 201.302 92.4L197.402 83.7C198.536 83.2333 200.102 82.5667 202.102 81.7C204.169 80.7667 206.202 79.8 208.202 78.8C210.269 77.8 211.836 76.9333 212.902 76.2V49.2H199.002V41.1H221.402V75.5C223.069 77.8333 225.202 79.7 227.802 81.1C230.402 82.4333 233.869 83.4 238.202 84C242.536 84.5333 248.036 84.8 254.702 84.8C262.769 84.8 269.669 84.6667 275.402 84.4C281.202 84.1333 286.069 83.7667 290.002 83.3C289.802 83.7667 289.536 84.6333 289.202 85.9C288.869 87.1 288.569 88.3333 288.302 89.6C288.036 90.8667 287.869 91.8667 287.802 92.6C286.136 92.6 283.969 92.6 281.302 92.6C278.702 92.6667 275.869 92.7 272.802 92.7C269.736 92.7667 266.636 92.8 263.502 92.8C260.369 92.8 257.436 92.8 254.702 92.8ZM241.402 71.9H270.902V65.1H241.402V71.9ZM241.402 58.7H270.902V52H241.402V58.7ZM241.402 45.6H270.902V38.9H241.402V45.6ZM215.902 27.7C214.769 26.1 213.336 24.3333 211.602 22.4C209.869 20.4667 208.036 18.6 206.102 16.8C204.236 15 202.469 13.5 200.802 12.3L206.902 6.6C208.569 7.73333 210.369 9.2 212.302 11C214.302 12.8 216.202 14.6667 218.002 16.6C219.869 18.4667 221.369 20.1333 222.502 21.6C222.036 21.9333 221.336 22.5 220.402 23.3C219.536 24.1 218.669 24.9333 217.802 25.8C216.936 26.6 216.302 27.2333 215.902 27.7Z" fill="white"/>
<path d="M123.801 87.1L122.001 78.7C123.667 78.5667 125.934 78.3333 128.801 78C131.734 77.6667 134.867 77.2667 138.201 76.8V64.6H124.801V56.6H138.201V46.6H147.001V56.6H159.801V64.6H147.001V75.6C150.201 75.1333 153.167 74.6667 155.901 74.2C158.701 73.7333 160.834 73.3333 162.301 73V80.9C160.367 81.3667 157.701 81.9 154.301 82.5C150.967 83.1 147.367 83.7 143.501 84.3C139.634 84.9 135.934 85.4667 132.401 86C128.934 86.4667 126.067 86.8333 123.801 87.1ZM163.301 94.7C163.234 93.5 163.001 91.9667 162.601 90.1C162.201 88.2333 161.767 86.8 161.301 85.8H167.801C169.134 85.8 170.067 85.5667 170.601 85.1C171.201 84.5667 171.501 83.6667 171.501 82.4V41.9H162.401V33.8H189.201V41.9H180.301V85.6C180.301 91.6667 176.734 94.7 169.601 94.7H163.301ZM124.101 43.9V36H138.201V24.4H126.501V16.7H138.201V5H147.001V16.7H158.301V24.4H147.001V36H160.201V43.9H124.101ZM109.401 94.9V52.1C108.134 53.4333 106.867 54.7 105.601 55.9C104.401 57.0333 103.167 58.1333 101.901 59.2C101.567 58.7333 101.001 58.1333 100.201 57.4C99.4008 56.6667 98.5341 55.9333 97.6008 55.2C96.7341 54.4667 95.9674 53.9333 95.3008 53.6C97.3674 52.0667 99.5008 50.2 101.701 48C103.967 45.8 106.167 43.4333 108.301 40.9C110.434 38.3667 112.334 35.8333 114.001 33.3C115.734 30.7 117.101 28.2667 118.101 26L125.601 29.5C124.601 31.5667 123.467 33.6333 122.201 35.7C120.934 37.7 119.601 39.6667 118.201 41.6V94.9H109.401ZM103.501 28.9C103.234 28.3667 102.701 27.6667 101.901 26.8C101.101 25.9333 100.267 25.1 99.4008 24.3C98.5341 23.4333 97.8008 22.8333 97.2008 22.5C99.7341 21.1 102.267 19.4333 104.801 17.5C107.334 15.5 109.667 13.4333 111.801 11.3C114.001 9.1 115.701 7.03333 116.901 5.1L123.901 10.3C121.967 12.6333 119.801 15 117.401 17.4C115.067 19.8 112.701 22 110.301 24C107.901 26 105.634 27.6333 103.501 28.9ZM163.601 18.4V10.2H187.101V18.4H163.601Z" fill="white"/>
<path d="M7.7 46.0994V25.1994H26.2V18.5994H0V11.3994H26.2V3.89941H34.8V11.3994H52.6V3.89941H61.3V11.3994H87.2V18.5994H61.3V25.1994H79.5V46.0994H7.7ZM7.9 96.6994C7.56667 95.5661 7.13333 94.2661 6.6 92.7994C6.06667 91.3327 5.46667 90.1661 4.8 89.2994C9.93333 88.6994 15.0667 87.7994 20.2 86.5994C25.4 85.3994 30.3333 83.9328 35 82.1994C33.7333 81.0661 32.4 79.9327 31 78.7994C29.6667 77.5994 28.3333 76.5661 27 75.6994L34 71.6994C35.2 72.4994 36.6 73.5327 38.2 74.7994C39.8667 76.0661 41.4667 77.3661 43 78.6994C45.9333 77.2994 48.6 75.7661 51 74.0994C53.4667 72.4327 55.6 70.6661 57.4 68.7994H34.1C27.9667 73.1327 21.2333 76.5994 13.9 79.1994C13.5 78.3328 12.8 77.1994 11.8 75.7994C10.8667 74.3327 10.1 73.2994 9.5 72.6994C12.7667 71.7661 16.0333 70.4661 19.3 68.7994C22.6333 67.1327 25.8333 65.2661 28.9 63.1994C31.9667 61.1327 34.7333 59.0327 37.2 56.8994H8.7V67.5994H0.0999999V49.9994H87.5V67.5994H78.9V56.8994H47.8C46.9333 57.8327 46.0333 58.7661 45.1 59.6994C44.1667 60.6327 43.2 61.5327 42.2 62.3994H68.2L71.2 65.5994C64.7333 74.2661 56.1333 81.1661 45.4 86.2994C34.7333 91.3661 22.2333 94.8328 7.9 96.6994ZM34.8 25.1994H52.6V18.5994H34.8V25.1994ZM57.7 39.7994H71.2V31.4994H57.7V39.7994ZM16 39.7994H29.2V31.4994H16V39.7994ZM37.3 39.7994H49.6V31.4994H37.3V39.7994Z" fill="white"/>
<path d="M662.641 13.6797C655.361 25.9997 648.001 38.7597 640.561 51.9597C633.201 65.0797 626.241 78.0397 619.681 90.8397C618.401 90.6797 616.881 90.5997 615.121 90.5997C613.601 90.5997 612.161 90.6797 610.801 90.8397C614.561 84.9997 618.481 78.7197 622.561 71.9997C626.721 65.1997 630.721 58.5997 634.561 52.1997C638.401 45.7197 641.961 39.6797 645.241 34.0797C648.521 28.4797 651.201 23.8397 653.281 20.1597C649.681 20.1597 644.361 20.1997 637.321 20.2797C630.361 20.3597 621.721 20.7197 611.401 21.3597C611.721 19.7597 611.881 17.9597 611.881 15.9597C611.881 14.0397 611.721 12.2797 611.401 10.6797C614.761 10.9197 617.721 11.1197 620.281 11.2797C622.921 11.4397 625.361 11.5597 627.601 11.6397C629.441 11.6397 631.961 11.6797 635.161 11.7597C638.441 11.8397 641.601 11.8797 644.641 11.8797H650.281C652.761 11.8797 654.921 11.8797 656.761 11.8797C658.601 11.7997 660.561 11.7597 662.641 11.7597V13.6797Z" fill="white"/>
<path d="M585.16 67.9198C585.16 61.8398 583.88 56.8798 581.32 53.0398C578.84 49.1998 575.04 47.2798 569.92 47.2798C567.6 47.2798 565.4 47.7998 563.32 48.8398C561.32 49.7998 559.56 51.1998 558.04 53.0398C556.6 54.8798 555.44 57.0798 554.56 59.6398C553.68 62.1198 553.24 64.8798 553.24 67.9198C553.24 70.9598 553.64 73.7598 554.44 76.3198C555.24 78.8798 556.36 81.0798 557.8 82.9198C559.24 84.7598 560.92 86.1998 562.84 87.2398C564.84 88.1998 566.96 88.6798 569.2 88.6798C571.76 88.6798 574 88.1998 575.92 87.2398C577.92 86.1998 579.6 84.7598 580.96 82.9198C582.32 81.0798 583.36 78.8798 584.08 76.3198C584.8 73.7598 585.16 70.9598 585.16 67.9198ZM584.56 14.6398C583.68 14.3998 582.76 14.1998 581.8 14.0398C580.84 13.8798 579.68 13.7998 578.32 13.7998C575.2 13.7998 572.4 14.4798 569.92 15.8398C567.44 17.1198 565.24 18.8798 563.32 21.1198C561.4 23.2798 559.76 25.7998 558.4 28.6798C557.04 31.4798 555.92 34.3998 555.04 37.4398C554.16 40.4798 553.52 43.4798 553.12 46.4398C552.72 49.3198 552.52 51.9998 552.52 54.4798H552.76C553.56 53.1198 554.52 51.7598 555.64 50.3998C556.76 49.0398 558.08 47.7998 559.6 46.6798C561.2 45.5598 563 44.6398 565 43.9198C567.08 43.1998 569.44 42.8398 572.08 42.8398C574.16 42.8398 576.56 43.1598 579.28 43.7998C582 44.4398 584.56 45.5998 586.96 47.2798C589.44 48.9598 591.52 51.2798 593.2 54.2398C594.88 57.1198 595.72 60.8398 595.72 65.3998C595.72 69.3998 595.08 73.0798 593.8 76.4398C592.6 79.7198 590.84 82.5598 588.52 84.9598C586.2 87.2798 583.4 89.0798 580.12 90.3598C576.84 91.5598 573.16 92.1598 569.08 92.1598C565.64 92.1598 562.32 91.5998 559.12 90.4798C555.92 89.2798 553.08 87.3198 550.6 84.5998C548.2 81.8798 546.28 78.3598 544.84 74.0398C543.4 69.6398 542.68 64.2798 542.68 57.9598C542.68 51.3198 543.44 45.0798 544.96 39.2398C546.56 33.3198 548.84 28.1998 551.8 23.8798C554.84 19.4798 558.56 16.0398 562.96 13.5598C567.44 11.0798 572.56 9.87981 578.32 9.9598C579.68 9.9598 580.68 9.99981 581.32 10.0798C582.04 10.0798 582.72 10.1598 583.36 10.3198L585.16 14.1598L584.56 14.6398Z" fill="white"/>
<path d="M444.519 56.2797C444.519 52.6797 444.439 48.9196 444.279 44.9996C444.199 40.9996 443.959 37.2797 443.559 33.8396C445.799 34.2396 447.599 34.4396 448.959 34.4396C449.599 34.4396 450.279 34.3996 450.999 34.3196C451.799 34.1596 452.719 33.9996 453.759 33.8396C453.519 37.0396 453.399 40.2396 453.399 43.4396H453.639C457.879 36.2396 463.839 32.6396 471.519 32.6396C473.519 32.6396 475.479 32.9596 477.399 33.5996C479.319 34.1596 481.039 34.9596 482.559 35.9996C484.159 37.0396 485.519 38.3196 486.639 39.8396C487.759 41.2796 488.519 42.8396 488.919 44.5196H489.159C491.079 40.6796 493.679 37.7596 496.959 35.7596C500.319 33.6796 504.159 32.6396 508.479 32.6396C511.119 32.6396 513.559 32.9996 515.799 33.7196C518.039 34.4396 519.959 35.5596 521.559 37.0797C523.239 38.5997 524.519 40.5597 525.399 42.9597C526.359 45.3597 526.839 48.2397 526.839 51.5997C526.839 52.9597 526.799 54.4396 526.719 56.0396C526.639 57.6396 526.559 59.5197 526.479 61.6797C526.399 63.7597 526.319 66.1597 526.239 68.8797C526.159 71.5197 526.119 74.5996 526.119 78.1196C526.119 80.2796 526.119 82.3597 526.119 84.3597C526.199 86.3597 526.319 88.5196 526.479 90.8396C525.599 90.6796 524.719 90.5997 523.839 90.5997C522.959 90.5997 522.119 90.5997 521.319 90.5997C520.439 90.5997 519.559 90.5997 518.679 90.5997C517.799 90.5997 516.919 90.6796 516.039 90.8396C516.279 88.8396 516.519 84.7997 516.759 78.7197C517.079 72.6397 517.239 64.1597 517.239 53.2797C517.239 51.2797 516.999 49.3997 516.519 47.6397C516.119 45.8797 515.439 44.3596 514.479 43.0796C513.519 41.7996 512.239 40.7996 510.639 40.0796C509.039 39.2796 507.039 38.8797 504.639 38.8797C501.759 38.8797 499.319 39.4396 497.319 40.5596C495.319 41.6796 493.759 42.9996 492.639 44.5196C491.999 45.3996 491.479 46.2796 491.079 47.1596C490.759 48.0396 490.479 49.3997 490.239 51.2397C490.079 52.9996 489.959 55.5196 489.879 58.7996C489.799 61.9996 489.759 66.4396 489.759 72.1196C489.759 75.5596 489.799 78.7197 489.879 81.5997C490.039 84.3997 490.199 87.4796 490.359 90.8396C488.519 90.6796 486.759 90.5997 485.079 90.5997C483.399 90.5997 481.639 90.6796 479.799 90.8396C480.199 86.4396 480.479 81.9596 480.639 77.3996C480.799 72.8396 480.879 68.3597 480.879 63.9597C480.879 60.1997 480.839 57.2796 480.759 55.1996C480.759 53.0396 480.679 51.3596 480.519 50.1596C480.359 48.8796 480.119 47.8397 479.799 47.0397C479.559 46.2397 479.199 45.3596 478.719 44.3996C477.839 42.8796 476.439 41.5996 474.519 40.5596C472.679 39.4396 470.759 38.8797 468.759 38.8797C463.479 38.8797 459.599 40.5997 457.119 44.0397C454.639 47.4797 453.399 52.3196 453.399 58.5597V68.7596C453.399 72.3596 453.439 76.1596 453.519 80.1596C453.679 84.0796 453.959 87.6396 454.359 90.8396C452.519 90.6796 450.719 90.5997 448.959 90.5997C447.199 90.5997 445.399 90.6796 443.559 90.8396C443.959 87.6396 444.199 84.0796 444.279 80.1596C444.439 76.1596 444.519 72.3596 444.519 68.7596V56.2797Z" fill="white"/>
<path d="M431.8 43.6796C431.4 43.1996 430.6 42.7596 429.4 42.3596C428.28 41.9597 427.12 41.7597 425.92 41.7597C424 41.7597 422.28 42.1996 420.76 43.0796C419.24 43.9596 417.96 45.1596 416.92 46.6796C415.88 48.1196 415.08 49.8797 414.52 51.9597C413.96 53.9597 413.68 56.1196 413.68 58.4396V71.6397C413.68 76.9997 413.68 81.1197 413.68 83.9997C413.76 86.7997 413.92 89.0796 414.16 90.8396C412.56 90.6796 410.96 90.5997 409.36 90.5997C407.6 90.5997 405.92 90.6796 404.32 90.8396C404.56 88.1196 404.68 84.4396 404.68 79.7996C404.76 75.0796 404.8 69.3197 404.8 62.5196V58.6797C404.8 55.5597 404.76 51.9597 404.68 47.8797C404.68 43.7997 404.56 39.1197 404.32 33.8396C405.2 33.9996 406.04 34.1596 406.84 34.3196C407.64 34.3996 408.48 34.4396 409.36 34.4396C410.08 34.4396 410.84 34.3996 411.64 34.3196C412.44 34.1596 413.28 33.9996 414.16 33.8396C413.84 36.7197 413.64 38.9996 413.56 40.6796C413.56 42.3596 413.56 43.9596 413.56 45.4796L413.8 45.5997C418.52 36.9597 423.8 32.6396 429.64 32.6396C430.36 32.6396 430.96 32.6796 431.44 32.7596C432 32.8396 432.68 33.0396 433.48 33.3596C433.08 34.3196 432.84 35.7996 432.76 37.7996C432.68 39.7196 432.64 41.4796 432.64 43.0796L431.8 43.6796Z" fill="white"/>
<path d="M375.158 60.9597C373.798 61.4397 372.198 61.8396 370.358 62.1596C368.598 62.4796 366.798 62.8397 364.958 63.2397C363.118 63.5597 361.278 63.9997 359.438 64.5597C357.678 65.1197 356.078 65.8796 354.638 66.8396C353.278 67.7996 352.158 68.9996 351.278 70.4396C350.478 71.8796 350.078 73.7197 350.078 75.9597C350.078 79.7197 351.158 82.5596 353.318 84.4796C355.478 86.3996 357.878 87.3597 360.518 87.3597C363.558 87.3597 366.318 86.5196 368.798 84.8396C371.358 83.1596 373.318 81.1997 374.678 78.9597L375.158 60.9597ZM345.518 39.5997C349.118 36.8797 352.438 35.0397 355.478 34.0797C358.518 33.1197 361.638 32.6396 364.838 32.6396C367.718 32.6396 370.358 33.0796 372.758 33.9596C375.158 34.7596 377.198 35.9596 378.878 37.5596C380.558 39.0796 381.878 40.9597 382.838 43.1996C383.798 45.3596 384.278 47.7596 384.278 50.3996C384.278 54.9596 384.198 59.5196 384.038 64.0796C383.878 68.5596 383.798 73.3197 383.798 78.3597C383.798 79.3197 383.798 80.3596 383.798 81.4796C383.878 82.5196 384.078 83.4797 384.398 84.3597C384.718 85.1597 385.158 85.8397 385.718 86.3997C386.358 86.9597 387.278 87.2397 388.478 87.2397C388.878 87.2397 389.278 87.2397 389.678 87.2397C390.158 87.1597 390.598 86.9996 390.998 86.7596V89.3997C390.118 89.7997 388.998 90.1197 387.638 90.3597C386.358 90.5997 384.918 90.7197 383.318 90.7197C380.758 90.7197 378.798 90.0796 377.438 88.7996C376.078 87.4396 375.278 85.7197 375.038 83.6397C372.158 86.5197 369.318 88.6397 366.518 89.9997C363.718 91.3597 360.278 92.0397 356.198 92.0397C354.198 92.0397 352.238 91.7596 350.318 91.1996C348.398 90.6396 346.678 89.7196 345.158 88.4396C343.718 87.1596 342.518 85.6397 341.558 83.8797C340.678 82.0396 340.238 79.9597 340.238 77.6397C340.238 72.8397 341.718 69.1196 344.678 66.4796C347.718 63.8396 351.878 62.0796 357.158 61.1996C361.478 60.4796 364.838 59.8796 367.238 59.3996C369.718 58.8396 371.518 58.2796 372.638 57.7196C373.838 57.1596 374.558 56.5196 374.798 55.7996C375.038 54.9996 375.158 53.9996 375.158 52.7996C375.158 50.7997 374.918 48.8797 374.438 47.0397C373.958 45.1997 373.198 43.5996 372.158 42.2396C371.118 40.8796 369.758 39.7996 368.078 38.9996C366.398 38.1196 364.358 37.6796 361.958 37.6796C358.758 37.6796 355.758 38.3996 352.958 39.8396C350.238 41.2796 348.198 43.2796 346.838 45.8396H345.518V39.5997Z" fill="white"/>
<path d="M336.36 10.32C334.44 9.12 332.24 8.52 329.76 8.52C328 8.52 326.48 8.88 325.2 9.6C324 10.24 323 11.12 322.2 12.24C321.4 13.28 320.8 14.52 320.4 15.96C320.08 17.4 319.92 18.92 319.92 20.52C319.92 21.96 320.04 24.04 320.28 26.76C320.6 29.48 320.96 32.08 321.36 34.56C323.44 34.56 325.48 34.56 327.48 34.56C329.56 34.48 331.64 34.44 333.72 34.44C333.64 34.84 333.56 35.24 333.48 35.64C333.48 36.04 333.48 36.44 333.48 36.84C333.48 37.24 333.48 37.64 333.48 38.04C333.56 38.44 333.64 38.84 333.72 39.24C331.64 39.16 329.56 39.08 327.48 39C325.48 38.92 323.44 38.88 321.36 38.88C321.36 47.6 321.36 56.28 321.36 64.92C321.44 73.48 321.6 82.12 321.84 90.84C320.96 90.68 320.08 90.6 319.2 90.6C318.32 90.6 317.48 90.6 316.68 90.6C315 90.6 313.24 90.68 311.4 90.84C311.96 82.12 312.28 73.52 312.36 65.04C312.44 56.48 312.48 47.76 312.48 38.88C311.04 38.88 309.6 38.92 308.16 39C306.72 39.08 305.28 39.16 303.84 39.24C303.92 38.84 303.96 38.44 303.96 38.04C304.04 37.64 304.08 37.24 304.08 36.84C304.08 36.44 304.04 36.04 303.96 35.64C303.96 35.24 303.92 34.84 303.84 34.44C305.28 34.44 306.72 34.48 308.16 34.56C309.68 34.56 311.12 34.56 312.48 34.56C312.48 32.24 312.72 29.72 313.2 27C313.68 24.28 314.36 21.6 315.24 18.96C316.2 16.32 317.32 13.84 318.6 11.52C319.88 9.12 321.32 7.12 322.92 5.52C324.36 4.08 326.16 2.8 328.32 1.68C330.56 0.56 332.84 0 335.16 0C336.04 0 336.84 0.120001 337.56 0.360003C337.48 1.96 337.36 3.56 337.2 5.16C337.12 6.76 337.08 8.36 337.08 9.96L336.36 10.32Z" fill="white"/>
</svg>
