<svg width="583" height="94" viewBox="0 0 583 94" fill="none" xmlns="http://www.w3.org/2000/svg">
<g clip-path="url(#clip0_2003_37)">
<mask id="mask0_2003_37" style="mask-type:luminance" maskUnits="userSpaceOnUse" x="0" y="0" width="80" height="94">
<path d="M80 0H0V94H80V0Z" fill="white"/>
</mask>
<g mask="url(#mask0_2003_37)">
<path d="M39.9788 4.17955C59.7616 4.17955 75.7934 20.2658 75.7934 40.1067C75.7934 57.9879 62.7973 72.7358 45.7695 75.5346L39.9788 85.6037L34.1881 75.5346C17.155 72.7358 4.16424 57.9879 4.16424 40.1067C4.16424 20.2605 20.196 4.17955 39.9788 4.17955ZM39.9788 0C17.9497 0 0 18.0087 0 40.1067C0 59.1563 13.1603 75.3275 31.5232 79.2946L36.355 87.7333L39.9788 94L43.6026 87.7333L48.4344 79.2946C66.8397 75.3275 79.9576 59.1563 79.9576 40.1067C80 18.0087 62.0503 0 39.9788 0Z" fill="#D84830"/>
<path d="M30.649 41.1954C30.3153 41.3229 29.9815 41.4025 29.6901 41.4875C29.3139 41.615 28.9802 41.615 28.7312 41.6946C28.3126 41.8221 28.0636 42.0292 27.8146 42.0717C27.359 42.1991 27.1047 42.1567 26.8557 42.1991C26.5219 42.1991 26.1881 42.1567 25.7749 42.0717C25.3987 41.9867 25.0279 41.9442 24.6941 41.8221C24.3179 41.6946 23.9841 41.53 23.6928 41.3229C23.3166 41.0733 22.9828 40.7812 22.9457 40.4891C22.9457 40.0695 23.2371 39.9474 23.9047 39.735C24.2385 39.65 24.6517 39.5703 25.1974 39.4854C25.5736 39.4004 25.9073 39.2782 26.2782 39.1933C26.6543 39.1083 27.0252 39.0658 27.359 38.9862C27.6928 38.9012 28.0689 38.8215 28.4398 38.7365C28.8159 38.6516 29.1868 38.6091 29.5206 38.5294C29.8967 38.4445 30.2305 38.3223 30.6014 38.2373C30.9775 38.1524 31.3113 37.9028 31.6451 37.8178C32.0212 37.6903 32.3921 37.7328 32.7259 37.6107C33.102 37.4832 33.4358 37.3611 33.7696 37.2336C34.1457 37.1061 34.4795 36.899 34.7709 36.7716C35.1894 36.6069 35.5603 36.5645 35.8146 36.437C36.355 36.1449 36.6464 35.8953 36.6464 35.7678C36.6464 35.5182 36.106 35.4333 35.7298 35.4333C35.3537 35.4333 35.0199 35.5979 34.7285 35.6404C34.3524 35.6404 34.0186 35.6404 33.6848 35.6829C33.351 35.7254 33.0173 35.7678 32.6835 35.8103H31.6398C31.2212 35.8103 30.8504 35.8103 30.4742 35.8528C30.0557 35.8528 29.7272 36.0174 29.351 36.0599C28.9749 36.0599 28.604 36.1874 28.2279 36.2246C27.8517 36.2246 27.5179 36.3095 27.1047 36.352C26.7709 36.352 26.3947 36.3945 25.9815 36.437C25.3563 36.522 25.0226 36.522 24.3974 36.6016C24.0212 36.6441 23.5656 36.7663 23.1471 36.8937C22.7285 37.0212 22.4 37.3133 22.2729 37.7275C22.1457 38.1046 21.9815 38.4391 21.8543 38.7312C21.7272 39.0658 21.6477 39.4004 21.5206 39.735C21.3934 40.0271 21.1444 40.3191 21.0226 40.6962C20.8954 41.0733 20.8159 41.3229 20.5245 41.53C20.3179 41.6574 20.0265 41.8221 19.5656 41.8221C19.2742 41.8221 18.9404 41.6946 18.5643 41.53C18.2305 41.4025 17.8543 41.3229 17.6053 41.1104C17.2716 40.8608 17.0649 40.5263 17.0649 40.2342C17.0649 40.0695 17.1497 39.735 17.3563 39.2304C17.4835 38.9384 17.563 38.6038 17.7325 38.2267C17.8596 37.8921 18.0239 37.6 18.151 37.2655C18.2782 36.9309 18.3577 36.5538 18.4848 36.2617C18.649 35.8422 18.9034 35.5076 18.9828 35.343C19.1471 34.9659 19.359 34.6738 19.6928 34.5092C20.0265 34.3446 20.4027 34.3446 20.7736 34.3021C21.1497 34.2596 21.5206 34.0525 21.8543 34.01C22.1881 34.01 22.5219 33.9675 22.8133 33.925C23.1471 33.925 23.4808 33.84 23.7722 33.84C24.106 33.84 24.4398 33.925 24.7312 33.925C25.0226 33.925 25.3563 33.7604 25.6901 33.7604C25.9815 33.7604 26.3153 33.8029 26.649 33.7604C26.8133 33.7604 27.2318 33.6754 27.6504 33.6329C28.0689 33.5904 28.4822 33.3833 28.6093 33.3833C28.9855 33.3833 29.4411 33.5108 29.8596 33.4683C30.2782 33.4258 30.6914 33.4683 31.11 33.4258C31.6504 33.4258 32.1113 33.2612 32.3179 33.2187C32.7365 33.2187 33.1073 33.3037 33.4411 33.3037C33.8596 33.3037 34.1881 33.2187 34.5643 33.2187C34.9404 33.2187 35.3113 33.2612 35.6875 33.2612C36.0636 33.2612 36.4345 33.2187 36.8106 33.2187C37.1868 33.2187 37.5206 33.1762 37.9338 33.1337H40.1802C40.5563 33.1337 40.9272 33.0912 41.3034 33.0912C41.6795 33.0912 42.0504 33.0063 42.4265 33.0063H44.6729C45.049 33.0063 45.3828 33.1337 45.7961 33.1709C46.1298 33.1709 46.506 33.2134 46.9192 33.2134H49.0861C49.4623 33.2134 49.7961 33.2984 50.1669 33.3408C50.5431 33.3833 50.8769 33.3408 51.2477 33.3408H52.3285C52.6623 33.3408 53.0384 33.4683 53.4093 33.5055H54.3683C54.7444 33.5055 55.0358 33.463 55.3272 33.5055C55.6186 33.548 55.91 33.6329 56.2861 33.6701H57.2451C57.6212 33.6701 58.0345 33.6701 58.4106 33.7126C58.7868 33.7551 59.163 33.9622 59.5338 34.0472C59.91 34.1746 60.2861 34.2968 60.6146 34.5464C60.9484 34.796 61.1974 35.0881 61.3669 35.4651C61.3669 35.5501 61.4941 35.9643 61.7431 36.5113C61.8702 36.8034 61.9497 37.1805 62.1192 37.5576C62.2464 37.8921 62.4106 38.2692 62.5378 38.6038C62.702 38.9808 62.8716 39.3154 62.9934 39.65C63.2 40.2342 63.449 40.6537 63.412 40.6962C63.412 40.9033 63.0358 41.1582 62.6226 41.3654C62.3312 41.53 61.9974 41.5725 61.6636 41.6999C61.2875 41.8274 60.9537 41.9495 60.7047 41.9071C60.2861 41.9071 60.0371 41.7424 59.8305 41.4875C59.6239 41.2379 59.4967 40.9033 59.3749 40.6112C59.2477 40.2342 58.9987 39.9421 58.8769 39.65C58.7497 39.2729 58.6702 38.9384 58.5431 38.6463C58.3788 38.2692 58.2517 37.9771 58.0875 37.685C57.8808 37.3504 57.6689 37.1008 57.4199 36.8937C57.1709 36.6866 56.8795 36.4742 56.5457 36.352C56.2543 36.2671 55.9206 36.2246 55.502 36.1449C55.2106 36.1024 54.8345 36.0174 54.4636 35.9803H53.3828C53.0067 35.9803 52.6729 35.8953 52.302 35.8528C51.9259 35.8103 51.6345 35.7254 51.2212 35.6882C50.8875 35.6882 50.5537 35.5607 50.1404 35.5235C49.7643 35.5235 49.4305 35.6085 49.0967 35.566C48.7206 35.566 48.3868 35.4386 48.0954 35.4386H46.0133C45.6795 35.4386 45.3457 35.3111 44.9696 35.2739H43.7192C43.1788 35.2739 42.8451 35.3589 42.5113 35.5235C42.2199 35.651 41.8861 35.8581 41.4676 36.1927C41.012 36.5273 41.049 36.5698 41.1338 36.6919H42.1351C42.5113 36.6919 42.8451 36.8194 43.1365 36.8194C43.4702 36.8194 43.804 36.6919 44.1378 36.6919C44.4716 36.6919 44.8053 36.8565 45.1391 36.8565H46.1404C46.4742 36.8565 46.808 36.7716 47.1841 36.7716C47.5603 36.7716 47.8941 36.8565 48.2279 36.899C48.604 36.899 48.9378 36.8565 49.2716 36.899C49.6901 36.899 50.0186 37.0637 50.3153 37.0637C50.7709 37.0637 51.1047 37.1061 51.359 37.1486C51.9418 37.2336 52.106 37.2761 52.3603 37.3558C52.6517 37.4407 52.9431 37.6054 53.2345 37.7328C53.5259 37.8603 53.7749 38.0674 54.0663 38.232C54.3577 38.4391 54.6914 38.5666 54.8557 38.7737C55.1047 39.0658 55.2318 39.3579 55.2318 39.65C55.2318 39.9421 55.0676 40.1492 54.7338 40.3191C54.5643 40.4466 54.3153 40.6112 53.9815 40.7387C53.8543 40.7812 53.5259 40.8661 53.1921 40.9458C52.8583 41.0308 52.4822 41.1104 52.4027 41.1529C52.0265 41.3176 51.7351 41.53 51.4437 41.6521C51.11 41.8168 50.7338 41.8168 50.4 41.9442C50.0663 42.0717 49.7749 42.1938 49.3987 42.3638C49.1073 42.4912 48.8159 42.6984 48.4398 42.863C48.106 43.0276 47.7298 43.1976 47.3961 43.3622C47.0623 43.5268 46.6861 43.6968 46.3524 43.8614C46.0186 44.026 45.6424 44.281 45.3086 44.4031C44.9325 44.5677 44.5616 44.6952 44.2279 44.7802C43.8517 44.9076 43.5179 44.9448 43.2265 45.0298C42.8928 45.1572 42.559 45.1572 42.2252 45.2794C41.8914 45.4068 41.6424 45.6139 41.3087 45.7414C41.0173 45.8264 40.6835 45.906 40.3073 46.0335C40.1007 46.1185 39.7669 46.2831 39.306 46.4106C38.9722 46.4955 38.5961 46.538 38.2252 46.6177C37.8914 46.7026 37.5153 46.8673 37.1815 46.9523C36.8053 47.0372 36.4345 47.1169 36.1378 47.2019C35.555 47.3293 35.1365 47.409 35.0941 47.4515C34.7179 47.5364 34.3471 47.4515 34.0504 47.5364C33.6742 47.6214 33.3828 47.7435 33.049 47.8285C32.7153 47.9135 32.3815 47.9932 32.0053 48.0356C31.6716 48.0781 31.3378 48.1631 30.9616 48.2428C30.8345 48.2428 30.4636 48.3277 29.9603 48.3702C29.6265 48.3702 29.2928 48.4552 28.959 48.4977C28.5034 48.5402 28.0848 48.4977 27.9577 48.4977C27.6239 48.4977 27.2477 48.5826 26.8769 48.5826C26.5431 48.5826 26.1669 48.4977 25.7961 48.4552C25.4199 48.4127 25.049 48.4552 24.7153 48.4127C24.3815 48.3702 24.0053 48.2481 23.6345 48.1631C23.2583 48.0356 22.9245 47.9135 22.5908 47.786C22.2146 47.6214 21.8808 47.4515 21.6318 47.2019C21.3404 46.9522 21.2133 46.5752 21.2133 46.2406C21.2133 45.991 21.2981 45.3643 22.2146 45.3219H23.2954C23.6292 45.3219 24.0424 45.2369 24.3762 45.2369H25.457C25.5418 45.2369 25.9974 45.2369 26.5378 45.1944C26.8716 45.1944 27.2848 45.2369 27.6186 45.1944C28.1166 45.1944 28.5775 45.1519 28.6994 45.1094C29.1179 45.0669 29.4464 44.982 29.8226 44.9448C30.1987 44.9023 30.5696 44.7802 30.9034 44.7377C31.2371 44.6952 31.6133 44.6527 31.9841 44.6102C32.3179 44.6102 32.6941 44.6527 33.1073 44.6102C33.3563 44.6102 33.4835 44.4828 33.7325 44.4456C34.151 44.3606 34.5219 44.4031 34.8133 44.3181C35.1894 44.2332 35.5232 44.0685 35.8941 44.026C36.2702 43.9836 36.604 44.026 36.9749 43.9411C37.3087 43.8986 37.6424 43.7339 38.0557 43.6915C38.2199 43.649 38.3047 43.6065 38.4742 43.564C38.6385 43.479 38.6808 43.479 38.8504 43.4365C38.6861 43.2294 38.5166 43.0595 37.6 42.9373C37.4358 42.9373 37.0596 42.7727 36.6411 42.6452C36.3073 42.5603 35.9312 42.6452 35.5974 42.5603C35.1788 42.4328 34.808 42.3107 34.6384 42.2682C34.2623 42.1832 33.9709 42.0186 33.6795 41.9336C33.3457 41.8486 33.012 41.7265 32.7206 41.6415C32.4292 41.5565 32.053 41.5565 31.7192 41.4344C31.4279 41.3494 31.0941 41.2698 30.7179 41.1848H30.5908L30.649 41.1954ZM49.9762 21.5988C50.3947 21.5988 50.7656 21.6413 51.1418 21.6838C51.5603 21.6838 51.9312 21.8112 52.3073 21.8484C52.6835 21.8484 53.0596 21.8059 53.4729 21.8484C53.849 21.8484 54.2252 21.9759 54.5961 22.013C54.9722 22.013 55.3484 22.098 55.7616 22.1405H58.0133C58.5113 22.1405 58.9722 22.098 59.1365 22.098C59.2212 22.098 59.6345 22.3051 60.1378 22.3901C60.4716 22.4326 60.8053 22.5176 61.1391 22.5547C61.6371 22.6397 62.0981 22.6397 62.1404 22.6822C62.4318 22.7672 63.306 23.0168 63.2636 23.6434C63.2636 23.9355 62.8875 24.1851 62.3894 24.4347C62.0557 24.5994 61.6371 24.7268 61.2239 24.8543C60.8053 24.9817 60.3921 25.1039 60.0159 25.1889C59.6822 25.1464 59.3484 25.1889 59.0994 25.1889C58.808 25.1464 58.5166 24.9817 58.2252 24.9393C57.9338 24.9393 57.6424 24.8968 57.3086 24.8543H56.2649C55.8888 24.8543 55.555 24.6472 55.2265 24.6472H54.1828C53.849 24.6472 53.5153 24.4825 53.1444 24.4825C52.8106 24.4825 52.4769 24.5675 52.1007 24.4825C51.8517 24.4825 51.4332 24.3976 51.0199 24.3551C50.6014 24.3126 50.1457 24.3551 49.8967 24.3551C49.563 24.3551 49.2716 24.2701 49.0226 24.6047C48.8954 24.7693 48.6888 25.0667 48.5669 25.481C48.6093 25.481 48.6941 25.5234 48.7312 25.5659H49.7749C50.151 25.5659 50.4848 25.6084 50.8186 25.6509C51.1524 25.6509 51.4861 25.7359 51.8199 25.7784C52.1537 25.7784 52.4875 25.9058 52.8212 25.9058H53.8649C54.0716 25.9058 54.4901 25.9058 54.9881 25.9908C55.3643 26.0333 55.7351 26.1182 56.1113 26.1979C56.6093 26.2829 57.0279 26.2829 57.2345 26.3625C57.5683 26.49 57.8596 26.8246 58.1934 27.1167C58.5272 27.4087 58.7338 27.7433 58.6914 28.1204C58.6914 28.285 58.4848 28.6621 58.1934 29.0391C57.902 29.4162 57.5259 29.6233 57.404 29.7508C56.9855 30.0854 56.7365 30.4199 56.4451 30.6695C56.1537 30.9191 55.8199 31.1316 55.4014 31.4608C55.11 31.7104 54.7762 31.9229 54.4848 32.045C54.1086 32.2097 53.7749 32.3796 53.4411 32.4221C53.0226 32.5071 52.6517 32.5071 52.3603 32.5071H51.2795C50.9457 32.5071 50.5696 32.3424 50.1987 32.3424H49.1179C48.7418 32.3424 48.3709 32.1778 48.0371 32.1778C47.5391 32.1778 47.1206 32.2628 46.9563 32.2628H44.7894C44.4133 32.2628 44.0424 32.0981 43.7086 32.0981C43.3325 32.0981 42.9616 32.1831 42.6279 32.1831C42.2941 32.1831 41.8808 32.0556 41.5471 32.0556H40.4663C40.1325 32.0556 39.7192 32.2203 39.3855 32.2203C39.0517 32.2203 38.6755 32.0928 38.3047 32.0928H37.2239C36.8477 32.0928 36.5139 32.2574 36.1431 32.2574C35.7722 32.2574 35.4332 32.1725 35.0623 32.1725C34.6914 32.1725 34.3524 32.2574 33.9815 32.2574C33.6106 32.2574 33.2716 32.1725 32.9007 32.215C32.5245 32.2574 32.1908 32.2574 31.8199 32.2574C31.449 32.2574 31.11 32.3424 30.7391 32.3424C30.2835 32.3849 29.9073 32.3849 29.5312 32.4274C29.1126 32.4699 28.6994 32.4699 28.3232 32.5124C27.9471 32.5548 27.5762 32.6398 27.1153 32.677C26.7391 32.7195 26.3683 32.8416 25.9497 32.9266C25.5312 32.9691 25.2027 32.9691 24.8689 32.9266C24.4504 32.9266 24.1219 32.8416 23.8252 32.7195C23.4914 32.592 23.3272 32.2574 23.0782 31.9654C22.8716 31.7158 22.702 31.4237 22.4954 31.1316C22.3312 30.882 22.0769 30.5899 21.8702 30.2553C21.7855 30.1278 21.5788 29.6286 21.4146 29.0869C21.2504 28.5452 21.208 27.9982 21.208 27.8761C21.208 27.584 21.2928 27.3344 21.5841 27.122C21.7908 26.9945 22.0398 26.8299 22.4159 26.7024C22.6649 26.6174 22.9987 26.6599 23.3325 26.6174C23.7087 26.575 24.0795 26.49 24.4557 26.4103C24.8318 26.3254 25.2027 26.2032 25.5788 26.1607C25.955 26.1182 26.3683 26.1607 26.7444 26.1607C27.163 26.1607 27.5338 26.0333 27.91 25.9961C28.3285 25.9961 28.6994 25.8686 29.0755 25.8686C29.4941 25.8686 29.8649 25.9536 30.2411 25.9536C30.7815 25.9536 31.2424 25.8686 31.2424 25.4916C31.2424 25.242 30.9934 24.9499 30.8239 24.6578C30.6596 24.6578 30.6173 24.5728 30.4477 24.5728H29.2398C28.8212 24.5728 28.4504 24.6153 28.0742 24.6578C27.6981 24.7003 27.3272 24.7852 26.9087 24.7852C26.5325 24.7852 26.1616 24.9127 25.7431 24.9499C25.5788 24.9499 25.1603 24.9499 24.6199 25.0773C24.2861 25.1623 23.8729 25.1198 23.4543 25.2048C23.0782 25.2898 22.7073 25.4119 22.3312 25.4969C21.955 25.5819 21.5418 25.6243 21.208 25.704C20.7894 25.789 20.4186 25.8315 20.0848 25.9111C19.5444 25.9961 19.1259 26.2032 18.9616 26.2457C18.506 26.2457 18.1722 26.1182 17.8808 25.9961C17.4623 25.8315 17.2981 25.4544 17.2557 25.1623C17.2557 24.8277 17.3404 24.4507 17.5471 24.1161C17.7537 23.8665 18.0451 23.6169 18.3788 23.4045C18.6702 23.2398 19.004 23.0274 19.3378 22.9052C19.502 22.8628 19.8782 22.8203 20.4186 22.7406C20.71 22.7406 21.0861 22.576 21.4623 22.5335C21.7961 22.5335 22.1722 22.491 22.5431 22.4485H24.71C25.0861 22.4485 25.4199 22.2839 25.7908 22.2414H26.8716C27.2477 22.2414 27.6186 22.1139 27.9524 22.1139C28.4504 22.1139 28.8689 22.0715 29.0332 22.029C29.6583 22.029 29.9497 22.029 29.9497 21.8219C29.9497 21.7369 29.5736 21.5722 29.2822 21.4023C29.0755 21.2748 28.9484 21.0677 28.9484 20.9031C28.9484 20.611 29.155 20.3614 29.4464 20.1118C29.6954 19.9472 29.9444 19.6922 30.2782 19.5701C30.5696 19.4426 30.9034 19.363 31.2371 19.3205C31.5709 19.278 31.9047 19.3205 32.2385 19.3205C32.5722 19.3205 32.9484 19.2355 33.3192 19.3205C33.6954 19.4055 33.9868 19.6976 34.2358 19.8622C34.612 20.0693 34.861 20.3242 34.9034 20.6163C35.1524 21.705 35.2371 21.7422 35.4861 21.7422C35.6504 21.7422 36.1961 21.7847 36.7365 21.7847C37.2769 21.7847 37.7802 21.6572 37.9444 21.6572C38.3206 21.6572 38.6914 21.7847 39.0252 21.7847H43.3537C43.6875 21.7847 44.0636 21.6572 44.4345 21.6572C44.6835 21.6572 44.7259 21.5298 44.7259 21.3651C44.7259 21.2005 43.8941 20.4039 43.8941 20.2393C43.8941 19.9897 44.1855 19.6551 44.6411 19.448C44.9325 19.3205 45.3087 19.2408 45.6848 19.1134C46.0186 19.0284 46.3947 18.9859 46.7656 18.9487C47.1418 18.9063 47.5126 18.8213 47.8464 18.8213C48.2226 18.8213 48.5563 19.0284 48.9272 19.1559C49.3034 19.2833 49.6371 19.448 49.8861 19.6551C50.2623 19.9047 50.5113 20.1543 50.4689 20.4464C50.4689 20.6535 50.2199 21.4926 50.1351 21.6572C50.2199 21.6997 50.2623 21.7422 50.3418 21.7847L50.008 21.62L49.9762 21.5988ZM32.0265 29.9154C32.0265 29.9154 31.8994 29.3312 31.7775 28.8267C31.6504 28.3275 31.4861 27.7805 31.4014 27.738C31.1524 27.653 30.7338 27.738 30.2782 27.738H29.155C28.7788 27.738 28.408 27.823 28.0742 27.9026C27.4914 28.0301 27.0729 28.1947 26.9934 28.1947C26.6173 28.2797 26.4954 28.6568 26.4954 28.8214C26.4954 28.9489 26.6596 29.7402 27.163 30.1172C27.3272 30.1172 27.661 30.2447 28.1219 30.2022H29.0808C29.4146 30.2022 29.7484 30.0747 30.0398 30.0747C30.3736 30.0747 30.7073 30.0747 31.0411 30.0322C31.5391 30.0322 31.8729 29.9048 32 29.9048H32.0424L32.0265 29.9154ZM34.5219 39.7297C34.7285 39.7297 34.8981 39.8146 35.0623 39.8571C35.3961 39.9421 35.7298 40.1067 36.106 40.1917C36.4822 40.2767 36.8159 40.2767 37.1868 40.3563C37.563 40.4413 37.8543 40.6059 38.2305 40.6909C38.6067 40.7759 38.9404 40.898 39.2742 40.983C39.6504 41.068 39.9841 41.1104 40.355 41.1901C40.7312 41.2751 41.0649 41.3547 41.3987 41.4397C41.7749 41.5247 42.1457 41.5247 42.4795 41.6043C43.1047 41.7318 43.4385 41.9814 43.5232 41.9814C43.6875 41.9814 44.1484 41.8539 44.355 41.7743C44.5192 41.6893 44.8954 41.4822 45.3563 41.2326C45.6901 41.068 46.0239 40.9405 46.4 40.7706C46.7762 40.6059 47.11 40.436 47.4014 40.2713C47.857 40.0642 48.2755 39.8943 48.4451 39.8093C48.4451 39.6819 48.4027 39.5597 48.3603 39.4747C48.1113 39.4747 47.6928 39.5172 47.2371 39.4747C46.9034 39.4747 46.5272 39.3101 46.1139 39.2676C45.6954 39.2251 45.3245 39.2676 44.9908 39.2676C44.5351 39.2676 44.1166 39.3526 43.8676 39.3526C43.4914 39.3526 43.1206 39.2251 42.7868 39.2251C42.4106 39.2251 42.0398 39.3101 41.706 39.3101C41.3298 39.3101 40.9961 39.2251 40.6252 39.2251C40.2543 39.2251 39.9153 39.3526 39.5815 39.3898H38.5007C38.1669 39.3898 37.8332 39.4323 37.4199 39.4323H35.1736C34.9245 39.5172 34.7974 39.6394 34.5484 39.7668V39.7243L34.5219 39.7297ZM35.4808 25.4863H36.4398C36.7735 25.4863 37.0649 25.5712 37.3563 25.5712C37.6477 25.5712 37.9391 25.4863 38.3153 25.4863C38.6914 25.4863 39.0252 25.5287 39.359 25.5287H40.4027C40.7788 25.5287 41.1126 25.4438 41.4464 25.4438H42.4901C42.8239 25.4438 43.1577 25.3588 43.5338 25.3588C43.8676 25.3588 44.2014 25.4863 44.5775 25.4863C44.7841 25.4863 44.9537 25.0667 44.9537 24.9021C44.9537 24.61 44.7894 24.3179 44.7047 24.1108C44.6199 24.1108 44.5775 24.0258 44.5404 24.0258H43.5391C43.163 24.0258 42.8292 23.9833 42.5378 23.9833H41.5365C41.2027 23.9833 40.8689 24.1108 40.5351 24.1108C40.2014 24.1108 39.8676 23.9833 39.5338 23.9833C39.2 23.9833 38.8663 23.9833 38.5325 24.0258C38.1987 24.0258 37.8649 24.1108 37.5312 24.1533C37.0755 24.1533 36.7418 24.0258 36.4504 24.0683C35.8676 24.0683 35.5762 24.2329 35.4067 24.3604C35.2424 24.525 35.2 24.8596 35.3219 25.4066C35.4067 25.4066 35.4861 25.4066 35.5709 25.4491L35.4861 25.4916L35.4808 25.4863ZM36.355 29.8304H37.4358C37.812 29.8304 38.1828 29.9154 38.5166 29.8729C38.8928 29.8729 39.2265 29.7455 39.5974 29.7455C39.9683 29.7455 40.3073 29.8304 40.6782 29.8304H41.759C42.0928 29.8304 42.4689 29.788 42.8398 29.788C43.2106 29.788 43.2583 29.2887 43.2583 28.9967C43.2583 28.7471 43.1312 27.8283 43.1312 27.6159C42.9245 27.5309 42.7126 27.4087 42.2994 27.4087H41.2981C40.9643 27.4087 40.6305 27.4937 40.2967 27.4937H37.2981C37.0067 27.4937 36.6729 27.4937 36.2967 27.5362C36.1325 27.5787 36.1325 27.7008 35.963 27.7433C35.963 27.7858 35.8358 27.7433 35.8358 27.8283C35.963 27.9558 35.963 28.37 36 28.4974C36 28.9595 36.0848 29.1666 36.0424 29.6233C36.0848 29.7083 36.0424 29.788 36.0424 29.8304H36.3338H36.355ZM52.5987 29.4109C52.5987 29.4109 53.1815 28.5346 53.2239 28.3647C53.2239 28.2797 52.8053 28.0726 52.2226 27.9876C51.8888 27.9451 51.5126 27.9876 51.1418 27.9876C50.7709 27.9876 50.3947 27.823 50.0981 27.823C49.5577 27.7805 49.0967 27.6955 49.0173 27.6955C48.5192 27.6955 48.2279 27.6955 48.1431 27.823C47.9788 27.908 47.8093 28.285 47.6451 28.6993C47.4808 29.1613 47.4385 29.618 47.4385 29.6605C47.4385 29.788 47.4385 29.9101 48.0212 29.9101C48.4398 29.9101 48.7683 29.9101 49.0649 29.9526H50.1087C50.4424 29.9526 50.7762 29.9951 51.1524 30.0376C51.5285 30.0376 51.7775 30.0376 51.9418 29.9951C52.2755 29.9101 52.3974 29.7455 52.5669 29.4959L52.6093 29.4109H52.5987Z" fill="#D84830"/>
<path d="M29.4411 61.4559C29.4411 61.4559 29.2769 61.4134 29.1921 61.3284C29.1073 61.2434 29.0649 61.2009 29.0649 61.0788V60.8717C29.0649 60.7867 29.1497 60.707 29.1921 60.6221C29.2345 60.5371 29.3193 60.4946 29.4411 60.4946H30.5219C30.6491 60.4946 30.7285 60.4946 30.8133 60.4096H30.8981C31.0252 60.3672 31.1047 60.2397 31.1047 60.1175V55.938C31.1047 55.853 31.1047 55.8105 31.0199 55.7309C30.9351 55.6459 30.9351 55.6034 30.8557 55.6034H30.7285C30.6014 55.6034 30.4795 55.6459 30.4371 55.7681C30.3806 55.853 30.3259 55.9221 30.2729 55.9752C30.1881 56.0601 30.1881 56.1026 30.1087 56.1823C30.0239 56.2673 30.0239 56.3097 29.9444 56.3894C29.8597 56.4744 29.8597 56.5169 29.7802 56.5965C29.6954 56.6815 29.6954 56.724 29.653 56.8036C29.6106 56.8886 29.5683 56.8886 29.4888 57.0108C29.4323 57.0957 29.3899 57.1648 29.3616 57.2179C29.3193 57.3029 29.2769 57.3453 29.1974 57.425C29.1126 57.51 29.1126 57.5525 29.0332 57.6321C28.9484 57.7171 28.9908 57.7596 28.906 57.8392C28.8495 57.8959 28.7948 57.9649 28.7418 58.0464C28.657 58.1738 28.657 58.1313 28.5775 58.2535C28.4981 58.3756 28.5351 58.3809 28.4504 58.5031C28.3939 58.5881 28.3391 58.6571 28.2861 58.7102C28.2332 58.7633 28.1784 58.8323 28.1219 58.9173C28.0371 59.0448 28.0795 59.0448 27.9948 59.1244C27.91 59.2094 27.91 59.2519 27.8305 59.3316C27.7457 59.4165 27.7457 59.459 27.7034 59.5387C27.661 59.6236 27.6186 59.6236 27.5391 59.7458C27.4826 59.8308 27.4279 59.8998 27.3749 59.9529C27.3184 60.0096 27.2636 60.0786 27.2106 60.16C27.1541 60.245 27.0994 60.314 27.0464 60.3671C26.9616 60.4521 27.004 60.4946 26.9193 60.6168C26.8345 60.7389 26.8345 60.7017 26.755 60.8239C26.6985 60.9088 26.6438 60.9779 26.5908 61.031C26.506 61.116 26.506 61.1584 26.4265 61.2381C26.3471 61.3178 26.3418 61.3231 26.2623 61.4452C26.1775 61.5302 26.0981 61.6152 25.9709 61.6152H25.7219C25.5948 61.6152 25.4729 61.5302 25.4305 61.4452C25.3457 61.3603 25.3457 61.3178 25.2663 61.2381C25.1868 61.1584 25.1815 61.1107 25.102 61.031C25.0455 60.9743 24.9908 60.9053 24.9378 60.8239C24.853 60.6964 24.853 60.7389 24.7736 60.6168C24.6941 60.4946 24.6888 60.4893 24.6093 60.4096C24.5528 60.353 24.4981 60.2839 24.4451 60.2025C24.3603 60.0751 24.3603 60.1175 24.2808 59.9954C24.2014 59.8733 24.1961 59.9104 24.1166 59.7883C24.0601 59.7033 24.0177 59.6343 23.9895 59.5812C23.9471 59.4962 23.9047 59.4962 23.8252 59.374C23.7457 59.2519 23.7404 59.2466 23.661 59.1669C23.6045 59.1103 23.5497 59.0412 23.4967 58.9598C23.4402 58.8748 23.3855 58.8058 23.3325 58.7527C23.276 58.696 23.2212 58.627 23.1683 58.5456C23.0835 58.4181 23.1259 58.4181 23.0411 58.3384C22.9846 58.2818 22.9299 58.2128 22.8769 58.1313C22.8204 58.0464 22.7656 57.9773 22.7126 57.9242C22.6279 57.8392 22.6279 57.7968 22.5855 57.7171C22.5431 57.6321 22.5007 57.5896 22.4212 57.51C22.3647 57.4533 22.31 57.3843 22.257 57.3029C22.1722 57.1754 22.1722 57.2179 22.0928 57.0957C22.0133 56.9736 22.008 56.9683 21.9285 56.8886C21.8438 56.8036 21.8438 56.7612 21.7643 56.6815C21.6795 56.5965 21.6795 56.554 21.6 56.4744C21.5435 56.4177 21.4888 56.3487 21.4358 56.2673C21.3793 56.1823 21.3369 56.1133 21.3087 56.0601C21.2663 55.9752 21.2239 55.9752 21.1444 55.853C21.0649 55.7309 21.0597 55.7256 20.9802 55.6459C20.8954 55.5609 20.8159 55.4813 20.6888 55.4813H20.5616C20.4769 55.4813 20.4345 55.5662 20.3974 55.6087C20.355 55.6512 20.355 55.7362 20.355 55.8159V59.8255C20.355 59.9104 20.3974 59.9901 20.4822 60.0751C20.5669 60.1175 20.6464 60.2025 20.7736 60.2397C20.8583 60.2397 20.9378 60.2397 21.0226 60.2822C21.1073 60.2822 21.1868 60.3671 21.2716 60.3671H22.0186C22.1034 60.3671 22.2252 60.3672 22.2676 60.4521C22.31 60.5371 22.3524 60.6168 22.3524 60.7017V60.9088C22.3524 60.9938 22.3524 61.116 22.2676 61.1585C22.1828 61.2009 22.1034 61.2434 22.0186 61.2434H17.2716C17.1868 61.2434 17.1073 61.2009 17.0226 61.116C16.9378 61.031 16.8954 60.9885 16.8954 60.8664V60.6592C16.8954 60.5743 16.8954 60.4521 16.9802 60.4096C17.0649 60.3672 17.1444 60.2822 17.2292 60.2822H17.6848C17.7696 60.2822 17.8491 60.2822 17.9338 60.2397C18.0186 60.1972 18.0981 60.2397 18.1828 60.1972C18.2676 60.1972 18.3471 60.1972 18.4318 60.1547C18.559 60.1122 18.6385 60.0697 18.6808 60.0273C18.7232 59.9848 18.808 59.8998 18.8451 59.8573V53.8403C18.8451 53.7128 18.7179 53.5907 18.5961 53.5482H18.4689C18.3842 53.5482 18.3047 53.4632 18.1775 53.4632H17.1762C17.0914 53.4632 16.9696 53.4207 16.9272 53.3357C16.8848 53.2508 16.8 53.1711 16.8 53.0861V52.879C16.8 52.794 16.8424 52.7144 16.9272 52.6294C17.012 52.5444 17.0914 52.502 17.1762 52.502H22.6755C22.8027 52.502 22.8822 52.5869 22.9669 52.6666C23.0234 52.7516 23.0782 52.8206 23.1312 52.8737C23.1877 52.9304 23.2424 52.9994 23.2954 53.0808C23.3802 53.2083 23.3378 53.2083 23.4226 53.2879C23.4791 53.3446 23.5338 53.4136 23.5868 53.4951C23.6716 53.6225 23.6292 53.6225 23.714 53.7022C23.7705 53.7588 23.8252 53.8279 23.8782 53.9093C23.963 54.0368 23.9206 54.0368 24.0053 54.1164C24.0901 54.2014 24.0901 54.2439 24.1696 54.3235C24.2261 54.3802 24.2808 54.4492 24.3338 54.5307C24.4186 54.6581 24.4186 54.6156 24.4981 54.7378C24.5546 54.8227 24.6093 54.8918 24.6623 54.9449C24.7471 55.0299 24.7471 55.0723 24.8265 55.152C24.9113 55.237 24.9113 55.2795 24.9908 55.3591C25.0473 55.4158 25.102 55.4848 25.155 55.5662C25.2115 55.6512 25.2663 55.7203 25.3193 55.7734C25.404 55.8583 25.404 55.9008 25.4835 55.9805C25.54 56.0371 25.5948 56.1062 25.6477 56.1876C25.7042 56.2726 25.759 56.3416 25.812 56.3947C25.8967 56.4797 25.8967 56.5222 25.9391 56.6018C25.9815 56.6868 26.0239 56.6868 26.1034 56.809C26.1828 56.9311 26.1457 56.9364 26.2305 57.0586C26.3153 57.1807 26.3153 57.1435 26.3948 57.2657C26.4795 57.3507 26.559 57.4303 26.6861 57.4303C26.8133 57.4303 26.9351 57.3453 26.9775 57.2657C27.034 57.1807 27.0764 57.1117 27.1047 57.0586C27.1471 56.9736 27.1895 56.9311 27.2318 56.8514C27.2742 56.7665 27.3166 56.724 27.359 56.6443C27.4014 56.5594 27.4438 56.5169 27.5232 56.4372C27.5797 56.3806 27.6345 56.3115 27.6875 56.2301C27.7722 56.1026 27.7722 56.1451 27.8517 56.023C27.9312 55.9008 27.8941 55.8955 27.9789 55.8159C28.0354 55.7592 28.0901 55.6902 28.1431 55.6087C28.2279 55.4813 28.2279 55.5238 28.3073 55.4016C28.3868 55.2795 28.3921 55.3166 28.4716 55.1945C28.5281 55.1095 28.5705 55.0405 28.5987 54.9874C28.6411 54.9024 28.6835 54.8599 28.763 54.7803C28.8477 54.6953 28.8477 54.6528 28.8901 54.5731C28.9325 54.4882 28.9749 54.4457 29.0544 54.366C29.1391 54.2811 29.1391 54.2386 29.2186 54.1589C29.2751 54.1023 29.3298 54.0332 29.3828 53.9518C29.4393 53.8668 29.4817 53.7978 29.51 53.7447C29.5524 53.6597 29.5948 53.6172 29.6371 53.5375C29.6795 53.4526 29.7219 53.4526 29.8014 53.3304C29.8808 53.2083 29.8438 53.203 29.9285 53.0808C30.0133 52.9534 30.0133 52.9958 30.0928 52.8737C30.1493 52.7887 30.204 52.7197 30.257 52.6666C30.3418 52.5816 30.4212 52.502 30.5484 52.502H36.0477C36.1325 52.502 36.2544 52.502 36.2967 52.6294C36.3391 52.7569 36.3815 52.794 36.3815 52.879V53.0861C36.3815 53.1711 36.3391 53.2933 36.2544 53.3357C36.1696 53.3782 36.0901 53.4207 36.0053 53.4207H34.9246C34.7974 53.4207 34.7179 53.4632 34.6332 53.5057H34.5484C34.4212 53.5482 34.3418 53.6703 34.3418 53.7978V59.8998C34.3418 60.0273 34.4689 60.1494 34.5908 60.1919H34.7179C34.8027 60.1919 34.8822 60.2344 35.0093 60.2769H36.0901C36.1749 60.2769 36.2544 60.3194 36.3391 60.4043C36.4239 60.4893 36.4663 60.5318 36.4663 60.6539V60.861C36.4663 60.946 36.4239 61.031 36.3391 61.1107C36.2544 61.1956 36.212 61.2381 36.0901 61.2381H28.8424L29.4676 61.4452L29.4411 61.4559Z" fill="#D84830"/>
<path d="M44.392 61.4559C44.392 61.4559 44.1854 61.4559 44.143 61.3284C44.1006 61.201 44.0582 61.1585 44.0582 61.0788V60.8717C44.0582 60.7867 44.0582 60.7071 44.143 60.6221C44.2277 60.5371 44.3072 60.4947 44.392 60.4947H45.1019C45.2291 60.4947 45.3509 60.4097 45.3933 60.2875C45.4357 60.1601 45.4357 60.0379 45.3933 59.953C45.3368 59.868 45.282 59.7848 45.2291 59.7034C45.1761 59.6219 45.1213 59.5529 45.0648 59.4962C44.9801 59.4113 44.9801 59.3688 44.9006 59.2466C44.8158 59.1617 44.7363 59.082 44.6092 59.082H40.3602C40.233 59.082 40.1536 59.1245 40.0688 59.2095C39.984 59.3369 39.9416 59.3369 39.8622 59.4591C39.8057 59.544 39.7368 59.6272 39.6556 59.7087C39.6556 59.7512 39.6132 59.7936 39.5708 59.8361C39.486 59.9211 39.5284 60.0432 39.5708 60.1707C39.6132 60.2982 39.6979 60.3778 39.8198 60.3778H40.9854C41.0701 60.3778 41.1496 60.4203 41.2344 60.5053C41.3191 60.5903 41.3615 60.6752 41.3615 60.7549V60.962C41.3615 61.047 41.3191 61.1266 41.2344 61.2116C41.1496 61.2966 41.0701 61.3391 40.9854 61.3391H36.4873C36.4026 61.3391 36.2807 61.2966 36.2383 61.2116C36.196 61.1266 36.1536 61.0417 36.1536 60.962V60.7549C36.1536 60.6699 36.1536 60.5903 36.2383 60.5053C36.3231 60.4203 36.4026 60.4203 36.4873 60.4203C36.5721 60.4203 36.694 60.3778 36.7787 60.3353C36.8635 60.3353 36.9854 60.3353 37.0701 60.2928C37.1549 60.2928 37.2344 60.2079 37.3615 60.2079C37.4463 60.2079 37.5257 60.1229 37.6105 60.0804C37.6529 60.0804 37.7377 59.9954 37.8171 59.9105C37.8595 59.868 37.9443 59.783 38.0238 59.7405C38.0661 59.698 38.1509 59.6131 38.2304 59.5334C38.2728 59.4909 38.3575 59.406 38.3946 59.3263C38.437 59.2413 38.5218 59.1988 38.5589 59.1192C38.6012 59.0342 38.686 58.9917 38.7231 58.9121C38.7796 58.8271 38.8344 58.758 38.8873 58.7049C38.9439 58.6483 38.9986 58.5793 39.0516 58.4978C39.1081 58.4129 39.1628 58.3438 39.2158 58.2907C39.3006 58.2057 39.3006 58.1632 39.3801 58.0836C39.4366 58.0269 39.4913 57.9579 39.5443 57.8765C39.6291 57.749 39.6291 57.7915 39.7085 57.6693C39.765 57.5844 39.8198 57.5153 39.8728 57.4622C39.9293 57.4056 39.984 57.3365 40.037 57.2551C40.0935 57.1701 40.1483 57.1011 40.2012 57.048C40.2578 56.9913 40.3125 56.9223 40.3655 56.8409C40.422 56.7559 40.4767 56.6869 40.5297 56.6338C40.5862 56.5771 40.641 56.5081 40.694 56.4266C40.7787 56.2992 40.7787 56.3417 40.8582 56.2195C40.9147 56.1345 40.9695 56.0655 41.0224 56.0124C41.1072 55.9274 41.1072 55.8849 41.1867 55.8053C41.2432 55.7486 41.2979 55.6796 41.3509 55.5982C41.4357 55.4707 41.3933 55.4707 41.4781 55.391C41.5346 55.3344 41.5893 55.2654 41.6423 55.1839C41.6988 55.099 41.7536 55.0299 41.8065 54.9768C41.8913 54.8918 41.8913 54.8493 41.9708 54.7697C42.0556 54.6847 42.0556 54.6422 42.135 54.5626C42.2198 54.4776 42.2198 54.4351 42.2993 54.3554C42.3558 54.2988 42.4105 54.2298 42.4635 54.1483C42.5483 54.0209 42.5483 54.0634 42.6277 53.9412C42.6842 53.8562 42.7266 53.7872 42.7549 53.7341C42.7973 53.6491 42.8397 53.6066 42.9191 53.527C43.0039 53.442 43.0039 53.3995 43.0834 53.3199C43.1399 53.2632 43.1946 53.1942 43.2476 53.1127C43.3041 53.0278 43.3589 52.9587 43.4118 52.9056C43.4684 52.849 43.5231 52.7799 43.5761 52.6985C43.6326 52.6135 43.6873 52.5445 43.7403 52.4914C43.8251 52.4064 43.8251 52.3639 43.9046 52.2843C43.9893 52.1993 44.0688 52.1196 44.1959 52.1196H44.4026C44.5297 52.1196 44.6516 52.1196 44.694 52.2471C44.7505 52.3321 44.8052 52.4011 44.8582 52.4542C44.943 52.5392 44.943 52.5817 45.0224 52.6613C45.079 52.718 45.1337 52.787 45.1867 52.8684C45.2432 52.9534 45.2979 53.0225 45.3509 53.0756C45.4074 53.1322 45.4622 53.2012 45.5152 53.2827C45.5717 53.3677 45.6141 53.4367 45.6423 53.4898C45.6847 53.5748 45.7271 53.5748 45.8065 53.6969C45.8631 53.7819 45.9178 53.8509 45.9708 53.904C46.0273 53.9607 46.082 54.0297 46.135 54.1112C46.2198 54.2386 46.1774 54.2386 46.2622 54.3183C46.3187 54.3749 46.3734 54.444 46.4264 54.5254C46.4829 54.6104 46.5377 54.6794 46.5907 54.7325C46.6472 54.7892 46.7019 54.8582 46.7549 54.9396C46.8114 55.0246 46.8538 55.0936 46.882 55.1467C46.9244 55.2317 46.9668 55.2317 47.0463 55.3539C47.1028 55.4388 47.1575 55.5079 47.2105 55.561C47.2953 55.646 47.2953 55.6884 47.3377 55.7681C47.3801 55.8531 47.4224 55.8531 47.5019 55.9752C47.5867 56.1027 47.5443 56.1027 47.6291 56.1823C47.6856 56.239 47.7403 56.308 47.7933 56.3895C47.8498 56.4744 47.9046 56.5435 47.9575 56.5966C48.0423 56.6816 48.0423 56.724 48.1218 56.8037C48.1783 56.8603 48.233 56.9294 48.286 57.0108C48.3708 57.1383 48.3708 57.0958 48.4503 57.2179C48.535 57.3454 48.4926 57.3454 48.5774 57.4251C48.6339 57.4817 48.6887 57.5507 48.7416 57.6322C48.7982 57.7171 48.8405 57.7862 48.8688 57.8393C48.9112 57.9243 48.9536 57.9243 49.033 58.0464C49.1178 58.1739 49.1178 58.1314 49.1973 58.2535C49.282 58.381 49.282 58.3385 49.3615 58.4606C49.418 58.5456 49.4728 58.6147 49.5258 58.6678C49.6105 58.7527 49.6105 58.7952 49.69 58.8749C49.7465 58.9315 49.8012 59.0006 49.8542 59.082C49.8966 59.167 49.939 59.2466 49.9814 59.2891C50.0238 59.3741 50.1085 59.4166 50.1456 59.4962C50.188 59.5812 50.2728 59.6237 50.3099 59.7034C50.3946 59.7883 50.437 59.8308 50.4741 59.9105C50.5589 59.9954 50.6012 60.0379 50.6383 60.1176C50.7231 60.2026 50.8026 60.2451 50.845 60.2451C50.9297 60.2451 51.0092 60.33 51.1363 60.33C51.2211 60.33 51.3006 60.33 51.4277 60.3725H51.7191C51.8039 60.3725 51.8834 60.4575 51.9681 60.5C52.0529 60.5425 52.0529 60.6274 52.0529 60.7496V60.9567C52.0529 61.0417 52.0105 61.1213 51.9258 61.2063C51.841 61.2913 51.7615 61.3338 51.6767 61.3338H45.1814L44.2648 61.4612L44.392 61.4559ZM42.437 56.193C42.437 56.193 42.2304 56.2355 42.1456 56.3204C42.0891 56.3771 42.0344 56.4319 41.9814 56.4851C41.9249 56.5417 41.8701 56.6107 41.8171 56.6922C41.7324 56.8196 41.7324 56.7771 41.6529 56.8993C41.5681 57.0267 41.5681 56.9843 41.5257 57.1064C41.4834 57.2339 41.441 57.1914 41.3986 57.3135C41.3986 57.356 41.3138 57.441 41.3138 57.4782V57.6853C41.3138 57.7278 41.3986 57.7703 41.441 57.8127C41.4834 57.8552 41.5681 57.8552 41.6052 57.8552H43.1046C43.1893 57.8552 43.2317 57.8552 43.3112 57.8127C43.3959 57.7703 43.3959 57.7278 43.4383 57.6428C43.4383 57.6003 43.4807 57.5153 43.4807 57.4357C43.4807 57.356 43.4807 57.3082 43.396 57.2657C43.3394 57.2091 43.2847 57.1542 43.2317 57.1011C43.1752 57.0444 43.1328 56.9754 43.1046 56.894C43.0622 56.7665 43.0198 56.809 42.9403 56.7293C42.8556 56.6444 42.8979 56.6019 42.8132 56.5222C42.7567 56.4656 42.7019 56.3965 42.6489 56.3151C42.5642 56.2301 42.4847 56.1877 42.3575 56.1877H42.4423L42.437 56.193Z" fill="#D84830"/>
<path d="M50.8081 61.4557C50.8081 61.4557 50.6014 61.4557 50.5591 61.3283C50.5167 61.2008 50.4743 61.1583 50.4743 61.0786V60.8715C50.4743 60.7866 50.4743 60.7069 50.5591 60.6219C50.6438 60.537 50.7233 60.4945 50.8081 60.4945H51.8094C51.9365 60.4945 52.016 60.4945 52.0584 60.452H52.2226C52.3498 60.4095 52.4293 60.282 52.4293 60.1599V53.8932C52.4293 53.7658 52.3021 53.6861 52.2226 53.6011C52.2226 53.6011 52.1379 53.6011 52.0955 53.5586H50.8452C50.7604 53.5586 50.6809 53.5162 50.5961 53.4312C50.5114 53.3462 50.469 53.2666 50.469 53.1816V52.9745C50.469 52.8895 50.5114 52.8098 50.5961 52.7249C50.6809 52.6399 50.7604 52.6399 50.8452 52.6399H59.5922C59.6769 52.6399 59.7564 52.6399 59.8412 52.6824C59.9259 52.7249 60.0054 52.6824 60.0902 52.7249C60.175 52.7249 60.2544 52.7249 60.3392 52.7673C60.424 52.8098 60.5034 52.7673 60.5882 52.8523C60.673 52.8523 60.7524 52.8948 60.8372 52.9373C60.922 52.9373 61.0014 52.9798 61.0862 53.0223C61.171 53.0223 61.2504 53.1072 61.3352 53.1497C61.42 53.1497 61.4995 53.2347 61.5842 53.2772C61.669 53.3197 61.7485 53.3621 61.7908 53.4046C61.8756 53.4471 61.9551 53.4896 61.9975 53.5321C62.0822 53.5746 62.1246 53.6596 62.2041 53.6967C62.2889 53.7392 62.3312 53.8242 62.4107 53.8614C62.4531 53.9463 62.4955 54.0313 62.575 54.0685C62.6597 54.111 62.6597 54.1959 62.7021 54.2756C62.7445 54.3606 62.7869 54.4402 62.7869 54.5252C62.7869 54.6102 62.8293 54.6898 62.8716 54.7748C62.914 54.8598 62.8716 54.9394 62.8716 55.0244V55.274C62.8716 55.359 62.8293 55.444 62.7869 55.5236C62.7869 55.6086 62.7869 55.6936 62.7021 55.7732C62.7021 55.8582 62.6173 55.9432 62.575 56.0228C62.5326 56.1078 62.4902 56.1503 62.4107 56.2299C62.3683 56.3149 62.2836 56.3574 62.2412 56.3946C62.1988 56.4371 62.114 56.522 62.0346 56.5645C61.9498 56.607 61.9074 56.6495 61.8279 56.692C61.7432 56.7345 61.6637 56.777 61.6213 56.8194C61.5789 56.8619 61.4571 56.9044 61.3723 56.9469C61.2875 56.9894 61.2081 57.0319 61.1233 57.0744C61.0385 57.1168 60.9591 57.1168 60.8743 57.1593C60.7895 57.2018 60.7101 57.2443 60.6253 57.2443C60.5405 57.2443 60.461 57.2868 60.3763 57.3293C60.2915 57.3718 60.212 57.3718 60.1273 57.4142C60.0425 57.4567 59.963 57.4567 59.8783 57.4567H59.6293C59.5445 57.4567 59.465 57.4567 59.3803 57.4992H56.6306C56.5458 57.4992 56.424 57.4992 56.3816 57.5842C56.3392 57.6692 56.2968 57.7488 56.2968 57.8338V59.8412C56.2968 59.9687 56.3816 60.0909 56.5034 60.1333C56.5034 60.1333 56.5882 60.1333 56.6306 60.1758H57.8809C57.9657 60.1758 58.0452 60.2183 58.1299 60.3033C58.2147 60.3883 58.2571 60.4732 58.2571 60.5529V60.76C58.2571 60.845 58.2571 60.9671 58.1723 61.0096C58.0875 61.0521 58.0081 61.0946 57.9233 61.0946H50.9246L50.7975 61.4716L50.8081 61.4557ZM56.8054 53.5162C56.8054 53.5162 56.6412 53.5162 56.5564 53.6011C56.4716 53.6861 56.4293 53.7711 56.4293 53.8507V56.1928C56.4293 56.2777 56.4293 56.3999 56.514 56.4424C56.5988 56.5273 56.6783 56.5274 56.763 56.5274H57.3458C57.4306 56.5274 57.5101 56.5273 57.5948 56.4849C57.6796 56.4849 57.7591 56.4849 57.8438 56.3999C57.9286 56.3999 58.0134 56.3149 58.0928 56.2724C58.1776 56.2724 58.2571 56.1875 58.3418 56.145C58.4266 56.145 58.469 56.06 58.5485 55.9803C58.5908 55.9379 58.6332 55.8529 58.7127 55.7732C58.7127 55.6883 58.7975 55.6458 58.8399 55.5661C58.8399 55.4811 58.8399 55.3962 58.8822 55.3165V54.8173C58.8822 54.7323 58.8822 54.6527 58.8399 54.5677C58.8399 54.4827 58.7551 54.4031 58.7127 54.3606C58.6703 54.2756 58.6279 54.1959 58.5856 54.1535C58.5008 54.0685 58.4584 54.026 58.3789 53.9835C58.2942 53.941 58.2147 53.8985 58.1299 53.8561C58.0452 53.8561 57.9657 53.8136 57.8809 53.7711C57.7961 53.7711 57.7114 53.7286 57.6319 53.6861C57.5471 53.6861 57.4677 53.6436 57.3829 53.6011H56.8001V53.5162H56.8054Z" fill="#D84830"/>
</g>
</g>
<g clip-path="url(#clip1_2003_37)">
<mask id="mask1_2003_37" style="mask-type:luminance" maskUnits="userSpaceOnUse" x="116" y="18" width="467" height="57">
<path d="M583 18H116V75H583V18Z" fill="white"/>
</mask>
<g mask="url(#mask1_2003_37)">
<path d="M134.69 74.07V53.91L116 18H126.88L140.57 46.5H138.5L152.19 18H163.01L144.25 53.91V74.07H134.64H134.71H134.69Z" fill="#D84830"/>
<path d="M203.99 75C199.92 75 196.25 74.2 192.97 72.6C189.7 71 187.09 68.53 185.09 65.26C183.15 61.92 182.15 57.78 182.15 52.78V18H191.76V52.84C191.76 55.91 192.29 58.38 193.3 60.38C194.3 62.38 195.77 63.85 197.57 64.85C199.44 65.85 201.58 66.32 204.11 66.32C206.64 66.32 208.85 65.85 210.72 64.85C212.59 63.85 213.99 62.38 214.99 60.38C215.99 58.38 216.46 55.91 216.46 52.84V18H226.07V52.77C226.07 57.78 225.07 61.98 223.13 65.25C221.13 68.59 218.46 70.99 215.12 72.59C211.78 74.19 208.04 74.99 203.97 74.99L203.99 75Z" fill="#D84830"/>
<path d="M249.72 74.07V18H261.07L279.03 54.18L296.79 18H308.27V74.07H298.66V34.49L282.77 66.19H275.23L259.27 34.55V74.06H249.66H249.73L249.72 74.07Z" fill="#D84830"/>
<path d="M332.44 74.07V18H368.62V25.74H342.05V41.83H366.22V49.44H342.05V66.26H368.62V74H332.44V74.07Z" fill="#D84830"/>
<path d="M391.59 74.07V18H402.94L420.9 54.18L438.66 18H450.14V74.07H440.53V34.49L424.64 66.19H417.1L401.14 34.55V74.06H391.53H391.6L391.59 74.07Z" fill="#D84830"/>
<path d="M470.64 74.07L491.14 18H501.89L522.39 74.07H512.24L496.48 29.22L480.72 74.07H470.64ZM479.79 60.85L482.33 53.24H509.97L512.51 60.85H479.73H479.8H479.79Z" fill="#D84830"/>
<path d="M542.94 74.07V18H563.1C567.57 18 571.31 18.73 574.25 20.27C577.19 21.81 579.39 23.81 580.79 26.41C582.26 28.95 582.93 31.88 582.93 35.22C582.93 38.29 582.26 41.16 580.86 43.76C579.46 46.36 577.32 48.43 574.38 50.03C571.44 51.63 567.7 52.37 563.1 52.37H552.55V74.06H542.94V74.07ZM552.56 44.5H562.57C566.37 44.5 569.11 43.63 570.71 41.96C572.38 40.29 573.18 38.02 573.18 35.22C573.18 32.42 572.38 30.01 570.71 28.35C569.04 26.68 566.3 25.88 562.57 25.88H552.56V44.57V44.5Z" fill="#D84830"/>
</g>
</g>
<defs>
<clipPath id="clip0_2003_37">
<rect width="80" height="94" fill="white"/>
</clipPath>
<clipPath id="clip1_2003_37">
<rect width="467" height="57" fill="white" transform="translate(116 18)"/>
</clipPath>
</defs>
</svg>
