<svg width="356" height="42" viewBox="0 0 356 42" fill="none" xmlns="http://www.w3.org/2000/svg">
<path d="M283.206 41.5961L282.324 40.6961L297.678 25.2881L298.578 26.1881L283.206 41.5961Z" fill="#D84830"/>
<path d="M251.079 39.2561L249.909 38.3201C249.933 38.1281 249.945 37.7321 249.945 37.1321C249.957 36.5321 249.963 35.8181 249.963 34.9901C249.975 34.1621 249.981 33.3221 249.981 32.4701C249.981 31.4141 249.975 30.4961 249.963 29.7161C249.951 28.9361 249.933 28.3241 249.909 27.8801H252.213C252.189 28.0961 252.171 28.4441 252.159 28.9241C252.147 29.3921 252.135 29.9321 252.123 30.5441C252.123 31.1561 252.123 31.7681 252.123 32.3801V36.3041C252.639 36.0881 253.191 35.8241 253.779 35.5121C254.379 35.2001 254.967 34.8701 255.543 34.5221C256.131 34.1741 256.665 33.8321 257.145 33.4961C257.625 33.1601 258.003 32.8541 258.279 32.5781C258.279 32.8061 258.297 33.0881 258.333 33.4241C258.381 33.7601 258.429 34.0841 258.477 34.3961C258.537 34.6961 258.585 34.9121 258.621 35.0441C258.225 35.3801 257.703 35.7521 257.055 36.1601C256.419 36.5681 255.735 36.9701 255.003 37.3661C254.271 37.7621 253.557 38.1281 252.861 38.4641C252.177 38.8001 251.583 39.0641 251.079 39.2561ZM243.285 39.6701C243.129 39.4061 242.895 39.1061 242.583 38.7701C242.271 38.4341 241.983 38.1641 241.719 37.9601C242.715 37.4321 243.513 36.8561 244.113 36.2321C244.725 35.6081 245.169 34.9181 245.445 34.1621C245.721 33.3941 245.871 32.5421 245.895 31.6061C245.919 30.6701 245.853 29.6321 245.697 28.4921L247.803 28.3121C248.055 30.1121 248.079 31.7201 247.875 33.1361C247.683 34.5401 247.215 35.7761 246.471 36.8441C245.727 37.9121 244.665 38.8541 243.285 39.6701Z" fill="#D84830"/>
<path d="M222.963 34.6299C222.975 34.4619 222.981 34.2339 222.981 33.9459C222.981 33.6579 222.981 33.3699 222.981 33.0819C222.981 32.7939 222.975 32.5659 222.963 32.3979C223.191 32.4099 223.593 32.4219 224.169 32.4339C224.757 32.4459 225.453 32.4579 226.257 32.4699C227.073 32.4819 227.943 32.494 228.867 32.506C229.791 32.506 230.715 32.506 231.639 32.506C232.563 32.506 233.433 32.4999 234.249 32.4879C235.077 32.4759 235.791 32.4639 236.391 32.452C236.991 32.44 237.417 32.4219 237.669 32.3979C237.657 32.5539 237.645 32.7759 237.633 33.0639C237.633 33.3519 237.633 33.6459 237.633 33.9459C237.645 34.2339 237.651 34.4559 237.651 34.6119C237.351 34.6 236.907 34.588 236.319 34.576C235.743 34.564 235.065 34.5519 234.285 34.5399C233.517 34.5279 232.695 34.5219 231.819 34.5219C230.955 34.5219 230.079 34.5219 229.191 34.5219C228.303 34.5219 227.457 34.5279 226.653 34.5399C225.849 34.5519 225.123 34.564 224.475 34.576C223.839 34.588 223.335 34.6059 222.963 34.6299Z" fill="#D84830"/>
<path d="M204.838 38.7521V37.0601C205.018 37.0721 205.312 37.0841 205.72 37.0961C206.128 37.0961 206.602 37.1021 207.142 37.1141C207.682 37.1141 208.252 37.1141 208.852 37.1141C209.452 37.1141 210.034 37.1141 210.598 37.1141H211.3L211.714 33.8561C211.342 33.8681 210.91 33.8801 210.418 33.8921C209.938 33.9041 209.464 33.9161 208.996 33.9281C208.528 33.9401 208.108 33.9521 207.736 33.9641C207.376 33.9761 207.124 33.9881 206.98 34.0001L206.872 32.2541C207.052 32.2661 207.376 32.2781 207.844 32.2901C208.324 32.2901 208.864 32.2901 209.464 32.2901C210.076 32.2781 210.676 32.2661 211.264 32.2541C211.864 32.2421 212.386 32.2301 212.83 32.2181C213.286 32.1941 213.586 32.1761 213.73 32.1641L213.118 37.0961C213.814 37.0961 214.438 37.0961 214.99 37.0961C215.542 37.0841 215.914 37.0721 216.106 37.0601V38.7521C215.902 38.7281 215.512 38.7161 214.936 38.7161C214.36 38.7041 213.688 38.6981 212.92 38.6981C212.152 38.6861 211.378 38.6801 210.598 38.6801C210.13 38.6801 209.596 38.6801 208.996 38.6801C208.408 38.6801 207.826 38.6861 207.25 38.6981C206.674 38.6981 206.164 38.7041 205.72 38.7161C205.288 38.7281 204.994 38.7401 204.838 38.7521Z" fill="#D84830"/>
<path d="M186.297 40.336L185.073 38.122C185.937 37.93 186.837 37.63 187.773 37.222C188.721 36.802 189.663 36.316 190.599 35.764C191.535 35.2 192.429 34.6 193.281 33.964C194.133 33.316 194.901 32.668 195.585 32.02C196.269 31.36 196.827 30.73 197.259 30.13C197.307 30.346 197.385 30.604 197.493 30.904C197.613 31.204 197.739 31.492 197.871 31.768C198.003 32.044 198.117 32.26 198.213 32.416C197.613 33.172 196.869 33.934 195.981 34.702C195.105 35.47 194.139 36.214 193.083 36.934C192.027 37.642 190.917 38.29 189.753 38.878C188.601 39.466 187.449 39.952 186.297 40.336ZM189.645 30.778C189.501 30.634 189.279 30.46 188.979 30.256C188.691 30.052 188.367 29.842 188.007 29.626C187.659 29.398 187.323 29.194 186.999 29.014C186.687 28.834 186.429 28.702 186.225 28.618L187.449 26.746C187.689 26.866 187.971 27.028 188.295 27.232C188.631 27.436 188.967 27.652 189.303 27.88C189.651 28.096 189.969 28.306 190.257 28.51C190.557 28.714 190.791 28.882 190.959 29.014L189.645 30.778ZM187.161 34.504C186.933 34.312 186.597 34.096 186.153 33.856C185.721 33.616 185.271 33.388 184.803 33.172C184.347 32.944 183.957 32.776 183.633 32.668L184.749 30.724C185.097 30.856 185.499 31.036 185.955 31.264C186.423 31.492 186.873 31.726 187.305 31.966C187.737 32.206 188.079 32.416 188.331 32.596L187.161 34.504ZM197.115 28.204C196.863 27.856 196.533 27.478 196.125 27.07C195.729 26.662 195.375 26.344 195.063 26.116L195.981 25.252C196.173 25.384 196.401 25.582 196.665 25.846C196.941 26.098 197.211 26.362 197.475 26.638C197.739 26.902 197.943 27.13 198.087 27.322L197.115 28.204ZM195.585 29.662C195.333 29.302 195.009 28.918 194.613 28.51C194.217 28.102 193.863 27.778 193.551 27.538L194.469 26.674C194.649 26.818 194.871 27.022 195.135 27.286C195.411 27.55 195.681 27.82 195.945 28.096C196.209 28.36 196.413 28.588 196.557 28.78L195.585 29.662Z" fill="#D84830"/>
<path d="M168.424 41.1821C168.244 40.9061 167.991 40.5941 167.667 40.2461C167.343 39.8981 167.044 39.6341 166.768 39.4541C168.268 38.6621 169.408 37.6721 170.188 36.4841C170.968 35.2841 171.418 33.8861 171.538 32.2901H168.081C167.637 32.8421 167.17 33.3521 166.678 33.8201C166.186 34.2881 165.663 34.7141 165.111 35.0981C164.919 34.8701 164.661 34.6001 164.337 34.2881C164.013 33.9761 163.714 33.7421 163.438 33.5861C164.326 33.0101 165.123 32.3141 165.831 31.4981C166.539 30.6821 167.146 29.8001 167.65 28.8521C168.166 27.9041 168.549 26.9621 168.801 26.0261L170.98 26.6741C170.8 27.2861 170.583 27.8861 170.331 28.4741C170.091 29.0501 169.815 29.6141 169.503 30.1661H178.126V32.2901H173.788C173.668 34.2461 173.158 35.9561 172.258 37.4201C171.37 38.8841 170.092 40.1381 168.424 41.1821Z" fill="#D84830"/>
<path d="M145.275 40.0479C145.119 39.7839 144.909 39.4659 144.645 39.0939C144.393 38.7219 144.135 38.4279 143.871 38.2119C144.771 37.8159 145.671 37.3239 146.571 36.7359C147.471 36.1479 148.329 35.4879 149.145 34.7559C149.973 34.0119 150.723 33.2319 151.395 32.4159C152.079 31.5879 152.655 30.7479 153.123 29.8959C152.535 29.9319 151.887 29.9739 151.179 30.0219C150.483 30.0699 149.787 30.1179 149.091 30.1659C148.407 30.2019 147.783 30.2439 147.219 30.2919C146.667 30.3279 146.241 30.3579 145.941 30.3819L145.689 28.0959C145.989 28.0959 146.439 28.0899 147.039 28.0779C147.639 28.0659 148.311 28.0479 149.055 28.0239C149.799 27.9879 150.537 27.9519 151.269 27.9159C152.013 27.8799 152.679 27.8379 153.267 27.7899C153.867 27.7299 154.311 27.6759 154.599 27.6279L156.057 28.5639C155.769 29.4039 155.397 30.2319 154.941 31.0479C154.485 31.8519 153.969 32.6259 153.393 33.3699C153.813 33.6939 154.257 34.0599 154.725 34.4679C155.205 34.8759 155.673 35.2959 156.129 35.7279C156.585 36.1599 157.005 36.5739 157.389 36.9699C157.773 37.3659 158.091 37.7199 158.343 38.0319C158.043 38.2239 157.725 38.4759 157.389 38.7879C157.053 39.0879 156.759 39.3759 156.507 39.6519C156.279 39.3279 155.985 38.9619 155.625 38.5539C155.265 38.1339 154.875 37.7139 154.455 37.2939C154.047 36.8619 153.633 36.4479 153.213 36.0519C152.793 35.6439 152.397 35.2839 152.025 34.9719C151.029 36.0399 149.949 37.0059 148.785 37.8699C147.621 38.7339 146.451 39.4599 145.275 40.0479Z" fill="#D84830"/>
<path d="M135.483 41.542C135.471 41.35 135.441 41.122 135.393 40.858C135.345 40.606 135.291 40.36 135.231 40.12C135.171 39.868 135.105 39.664 135.033 39.508H136.239C136.479 39.508 136.653 39.466 136.761 39.382C136.869 39.298 136.923 39.154 136.923 38.95V31.786H131.937V25.666H139.011V39.724C139.011 40.348 138.843 40.804 138.507 41.092C138.183 41.392 137.649 41.542 136.905 41.542H135.483ZM123.639 41.56V25.666H130.677V31.786H125.709V41.56H123.639ZM127.887 39.742V32.92H134.763V39.742H127.887ZM129.813 38.176H132.855V37.024H129.813V38.176ZM129.813 35.62H132.855V34.486H129.813V35.62ZM133.953 30.274H136.923V29.374H133.953V30.274ZM125.709 30.274H128.661V29.374H125.709V30.274ZM133.953 28.078H136.923V27.196H133.953V28.078ZM125.709 28.078H128.661V27.196H125.709V28.078Z" fill="#D84830"/>
<path d="M111.38 41.632V37.726H103.262V35.854H106.304V31.39H111.38V29.266H107.726C107.294 29.95 106.826 30.598 106.322 31.21C105.83 31.81 105.314 32.356 104.774 32.848C104.582 32.644 104.33 32.416 104.018 32.164C103.718 31.912 103.4 31.702 103.064 31.534C103.724 30.994 104.348 30.358 104.936 29.626C105.524 28.882 106.034 28.114 106.466 27.322C106.91 26.518 107.24 25.762 107.456 25.054L109.49 25.684C109.286 26.248 109.052 26.8 108.788 27.34H118.904V29.266H113.612V31.39H117.626V33.262H113.612V35.854H119.678V37.726H113.612V41.632H111.38ZM108.518 35.854H111.38V33.262H108.518V35.854Z" fill="#D84830"/>
<path d="M71.5454 41.5961L56.1914 26.1881L57.0914 25.2881L72.4454 40.6961L71.5454 41.5961Z" fill="#D84830"/>
<path d="M348.344 15.3C348.236 15.3 348.146 15.264 348.074 15.192C348.002 15.108 347.966 15.012 347.966 14.904C347.966 14.856 347.978 14.802 348.002 14.742L352.34 4.84195H346.688C346.556 4.84195 346.448 4.79995 346.364 4.71595C346.292 4.63195 346.256 4.52995 346.256 4.40995V3.14995C346.256 3.01795 346.292 2.90995 346.364 2.82595C346.448 2.74195 346.556 2.69995 346.688 2.69995H354.59C354.722 2.69995 354.824 2.74195 354.896 2.82595C354.98 2.90995 355.022 3.01795 355.022 3.14995V4.26595C355.022 4.43395 355.004 4.57795 354.968 4.69795C354.944 4.80595 354.908 4.91995 354.86 5.03995L350.558 14.868C350.522 14.952 350.456 15.048 350.36 15.156C350.276 15.252 350.15 15.3 349.982 15.3H348.344Z" fill="#D84830"/>
<path d="M338.971 15.48C337.939 15.48 337.051 15.288 336.307 14.904C335.563 14.508 334.987 13.98 334.579 13.32C334.171 12.648 333.967 11.898 333.967 11.07C333.967 10.698 334.015 10.338 334.111 9.98995C334.207 9.64195 334.333 9.31195 334.489 8.99995C334.645 8.68795 334.795 8.41195 334.939 8.17195C335.095 7.91995 335.233 7.72195 335.353 7.57795L338.647 3.05995C338.695 2.99995 338.767 2.92795 338.863 2.84395C338.959 2.74795 339.091 2.69995 339.259 2.69995H340.933C341.041 2.69995 341.131 2.74195 341.203 2.82595C341.275 2.89795 341.311 2.98795 341.311 3.09595C341.311 3.14395 341.299 3.19195 341.275 3.23995C341.263 3.27595 341.245 3.30595 341.221 3.32995L338.701 6.82195C338.809 6.78595 338.935 6.76195 339.079 6.74995C339.223 6.73795 339.355 6.73195 339.475 6.73195C340.075 6.74395 340.645 6.86395 341.185 7.09195C341.725 7.30795 342.199 7.60795 342.607 7.99195C343.015 8.37595 343.333 8.82595 343.561 9.34195C343.801 9.85795 343.921 10.422 343.921 11.034C343.921 11.826 343.723 12.564 343.327 13.248C342.931 13.92 342.361 14.46 341.617 14.868C340.885 15.276 340.003 15.48 338.971 15.48ZM338.953 13.41C339.385 13.41 339.781 13.32 340.141 13.14C340.513 12.96 340.813 12.696 341.041 12.348C341.269 12 341.383 11.568 341.383 11.052C341.383 10.548 341.269 10.122 341.041 9.77395C340.813 9.42595 340.513 9.16195 340.141 8.98195C339.781 8.80195 339.385 8.71195 338.953 8.71195C338.521 8.71195 338.119 8.80195 337.747 8.98195C337.387 9.16195 337.093 9.42595 336.865 9.77395C336.637 10.122 336.523 10.548 336.523 11.052C336.523 11.568 336.637 12 336.865 12.348C337.093 12.696 337.387 12.96 337.747 13.14C338.119 13.32 338.521 13.41 338.953 13.41Z" fill="#D84830"/>
<path d="M316.807 15.3001C316.687 15.3001 316.585 15.2581 316.501 15.1741C316.417 15.0901 316.375 14.9881 316.375 14.8681V6.37205C316.375 6.25205 316.417 6.15005 316.501 6.06605C316.585 5.98205 316.687 5.94005 316.807 5.94005H318.211C318.331 5.94005 318.433 5.98205 318.517 6.06605C318.601 6.15005 318.643 6.25205 318.643 6.37205V6.98405C318.895 6.64805 319.231 6.36605 319.651 6.13805C320.083 5.89805 320.593 5.77205 321.181 5.76005C322.549 5.73605 323.503 6.27005 324.043 7.36205C324.319 6.88205 324.715 6.49805 325.231 6.21005C325.759 5.91005 326.341 5.76005 326.977 5.76005C327.601 5.76005 328.165 5.90405 328.669 6.19205C329.185 6.48005 329.587 6.91805 329.875 7.50605C330.175 8.08205 330.325 8.81405 330.325 9.70205V14.8681C330.325 14.9881 330.283 15.0901 330.199 15.1741C330.115 15.2581 330.013 15.3001 329.893 15.3001H328.417C328.297 15.3001 328.195 15.2581 328.111 15.1741C328.027 15.0901 327.985 14.9881 327.985 14.8681V9.84605C327.985 9.30605 327.907 8.88005 327.751 8.56805C327.595 8.24405 327.385 8.01605 327.121 7.88405C326.857 7.75205 326.563 7.68605 326.239 7.68605C325.975 7.68605 325.711 7.75205 325.447 7.88405C325.183 8.01605 324.967 8.24405 324.799 8.56805C324.631 8.88005 324.547 9.30605 324.547 9.84605V14.8681C324.547 14.9881 324.505 15.0901 324.421 15.1741C324.337 15.2581 324.235 15.3001 324.115 15.3001H322.639C322.507 15.3001 322.399 15.2581 322.315 15.1741C322.243 15.0901 322.207 14.9881 322.207 14.8681V9.84605C322.207 9.30605 322.123 8.88005 321.955 8.56805C321.787 8.24405 321.571 8.01605 321.307 7.88405C321.043 7.75205 320.761 7.68605 320.461 7.68605C320.185 7.68605 319.915 7.75805 319.651 7.90205C319.387 8.03405 319.171 8.25605 319.003 8.56805C318.835 8.88005 318.751 9.30605 318.751 9.84605V14.8681C318.751 14.9881 318.709 15.0901 318.625 15.1741C318.541 15.2581 318.439 15.3001 318.319 15.3001H316.807Z" fill="#D84830"/>
<path d="M307.5 15.2999C307.38 15.2999 307.278 15.2579 307.194 15.1739C307.11 15.0899 307.068 14.9879 307.068 14.8679V6.38994C307.068 6.25794 307.11 6.14994 307.194 6.06594C307.278 5.98194 307.38 5.93994 307.5 5.93994H308.958C309.078 5.93994 309.18 5.98194 309.264 6.06594C309.36 6.14994 309.408 6.25794 309.408 6.38994V7.12794C309.684 6.74394 310.038 6.44994 310.47 6.24594C310.914 6.04194 311.424 5.93994 312 5.93994H312.738C312.87 5.93994 312.972 5.98194 313.044 6.06594C313.128 6.14994 313.17 6.25194 313.17 6.37194V7.66794C313.17 7.78794 313.128 7.88994 313.044 7.97394C312.972 8.05794 312.87 8.09994 312.738 8.09994H311.334C310.758 8.09994 310.308 8.26194 309.984 8.58594C309.672 8.90994 309.516 9.35394 309.516 9.91794V14.8679C309.516 14.9879 309.474 15.0899 309.39 15.1739C309.306 15.2579 309.198 15.2999 309.066 15.2999H307.5Z" fill="#D84830"/>
<path d="M297.703 15.48C297.079 15.48 296.515 15.36 296.011 15.12C295.507 14.868 295.105 14.538 294.805 14.13C294.517 13.71 294.373 13.242 294.373 12.726C294.373 11.886 294.709 11.22 295.381 10.728C296.065 10.224 296.965 9.88801 298.081 9.72001L300.547 9.36001V8.98201C300.547 8.47801 300.421 8.08801 300.169 7.81201C299.917 7.53601 299.485 7.39801 298.873 7.39801C298.441 7.39801 298.087 7.48801 297.811 7.66801C297.547 7.83601 297.349 8.06401 297.217 8.35201C297.121 8.50801 296.983 8.58601 296.803 8.58601H295.381C295.249 8.58601 295.147 8.55001 295.075 8.47801C295.015 8.40601 294.985 8.31001 294.985 8.19001C294.997 7.99801 295.075 7.76401 295.219 7.48801C295.363 7.21201 295.591 6.94801 295.903 6.69601C296.215 6.43201 296.617 6.21001 297.109 6.03001C297.601 5.85001 298.195 5.76001 298.891 5.76001C299.647 5.76001 300.283 5.85601 300.799 6.04801C301.327 6.22801 301.747 6.47401 302.059 6.78601C302.371 7.09801 302.599 7.46401 302.743 7.88401C302.887 8.30401 302.959 8.74801 302.959 9.21601V14.868C302.959 14.988 302.917 15.09 302.833 15.174C302.749 15.258 302.647 15.3 302.527 15.3H301.069C300.937 15.3 300.829 15.258 300.745 15.174C300.673 15.09 300.637 14.988 300.637 14.868V14.166C300.481 14.394 300.271 14.61 300.007 14.814C299.743 15.006 299.419 15.168 299.035 15.3C298.663 15.42 298.219 15.48 297.703 15.48ZM298.315 13.77C298.735 13.77 299.113 13.68 299.449 13.5C299.797 13.32 300.067 13.044 300.259 12.672C300.463 12.288 300.565 11.808 300.565 11.232V10.854L298.765 11.142C298.057 11.25 297.529 11.424 297.181 11.664C296.833 11.904 296.659 12.198 296.659 12.546C296.659 12.81 296.737 13.038 296.893 13.23C297.061 13.41 297.271 13.548 297.523 13.644C297.775 13.728 298.039 13.77 298.315 13.77Z" fill="#D84830"/>
<path d="M287.351 15.3001V8.38807H285.713V6.64207H287.351V5.09407C287.351 4.02607 287.597 3.28807 288.089 2.88007C288.581 2.47207 289.283 2.26807 290.195 2.26807C290.483 2.26807 290.771 2.28607 291.059 2.32207C291.359 2.35807 291.599 2.40007 291.779 2.44807V4.28407C291.611 4.22407 291.425 4.17607 291.221 4.14007C291.029 4.09207 290.831 4.06807 290.627 4.06807C290.219 4.06807 289.907 4.17007 289.691 4.37407C289.475 4.56607 289.367 4.89007 289.367 5.34607V6.64207H291.779V8.38807H289.367V15.3001H287.351Z" fill="#D84830"/>
<path d="M272.393 13.59V5.004H275.219C275.255 4.848 275.291 4.686 275.327 4.518C275.363 4.338 275.393 4.17 275.417 4.014H271.097V2.268H273.671C273.515 1.992 273.353 1.716 273.185 1.44C273.017 1.164 272.867 0.935999 272.735 0.756L274.553 0.0179996C274.757 0.282 274.985 0.636 275.237 1.08C275.501 1.524 275.717 1.92 275.885 2.268H277.415C277.583 1.932 277.763 1.548 277.955 1.116C278.159 0.671999 278.303 0.3 278.387 0L280.493 0.521999C280.397 0.749999 280.265 1.026 280.097 1.35C279.941 1.662 279.779 1.968 279.611 2.268H282.419V4.014H277.667C277.631 4.17 277.595 4.338 277.559 4.518C277.523 4.686 277.487 4.848 277.451 5.004H281.303V13.59H272.393ZM276.317 16.38C275.045 16.38 273.995 16.314 273.167 16.182C272.351 16.062 271.679 15.87 271.151 15.606C270.635 15.354 270.185 15.036 269.801 14.652C269.585 14.82 269.291 15.012 268.919 15.228C268.559 15.432 268.193 15.636 267.821 15.84C267.449 16.044 267.137 16.218 266.885 16.362L266.057 14.328C266.261 14.256 266.537 14.154 266.885 14.022C267.233 13.89 267.581 13.752 267.929 13.608C268.277 13.452 268.541 13.314 268.721 13.194V8.64H266.417V6.768H270.683V12.924C270.827 13.308 271.109 13.62 271.529 13.86C271.949 14.088 272.549 14.256 273.329 14.364C274.109 14.46 275.105 14.508 276.317 14.508C277.853 14.508 279.173 14.484 280.277 14.436C281.381 14.388 282.275 14.316 282.959 14.22C282.899 14.352 282.833 14.556 282.761 14.832C282.689 15.096 282.629 15.366 282.581 15.642C282.533 15.93 282.503 16.164 282.491 16.344C282.155 16.344 281.717 16.344 281.177 16.344C280.637 16.356 280.061 16.362 279.449 16.362C278.849 16.374 278.273 16.38 277.721 16.38C277.169 16.38 276.701 16.38 276.317 16.38ZM269.369 4.608C269.165 4.308 268.907 3.984 268.595 3.636C268.283 3.288 267.953 2.952 267.605 2.628C267.269 2.304 266.945 2.034 266.633 1.818L268.073 0.486C268.361 0.678 268.685 0.936 269.045 1.26C269.405 1.584 269.753 1.92 270.089 2.268C270.425 2.604 270.695 2.904 270.899 3.168C270.779 3.252 270.617 3.39 270.413 3.582C270.209 3.762 270.011 3.948 269.819 4.14C269.627 4.332 269.477 4.488 269.369 4.608ZM274.481 12.078H279.197V11.142H274.481V12.078ZM274.481 9.738H279.197V8.82H274.481V9.738ZM274.481 7.416H279.197V6.516H274.481V7.416Z" fill="#D84830"/>
<path d="M248.345 16.6141V9.50409C248.045 9.80409 247.739 10.0921 247.427 10.3681C247.343 10.2481 247.211 10.1041 247.031 9.93609C246.851 9.76809 246.653 9.60609 246.437 9.45009C246.233 9.28209 246.047 9.15609 245.879 9.07209C246.227 8.79609 246.599 8.45409 246.995 8.04609C247.391 7.63809 247.781 7.20009 248.165 6.73209C248.561 6.25209 248.909 5.77809 249.209 5.31009C249.521 4.83009 249.761 4.39209 249.929 3.99609L251.729 4.78809C251.669 4.93209 251.597 5.08209 251.513 5.23809C251.441 5.38209 251.363 5.52609 251.279 5.67009H253.601V3.92409H251.675V2.16009H253.601V0.360086H255.653V2.16009H257.543V3.92409H255.653V5.67009H257.759V7.47009H251.279V5.67009C251.147 5.89809 251.009 6.13209 250.865 6.37209C250.721 6.60009 250.565 6.83409 250.397 7.07409V16.6141H248.345ZM251.279 15.4441L250.847 13.5001C251.123 13.4761 251.507 13.4341 251.999 13.3741C252.491 13.3141 253.025 13.2481 253.601 13.1761V11.3221H251.459V9.48609H253.601V7.86609H255.653V9.48609H257.705V11.3221H255.653V12.9061C256.205 12.8221 256.703 12.7441 257.147 12.6721C257.603 12.6001 257.957 12.5401 258.209 12.4921V14.2921C257.933 14.3641 257.567 14.4421 257.111 14.5261C256.667 14.6101 256.169 14.7001 255.617 14.7961C255.077 14.8801 254.531 14.9641 253.979 15.0481C253.427 15.1321 252.917 15.2101 252.449 15.2821C251.981 15.3541 251.591 15.4081 251.279 15.4441ZM258.353 16.5961C258.341 16.4041 258.311 16.1761 258.263 15.9121C258.215 15.6481 258.161 15.3901 258.101 15.1381C258.041 14.8741 257.975 14.6641 257.903 14.5081H258.911C259.151 14.5081 259.313 14.4721 259.397 14.4001C259.493 14.3161 259.541 14.1601 259.541 13.9321V7.27209H258.119V5.41809H262.979V7.27209H261.611V14.7781C261.611 15.9901 260.867 16.5961 259.379 16.5961H258.353ZM247.589 4.91409C247.421 4.65009 247.217 4.36809 246.977 4.06809C246.737 3.76809 246.491 3.52209 246.239 3.33009C246.995 2.91009 247.691 2.43609 248.327 1.90809C248.963 1.36809 249.473 0.828086 249.857 0.288086L251.405 1.47609C251.081 1.89609 250.703 2.31609 250.271 2.73609C249.839 3.15609 249.389 3.55209 248.921 3.92409C248.465 4.29609 248.021 4.62609 247.589 4.91409ZM258.299 3.04209V1.17009H262.637V3.04209H258.299Z" fill="#D84830"/>
<path d="M228.312 7.75811V3.79811H231.498V2.89811H227.016V1.29611H231.498V0.162109H233.514V1.29611H236.358V0.162109H238.374V1.29611H242.784V2.89811H238.374V3.79811H241.542V7.75811H228.312ZM228.69 16.9921C228.606 16.7641 228.486 16.4761 228.33 16.1281C228.186 15.7801 228.03 15.4921 227.862 15.2641C228.666 15.1801 229.494 15.0541 230.346 14.8861C231.198 14.7181 232.02 14.5081 232.812 14.2561C232.644 14.0881 232.446 13.8961 232.218 13.6801C232.002 13.4641 231.792 13.2661 231.588 13.0861C231.288 13.2301 230.982 13.3621 230.67 13.4821C230.358 13.6021 230.046 13.7161 229.734 13.8241C229.626 13.5841 229.47 13.3141 229.266 13.0141C229.062 12.7141 228.876 12.4861 228.708 12.3301C229.536 12.1141 230.376 11.7841 231.228 11.3401C232.08 10.8961 232.842 10.4101 233.514 9.88211H228.924V11.5201H226.926V8.33411H242.982V11.5201H241.002V9.88211H235.962C235.842 10.0021 235.716 10.1281 235.584 10.2601C235.452 10.3801 235.32 10.5061 235.188 10.6381H239.58L240.246 11.3581C239.046 12.9541 237.504 14.1961 235.62 15.0841C233.748 15.9601 231.438 16.5961 228.69 16.9921ZM234.738 13.5361C235.71 13.1041 236.484 12.6181 237.06 12.0781H233.352C233.28 12.1261 233.226 12.1561 233.19 12.1681C233.406 12.3361 233.652 12.5461 233.928 12.7981C234.216 13.0501 234.486 13.2961 234.738 13.5361ZM233.514 3.79811H236.358V2.89811H233.514V3.79811ZM237.636 6.31811H239.634V5.23811H237.636V6.31811ZM230.238 6.31811H232.11V5.23811H230.238V6.31811ZM233.982 6.31811H235.782V5.23811H233.982V6.31811Z" fill="#D84830"/>
<path d="M213.964 7.83007L213.388 6.84006C213.988 6.68406 214.468 6.40807 214.828 6.01207C215.2 5.61607 215.386 5.19607 215.386 4.75207C215.386 4.66806 215.38 4.59606 215.368 4.53606C215.356 4.47606 215.344 4.42207 215.332 4.37406C215.212 4.54206 215.062 4.68006 214.882 4.78806C214.714 4.89606 214.528 4.95007 214.324 4.95007C213.988 4.95007 213.7 4.83607 213.46 4.60807C213.22 4.38007 213.1 4.08006 213.1 3.70806C213.1 3.32406 213.238 3.02406 213.514 2.80807C213.802 2.59207 214.138 2.47807 214.522 2.46606C215.11 2.46606 215.596 2.68806 215.98 3.13206C216.376 3.56406 216.574 4.12206 216.574 4.80607C216.574 5.53806 216.334 6.15607 215.854 6.66007C215.374 7.16407 214.744 7.55407 213.964 7.83007ZM209.788 7.83007L209.23 6.84006C209.83 6.68406 210.31 6.40807 210.67 6.01207C211.03 5.61607 211.21 5.19607 211.21 4.75207C211.21 4.66806 211.204 4.59606 211.192 4.53606C211.192 4.47606 211.186 4.42207 211.174 4.37406C211.054 4.54206 210.904 4.68006 210.724 4.78806C210.544 4.89606 210.358 4.95007 210.166 4.95007C209.83 4.95007 209.536 4.83607 209.284 4.60807C209.044 4.38007 208.924 4.08006 208.924 3.70806C208.924 3.32406 209.068 3.02406 209.356 2.80807C209.644 2.59207 209.974 2.47807 210.346 2.46606C210.934 2.46606 211.42 2.68806 211.804 3.13206C212.2 3.56406 212.398 4.12206 212.398 4.80607C212.398 5.53806 212.158 6.15607 211.678 6.66007C211.21 7.16407 210.58 7.55407 209.788 7.83007Z" fill="#D84830"/>
<path d="M197.871 15.8761C196.431 15.8761 195.369 15.6061 194.685 15.0661C194.001 14.5141 193.659 13.8421 193.659 13.0501C193.659 12.5341 193.785 12.0961 194.037 11.7361C194.289 11.3761 194.619 11.1001 195.027 10.9081C195.435 10.7041 195.873 10.6021 196.341 10.6021C197.229 10.6021 197.943 10.8781 198.483 11.4301C199.035 11.9821 199.389 12.6661 199.545 13.4821C199.989 13.2781 200.349 12.9661 200.625 12.5461C200.913 12.1261 201.057 11.6221 201.057 11.0341C201.057 10.5301 200.937 10.0801 200.697 9.68415C200.457 9.28815 200.115 8.97615 199.671 8.74815C199.239 8.50815 198.735 8.38815 198.159 8.38815C197.355 8.38815 196.653 8.48415 196.053 8.67615C195.465 8.86815 194.931 9.17415 194.451 9.59415C194.235 9.78615 193.947 10.0321 193.587 10.3321C193.239 10.6321 192.909 10.9021 192.597 11.1421L191.121 9.55815C191.661 9.24615 192.237 8.85015 192.849 8.37015C193.461 7.89015 194.079 7.35615 194.703 6.76815C195.327 6.18015 195.921 5.57415 196.485 4.95015C197.049 4.31415 197.553 3.69015 197.997 3.07815C197.481 3.19815 196.917 3.31215 196.305 3.42015C195.705 3.52815 195.123 3.61815 194.559 3.69015C194.007 3.76215 193.539 3.81015 193.155 3.83415L192.759 1.78215C193.083 1.80615 193.485 1.80615 193.965 1.78215C194.457 1.74615 194.985 1.70415 195.549 1.65615C196.113 1.59615 196.659 1.52415 197.187 1.44015C197.727 1.35615 198.207 1.27215 198.627 1.18815C199.059 1.09215 199.377 0.996146 199.581 0.900146L201.201 1.98015C200.793 2.78415 200.229 3.63015 199.509 4.51815C198.801 5.39415 198.039 6.24015 197.223 7.05615C197.427 6.96015 197.655 6.88815 197.907 6.84015C198.159 6.78015 198.405 6.75015 198.645 6.75015C199.593 6.75015 200.415 6.93015 201.111 7.29015C201.807 7.65015 202.347 8.15415 202.731 8.80215C203.127 9.43815 203.325 10.1821 203.325 11.0341C203.325 11.9341 203.097 12.7501 202.641 13.4821C202.197 14.2141 201.567 14.7961 200.751 15.2281C199.935 15.6601 198.975 15.8761 197.871 15.8761ZM197.637 13.8961C197.577 13.4401 197.433 13.0741 197.205 12.7981C196.989 12.5221 196.701 12.3841 196.341 12.3841C196.149 12.3841 195.987 12.4321 195.855 12.5281C195.723 12.6241 195.657 12.7681 195.657 12.9601C195.657 13.2121 195.789 13.4221 196.053 13.5901C196.329 13.7581 196.785 13.8541 197.421 13.8781C197.457 13.8901 197.493 13.8961 197.529 13.8961C197.565 13.8961 197.601 13.8961 197.637 13.8961Z" fill="#D84830"/>
<path d="M180.284 16.326C178.82 16.398 177.536 16.326 176.432 16.11C175.328 15.906 174.47 15.522 173.858 14.958C173.258 14.382 172.958 13.596 172.958 12.6C172.958 12.024 173.114 11.52 173.426 11.088C173.738 10.644 174.164 10.284 174.704 10.008C175.244 9.73202 175.862 9.54602 176.558 9.45002C177.266 9.35402 178.01 9.35402 178.79 9.45002C178.598 9.19802 178.412 8.93402 178.232 8.65802C178.052 8.38202 177.878 8.10002 177.71 7.81202C176.582 8.00402 175.478 8.16002 174.398 8.28002C173.33 8.38802 172.412 8.43602 171.644 8.42402L171.23 6.51602C171.902 6.54002 172.73 6.51002 173.714 6.42602C174.698 6.33002 175.712 6.19802 176.756 6.03002C176.504 5.51402 176.276 5.00402 176.072 4.50002C175.352 4.59602 174.65 4.67402 173.966 4.73402C173.294 4.79402 172.706 4.83002 172.202 4.84202L171.788 2.97002C172.28 2.98202 172.838 2.97002 173.462 2.93402C174.098 2.88602 174.746 2.82002 175.406 2.73602C175.142 1.95602 174.962 1.28402 174.866 0.720018L176.99 0.468018C177.05 1.00802 177.206 1.66202 177.458 2.43002C178.13 2.31002 178.766 2.17802 179.366 2.03402C179.978 1.87802 180.488 1.72202 180.896 1.56602L181.436 3.40202C181.04 3.54602 180.554 3.68402 179.978 3.81602C179.402 3.94802 178.784 4.07402 178.124 4.19402C178.22 4.43402 178.322 4.68002 178.43 4.93202C178.55 5.17202 178.67 5.41202 178.79 5.65202C179.666 5.47202 180.464 5.28002 181.184 5.07602C181.916 4.86002 182.492 4.64402 182.912 4.42802L183.614 6.21002C183.17 6.42602 182.612 6.63602 181.94 6.84002C181.28 7.04402 180.56 7.23002 179.78 7.39802C180.164 8.02202 180.566 8.60402 180.986 9.14402C181.418 9.67202 181.856 10.116 182.3 10.476L180.968 11.898C180.284 11.514 179.6 11.268 178.916 11.16C178.244 11.04 177.626 11.022 177.062 11.106C176.498 11.19 176.042 11.352 175.694 11.592C175.358 11.832 175.19 12.12 175.19 12.456C175.19 13.008 175.442 13.422 175.946 13.698C176.462 13.974 177.158 14.142 178.034 14.202C178.91 14.262 179.9 14.256 181.004 14.184C180.884 14.364 180.77 14.592 180.662 14.868C180.566 15.132 180.482 15.396 180.41 15.66C180.338 15.924 180.296 16.146 180.284 16.326Z" fill="#D84830"/>
<path d="M161.907 16.0019C160.659 15.8579 159.555 15.4919 158.595 14.9039C157.635 14.3159 156.885 13.5539 156.345 12.6179C155.817 11.6819 155.553 10.6139 155.553 9.41394C155.553 8.54994 155.757 7.66794 156.165 6.76794C156.585 5.86794 157.209 5.06994 158.037 4.37394C157.077 4.52994 156.117 4.69794 155.157 4.87794C154.209 5.05794 153.345 5.22594 152.565 5.38194C151.797 5.53794 151.203 5.66994 150.783 5.77794L150.297 3.45594C150.693 3.43194 151.239 3.37794 151.935 3.29394C152.643 3.20994 153.435 3.10794 154.311 2.98794C155.199 2.85594 156.111 2.71794 157.047 2.57394C157.995 2.41794 158.907 2.26194 159.783 2.10594C160.671 1.94994 161.463 1.79994 162.159 1.65594C162.867 1.49994 163.419 1.36194 163.815 1.24194L164.391 3.43794C164.199 3.44994 163.965 3.47394 163.689 3.50994C163.425 3.54594 163.125 3.58794 162.789 3.63594C162.129 3.71994 161.499 3.92394 160.899 4.24794C160.299 4.57194 159.759 4.99194 159.279 5.50794C158.811 6.02394 158.439 6.61194 158.163 7.27194C157.887 7.93194 157.749 8.64594 157.749 9.41394C157.749 10.3379 157.983 11.1059 158.451 11.7179C158.919 12.3299 159.555 12.8099 160.359 13.1579C161.175 13.4939 162.087 13.7219 163.095 13.8419C162.915 14.0219 162.741 14.2499 162.573 14.5259C162.405 14.7899 162.261 15.0539 162.141 15.3179C162.021 15.5939 161.943 15.8219 161.907 16.0019ZM165.039 7.73994C164.811 7.36794 164.505 6.97194 164.121 6.55194C163.749 6.13194 163.407 5.79594 163.095 5.54394L164.067 4.73394C164.247 4.87794 164.463 5.08794 164.715 5.36394C164.979 5.63994 165.237 5.92194 165.489 6.20994C165.741 6.48594 165.933 6.72594 166.065 6.92994L165.039 7.73994ZM163.419 9.10794C163.191 8.72394 162.891 8.32194 162.519 7.90194C162.147 7.48194 161.805 7.13994 161.493 6.87594L162.483 6.08394C162.663 6.22794 162.879 6.43794 163.131 6.71394C163.383 6.98994 163.629 7.27194 163.869 7.55994C164.121 7.84794 164.313 8.08794 164.445 8.27994L163.419 9.10794Z" fill="#D84830"/>
<path d="M137.625 16.74C137.565 16.596 137.469 16.422 137.337 16.218C137.205 16.026 137.061 15.828 136.905 15.624C136.761 15.432 136.623 15.276 136.491 15.156C137.415 14.844 138.213 14.418 138.885 13.878C139.557 13.326 140.025 12.648 140.289 11.844H137.391V7.30802H140.505V6.26402H138.435V5.11202C138.231 5.26802 138.027 5.41802 137.823 5.56202C137.619 5.69402 137.427 5.81402 137.247 5.92202C137.163 5.77802 137.031 5.59802 136.851 5.38202C136.671 5.15402 136.491 4.95002 136.311 4.77002V4.95002H134.745V5.99402H136.311V7.56002H134.745V8.74802H136.869C136.869 9.43202 136.857 10.152 136.833 10.908C136.809 11.652 136.767 12.36 136.707 13.032C136.659 13.692 136.587 14.244 136.491 14.688C136.335 15.396 136.071 15.888 135.699 16.164C135.339 16.452 134.775 16.596 134.007 16.596H133.071C133.059 16.356 133.017 16.05 132.945 15.678C132.873 15.318 132.795 15.042 132.711 14.85H133.701C134.061 14.85 134.319 14.796 134.475 14.688C134.631 14.58 134.757 14.322 134.853 13.914C134.877 13.818 134.901 13.704 134.925 13.572C134.949 13.428 134.967 13.278 134.979 13.122C134.859 13.158 134.727 13.194 134.583 13.23C134.451 13.266 134.355 13.296 134.295 13.32C134.247 12.972 134.169 12.558 134.061 12.078C133.965 11.598 133.863 11.202 133.755 10.89L134.673 10.656C134.733 10.812 134.793 11.01 134.853 11.25C134.925 11.49 134.991 11.736 135.051 11.988C135.063 11.688 135.069 11.394 135.069 11.106C135.081 10.806 135.087 10.53 135.087 10.278H130.263V0.738021H136.941V2.34002H134.745V3.38402H136.311V4.32002C136.863 4.02002 137.415 3.63602 137.967 3.16802C138.531 2.68802 139.041 2.17802 139.497 1.63802C139.953 1.08602 140.289 0.564021 140.505 0.0720215L141.981 0.360021C142.305 0.804021 142.725 1.25402 143.241 1.71002C143.769 2.16602 144.345 2.58602 144.969 2.97002C145.593 3.35402 146.211 3.66602 146.823 3.90602C146.595 4.13402 146.367 4.42202 146.139 4.77002C145.923 5.11802 145.773 5.40602 145.689 5.63402C145.485 5.53802 145.275 5.43002 145.059 5.31002C144.843 5.19002 144.627 5.05802 144.411 4.91402V6.26402H142.395V7.30802H145.617V11.844H142.773C143.109 12.576 143.643 13.212 144.375 13.752C145.119 14.292 145.911 14.718 146.751 15.03C146.619 15.15 146.469 15.312 146.301 15.516C146.145 15.732 145.995 15.948 145.851 16.164C145.719 16.38 145.617 16.56 145.545 16.704C144.777 16.356 144.045 15.918 143.349 15.39C142.665 14.862 142.095 14.226 141.639 13.482C141.207 14.238 140.637 14.88 139.929 15.408C139.233 15.936 138.465 16.38 137.625 16.74ZM139.083 4.59002H143.925C143.421 4.23002 142.941 3.84002 142.485 3.42002C142.029 3.00002 141.645 2.59802 141.333 2.21402C141.069 2.59802 140.739 3.00002 140.343 3.42002C139.947 3.82802 139.527 4.21802 139.083 4.59002ZM129.543 14.418C129.567 14.154 129.579 13.836 129.579 13.464C129.591 13.08 129.591 12.702 129.579 12.33C129.579 11.946 129.561 11.622 129.525 11.358L130.767 11.214C130.791 11.466 130.809 11.784 130.821 12.168C130.845 12.54 130.857 12.918 130.857 13.302C130.869 13.686 130.875 14.022 130.875 14.31C130.683 14.298 130.461 14.304 130.209 14.328C129.969 14.352 129.747 14.382 129.543 14.418ZM131.289 14.004C131.289 13.788 131.277 13.506 131.253 13.158C131.229 12.798 131.199 12.45 131.163 12.114C131.139 11.766 131.109 11.502 131.073 11.322L132.135 11.178C132.183 11.394 132.225 11.67 132.261 12.006C132.309 12.33 132.345 12.654 132.369 12.978C132.405 13.302 132.429 13.578 132.441 13.806C132.321 13.818 132.135 13.848 131.883 13.896C131.631 13.944 131.433 13.98 131.289 14.004ZM132.837 13.662C132.825 13.434 132.795 13.158 132.747 12.834C132.711 12.51 132.663 12.192 132.603 11.88C132.555 11.568 132.501 11.316 132.441 11.124L133.449 10.944C133.509 11.16 133.569 11.424 133.629 11.736C133.689 12.048 133.743 12.36 133.791 12.672C133.839 12.972 133.869 13.23 133.881 13.446C133.821 13.458 133.719 13.482 133.575 13.518C133.431 13.542 133.287 13.572 133.143 13.608C132.999 13.632 132.897 13.65 132.837 13.662ZM142.395 10.224H143.835V8.92802H142.395V10.224ZM139.173 10.224H140.505V8.92802H139.173V10.224ZM131.973 8.74802H133.143V7.56002H131.973V8.74802ZM131.973 5.99402H133.143V4.95002H131.973V5.99402ZM131.973 3.38402H133.143V2.34002H131.973V3.38402Z" fill="#D84830"/>
<path d="M119.302 16.632V13.914H117.232V11.79H119.302V8.38795C118.906 9.02395 118.474 9.65995 118.006 10.296C117.538 10.92 117.064 11.502 116.584 12.042C116.116 12.582 115.66 13.05 115.216 13.446C115.096 13.302 114.946 13.14 114.766 12.96C114.586 12.78 114.4 12.612 114.208 12.456V16.614H112.066V7.77595C111.874 8.01595 111.682 8.24995 111.49 8.47795C111.31 8.69395 111.124 8.90395 110.932 9.10795C110.74 8.89195 110.494 8.66995 110.194 8.44195C109.906 8.20195 109.624 8.01595 109.348 7.88395C109.78 7.47595 110.218 6.94795 110.662 6.29995C111.106 5.65195 111.52 4.95595 111.904 4.21195C112.3 3.46795 112.636 2.74795 112.912 2.05195C113.2 1.35595 113.398 0.755953 113.506 0.251953L115.522 0.791953C115.378 1.34395 115.192 1.91395 114.964 2.50195C114.736 3.08995 114.484 3.67795 114.208 4.26595V11.502C114.7 11.034 115.222 10.47 115.774 9.80995C116.326 9.14995 116.848 8.46595 117.34 7.75795C117.832 7.03795 118.24 6.35395 118.564 5.70595H114.946V3.70795H119.302V0.269953H121.408V3.70795H126.07V5.70595H121.894C122.17 6.24595 122.512 6.80995 122.92 7.39795C123.34 7.98595 123.79 8.56195 124.27 9.12595C124.75 9.68995 125.224 10.212 125.692 10.692C126.16 11.16 126.58 11.55 126.952 11.862C126.796 11.946 126.61 12.078 126.394 12.258C126.19 12.438 125.986 12.63 125.782 12.834C125.59 13.026 125.434 13.206 125.314 13.374C124.69 12.81 124.024 12.102 123.316 11.25C122.62 10.386 121.984 9.49795 121.408 8.58595V11.79H123.388V13.914H121.408V16.632H119.302Z" fill="#D84830"/>
<path d="M96.8728 13.4821C96.2728 13.8181 95.7088 13.9561 95.1808 13.8961C94.6528 13.8241 94.1848 13.4821 93.7768 12.8701C93.4048 12.2941 93.0628 11.6161 92.7508 10.8361C92.4388 10.0561 92.1688 9.22806 91.9408 8.35206C91.7248 7.47606 91.5568 6.60006 91.4368 5.72406C91.3288 4.84806 91.2808 4.02606 91.2928 3.25806L93.4888 3.27606C93.4528 3.86406 93.4708 4.50606 93.5428 5.20206C93.6148 5.89806 93.7288 6.60006 93.8848 7.30806C94.0408 8.01606 94.2268 8.67606 94.4428 9.28806C94.6588 9.88806 94.8928 10.3921 95.1448 10.8001C95.3128 11.0881 95.4928 11.2561 95.6848 11.3041C95.8888 11.3401 96.1048 11.2861 96.3328 11.1421C96.6208 10.9501 96.9208 10.6861 97.2328 10.3501C97.5568 10.0141 97.8268 9.69006 98.0428 9.37806C98.1028 9.55806 98.1988 9.76206 98.3308 9.99006C98.4748 10.2181 98.6248 10.4401 98.7808 10.6561C98.9488 10.8721 99.0988 11.0461 99.2308 11.1781C98.9068 11.6581 98.5348 12.1021 98.1148 12.5101C97.7068 12.9181 97.2928 13.2421 96.8728 13.4821ZM103.677 10.1161C103.557 9.76806 103.371 9.33606 103.119 8.82006C102.867 8.30406 102.579 7.77006 102.255 7.21806C101.931 6.65406 101.607 6.13806 101.283 5.67006C100.959 5.19006 100.659 4.81806 100.383 4.55406L102.111 3.45606C102.411 3.75606 102.741 4.15806 103.101 4.66206C103.473 5.16606 103.833 5.70606 104.181 6.28206C104.541 6.84606 104.859 7.39806 105.135 7.93806C105.411 8.46606 105.609 8.91606 105.729 9.28806C105.357 9.36006 104.979 9.47406 104.595 9.63006C104.223 9.78606 103.917 9.94806 103.677 10.1161Z" fill="#D84830"/>
<path d="M74.8403 16.1101V10.9621C73.9643 11.8021 73.2263 12.6061 72.6263 13.3741L70.9883 11.8621C71.4923 11.4541 72.0743 10.9561 72.7343 10.3681C73.3943 9.76815 74.0963 9.17415 74.8403 8.58615V6.15615C74.3003 6.27615 73.7723 6.39015 73.2563 6.49815C72.7403 6.59415 72.3263 6.67215 72.0143 6.73215L71.5643 4.77015C71.8883 4.75815 72.3563 4.70415 72.9683 4.60815C73.5923 4.50015 74.2163 4.38615 74.8403 4.26615V0.900146H76.8563V3.74415C77.0123 3.70815 77.1263 3.66615 77.1983 3.61815L78.3503 4.48215L77.1263 6.93015C77.8223 6.51015 78.5243 6.16215 79.2323 5.88615C79.9403 5.61015 80.6243 5.47215 81.2843 5.47215C82.2323 5.47215 83.0723 5.65215 83.8043 6.01215C84.5363 6.36015 85.1063 6.86415 85.5143 7.52415C85.9343 8.17215 86.1443 8.95815 86.1443 9.88215C86.1443 11.2621 85.6403 12.4381 84.6323 13.4101C83.6243 14.3821 82.1363 15.0481 80.1683 15.4081C80.1203 15.2161 80.0303 14.9881 79.8983 14.7241C79.7783 14.4601 79.6403 14.1961 79.4843 13.9321C79.3283 13.6681 79.1723 13.4521 79.0163 13.2841C79.9643 13.1641 80.8103 12.9721 81.5543 12.7081C82.2983 12.4321 82.8863 12.0661 83.3183 11.6101C83.7503 11.1421 83.9663 10.5661 83.9663 9.88215C83.9663 9.03015 83.7323 8.40015 83.2643 7.99215C82.7963 7.57215 82.1363 7.36215 81.2843 7.36215C80.6243 7.36215 79.9103 7.54215 79.1423 7.90215C78.3743 8.26215 77.6123 8.72415 76.8563 9.28815V16.1101H74.8403Z" fill="#D84830"/>
<path d="M59.8292 16.6679V10.9259C59.2892 11.5259 58.6892 12.1079 58.0292 12.6719C57.3812 13.2239 56.7272 13.7279 56.0672 14.1839C55.4072 14.6279 54.7952 14.9939 54.2312 15.2819C54.1472 15.1259 54.0272 14.9459 53.8712 14.7419C53.7152 14.5259 53.5472 14.3219 53.3672 14.1299C53.1872 13.9259 53.0192 13.7759 52.8632 13.6799C53.3912 13.4519 53.9492 13.1579 54.5372 12.7979C55.1252 12.4379 55.7072 12.0419 56.2832 11.6099C56.8712 11.1659 57.4172 10.7099 57.9212 10.2419C58.4252 9.76193 58.8512 9.29393 59.1992 8.83793H56.0492V11.2139H50.8652V2.37593H56.0492V6.89393H59.8292V4.87793H56.7512V2.98793H59.8292V0.179932H61.9172V2.98793H65.5352V4.87793H61.9172V6.89393H66.8312V8.83793H62.3132C62.6252 9.28193 63.0032 9.73193 63.4472 10.1879C63.8912 10.6439 64.3592 11.0879 64.8512 11.5199C65.3552 11.9399 65.8472 12.3239 66.3272 12.6719C66.8072 13.0079 67.2392 13.2779 67.6232 13.4819C67.4552 13.6019 67.2692 13.7639 67.0652 13.9679C66.8612 14.1599 66.6752 14.3579 66.5072 14.5619C66.3392 14.7659 66.2072 14.9459 66.1112 15.1019C65.4392 14.6699 64.7252 14.1059 63.9692 13.4099C63.2132 12.7139 62.5292 11.9639 61.9172 11.1599V16.6679H59.8292ZM52.7912 9.25193H54.1232V4.31993H52.7912V9.25193Z" fill="#D84830"/>
<path d="M40.3539 16.2541C39.3699 16.2541 38.4819 16.1581 37.6899 15.9661C36.8979 15.7741 36.2739 15.4681 35.8179 15.0481C35.3619 14.6161 35.1339 14.0521 35.1339 13.3561C35.1339 12.7801 35.3079 12.2581 35.6559 11.7901C36.0039 11.3101 36.4839 10.8781 37.0959 10.4941C37.7079 10.0981 38.4039 9.73808 39.1839 9.41408V9.27008C39.1839 8.85008 39.0759 8.54408 38.8599 8.35208C38.6559 8.14808 38.3919 8.03408 38.0679 8.01008C37.5159 7.97408 36.9879 8.05208 36.4839 8.24408C35.9799 8.43608 35.4819 8.78408 34.9899 9.28808C34.8459 9.43208 34.6599 9.61808 34.4319 9.84608C34.2039 10.0621 33.9759 10.2781 33.7479 10.4941C33.5199 10.7101 33.3219 10.8901 33.1539 11.0341L31.5879 9.48608C32.4279 8.93408 33.2199 8.23808 33.9639 7.39808C34.7079 6.55808 35.3379 5.66408 35.8539 4.71608C35.1819 4.74008 34.5699 4.76408 34.0179 4.78808C33.4659 4.80008 33.0519 4.80008 32.7759 4.78808L32.7039 2.71808C33.1119 2.75408 33.6759 2.77208 34.3959 2.77208C35.1279 2.77208 35.9199 2.75408 36.7719 2.71808C37.0479 1.92608 37.2039 1.18208 37.2399 0.486084L39.3819 0.594084C39.3459 1.23008 39.2259 1.89008 39.0219 2.57408C39.9099 2.50208 40.7319 2.42408 41.4879 2.34008C42.2559 2.24408 42.8439 2.13608 43.2519 2.01608L43.3779 4.01408C43.0419 4.07408 42.6039 4.14008 42.0639 4.21208C41.5239 4.27208 40.9239 4.33208 40.2639 4.39208C39.6159 4.45208 38.9499 4.50608 38.2659 4.55408C38.1099 4.89008 37.9299 5.23208 37.7259 5.58008C37.5339 5.91608 37.3299 6.24008 37.1139 6.55208C37.5939 6.36008 38.0799 6.26408 38.5719 6.26408C39.2799 6.26408 39.8739 6.45008 40.3539 6.82208C40.8459 7.19408 41.1519 7.80608 41.2719 8.65808C41.9439 8.43008 42.6279 8.22608 43.3239 8.04608C44.0319 7.85408 44.7159 7.68008 45.3759 7.52408L45.9879 9.50408C45.1479 9.62408 44.3319 9.77408 43.5399 9.95408C42.7479 10.1221 42.0099 10.3141 41.3259 10.5301V12.9241H39.2019V11.3401C38.6019 11.6281 38.1219 11.9281 37.7619 12.2401C37.4019 12.5401 37.2219 12.8281 37.2219 13.1041C37.2219 13.5121 37.4679 13.8001 37.9599 13.9681C38.4519 14.1241 39.2019 14.2021 40.2099 14.2021C40.6179 14.2021 41.0739 14.1781 41.5779 14.1301C42.0939 14.0701 42.6039 13.9981 43.1079 13.9141C43.6239 13.8181 44.0739 13.7161 44.4579 13.6081C44.4339 13.7641 44.4099 13.9921 44.3859 14.2921C44.3739 14.5801 44.3679 14.8681 44.3679 15.1561C44.3679 15.4441 44.3739 15.6601 44.3859 15.8041C43.7979 15.9481 43.1379 16.0561 42.4059 16.1281C41.6739 16.2121 40.9899 16.2541 40.3539 16.2541Z" fill="#D84830"/>
<path d="M20.9848 16.65C20.9608 16.338 20.9008 15.96 20.8048 15.516C20.7088 15.084 20.6008 14.736 20.4808 14.472H22.2448C22.6528 14.472 22.9768 14.418 23.2168 14.31C23.4688 14.202 23.6668 14.004 23.8108 13.716C23.9548 13.416 24.0748 12.99 24.1708 12.438C24.3748 11.322 24.4768 9.06602 24.4768 5.67002V4.50002H15.3328C15.2128 4.72802 15.0808 4.96202 14.9368 5.20202C14.7928 5.43002 14.6488 5.65202 14.5048 5.86802H21.6148V13.662H14.4148V6.01202C14.1028 6.48002 13.7788 6.92402 13.4428 7.34402C13.1188 7.75202 12.7948 8.11202 12.4708 8.42402C12.3388 8.28002 12.1588 8.12402 11.9308 7.95602C11.7028 7.77602 11.4688 7.61402 11.2288 7.47002C11.0008 7.32602 10.8028 7.22402 10.6348 7.16402C11.0668 6.80402 11.5048 6.33002 11.9488 5.74202C12.3928 5.14202 12.8128 4.49402 13.2088 3.79802C13.6168 3.10202 13.9708 2.43002 14.2708 1.78202C14.5708 1.12202 14.7868 0.552021 14.9188 0.0720215L17.0428 0.666021C16.9588 0.942021 16.8568 1.23602 16.7368 1.54802C16.6288 1.86002 16.4968 2.18402 16.3408 2.52002H26.6368V5.67002C26.6368 7.29002 26.6068 8.68802 26.5468 9.86402C26.4988 11.04 26.4268 12 26.3308 12.744C26.2108 13.74 25.9828 14.526 25.6468 15.102C25.3228 15.666 24.8908 16.062 24.3508 16.29C23.8108 16.53 23.1628 16.65 22.4068 16.65H20.9848ZM16.4848 11.898H19.5448V10.548H16.4848V11.898ZM16.4848 8.98202H19.5448V7.65002H16.4848V8.98202Z" fill="#D84830"/>
<path d="M5.04 7.83007L4.464 6.84006C5.064 6.68406 5.544 6.40807 5.904 6.01207C6.276 5.61607 6.462 5.19607 6.462 4.75207C6.462 4.66806 6.456 4.59606 6.444 4.53606C6.432 4.47606 6.42 4.42207 6.408 4.37406C6.288 4.54206 6.138 4.68006 5.958 4.78806C5.79 4.89606 5.604 4.95007 5.4 4.95007C5.064 4.95007 4.776 4.83607 4.536 4.60807C4.296 4.38007 4.176 4.08006 4.176 3.70806C4.176 3.32406 4.314 3.02406 4.59 2.80807C4.878 2.59207 5.214 2.47807 5.598 2.46606C6.186 2.46606 6.672 2.68806 7.056 3.13206C7.452 3.56406 7.65 4.12206 7.65 4.80607C7.65 5.53806 7.41 6.15607 6.93 6.66007C6.45 7.16407 5.82 7.55407 5.04 7.83007ZM0.864 7.83007L0.306 6.84006C0.906 6.68406 1.386 6.40807 1.746 6.01207C2.106 5.61607 2.286 5.19607 2.286 4.75207C2.286 4.66806 2.28 4.59606 2.268 4.53606C2.268 4.47606 2.262 4.42207 2.25 4.37406C2.13 4.54206 1.98 4.68006 1.8 4.78806C1.62 4.89606 1.434 4.95007 1.242 4.95007C0.906 4.95007 0.612 4.83607 0.36 4.60807C0.12 4.38007 0 4.08006 0 3.70806C0 3.32406 0.144 3.02406 0.432 2.80807C0.72 2.59207 1.05 2.47807 1.422 2.46606C2.01 2.46606 2.496 2.68806 2.88 3.13206C3.276 3.56406 3.474 4.12206 3.474 4.80607C3.474 5.53806 3.234 6.15607 2.754 6.66007C2.286 7.16407 1.656 7.55407 0.864 7.83007Z" fill="#D84830"/>
</svg>
