<svg width="376" height="44" viewBox="0 0 376 44" fill="none" xmlns="http://www.w3.org/2000/svg">
<path d="M298.783 43.8081L297.859 42.8648L313.952 26.7151L314.895 27.6584L298.783 43.8081Z" fill="#D84830"/>
<path d="M265.11 41.3553L263.883 40.3742C263.909 40.173 263.921 39.7579 263.921 39.129C263.934 38.5001 263.94 37.7518 263.94 36.8839C263.953 36.0161 263.959 35.1356 263.959 34.2426C263.959 33.1358 263.953 32.1736 263.94 31.356C263.927 30.5385 263.909 29.897 263.883 29.4316H266.298C266.273 29.658 266.254 30.0228 266.242 30.5259C266.229 31.0164 266.217 31.5824 266.204 32.2239C266.204 32.8653 266.204 33.5068 266.204 34.1483V38.2612C266.745 38.0348 267.323 37.7581 267.94 37.431C268.569 37.104 269.185 36.7581 269.789 36.3934C270.405 36.0286 270.965 35.6702 271.468 35.318C271.971 34.9658 272.367 34.6451 272.656 34.3558C272.656 34.5948 272.675 34.8904 272.713 35.2425C272.763 35.5947 272.814 35.9343 272.864 36.2613C272.927 36.5758 272.977 36.8022 273.015 36.9405C272.6 37.2927 272.053 37.6826 271.373 38.1102C270.707 38.5379 269.99 38.9592 269.223 39.3743C268.455 39.7894 267.707 40.173 266.978 40.5252C266.261 40.8773 265.638 41.154 265.11 41.3553ZM256.941 41.7892C256.777 41.5125 256.532 41.1981 256.205 40.8459C255.878 40.4937 255.576 40.2107 255.299 39.9969C256.343 39.4435 257.179 38.8397 257.808 38.1857C258.45 37.5317 258.915 36.8085 259.205 36.0161C259.494 35.2111 259.651 34.3181 259.676 33.337C259.701 32.356 259.632 31.268 259.469 30.0731L261.676 29.8844C261.94 31.7711 261.965 33.4565 261.751 34.9407C261.55 36.4123 261.06 37.7078 260.28 38.8272C259.5 39.9466 258.387 40.9339 256.941 41.7892Z" fill="#D84830"/>
<path d="M235.64 36.5067C235.653 36.3306 235.659 36.0916 235.659 35.7898C235.659 35.4879 235.659 35.186 235.659 34.8842C235.659 34.5823 235.653 34.3433 235.64 34.1672C235.879 34.1798 236.301 34.1924 236.904 34.205C237.521 34.2175 238.25 34.2301 239.093 34.2427C239.948 34.2553 240.86 34.2679 241.828 34.2804C242.797 34.2804 243.765 34.2804 244.734 34.2804C245.702 34.2804 246.614 34.2741 247.47 34.2616C248.337 34.249 249.086 34.2364 249.715 34.2238C250.344 34.2113 250.79 34.1924 251.054 34.1672C251.042 34.3307 251.029 34.5634 251.016 34.8653C251.016 35.1672 251.016 35.4753 251.016 35.7898C251.029 36.0916 251.035 36.3243 251.035 36.4878C250.721 36.4752 250.256 36.4627 249.639 36.4501C249.035 36.4375 248.325 36.4249 247.507 36.4123C246.702 36.3998 245.841 36.3935 244.923 36.3935C244.017 36.3935 243.099 36.3935 242.168 36.3935C241.237 36.3935 240.351 36.3998 239.508 36.4123C238.665 36.4249 237.904 36.4375 237.225 36.4501C236.558 36.4627 236.03 36.4815 235.64 36.5067Z" fill="#D84830"/>
<path d="M216.642 40.827V39.0536C216.83 39.0661 217.138 39.0787 217.566 39.0913C217.994 39.0913 218.491 39.0976 219.057 39.1102C219.623 39.1102 220.22 39.1102 220.849 39.1102C221.478 39.1102 222.088 39.1102 222.679 39.1102H223.415L223.849 35.6953C223.459 35.7079 223.006 35.7205 222.49 35.7331C221.987 35.7456 221.49 35.7582 221 35.7708C220.509 35.7834 220.069 35.7959 219.679 35.8085C219.302 35.8211 219.038 35.8337 218.887 35.8463L218.774 34.0162C218.962 34.0288 219.302 34.0414 219.792 34.0539C220.295 34.0539 220.861 34.0539 221.49 34.0539C222.132 34.0414 222.761 34.0288 223.377 34.0162C224.006 34.0036 224.553 33.9911 225.018 33.9785C225.496 33.9533 225.811 33.9345 225.962 33.9219L225.32 39.0913C226.05 39.0913 226.704 39.0913 227.282 39.0913C227.861 39.0787 228.251 39.0661 228.452 39.0536V40.827C228.238 40.8019 227.83 40.7893 227.226 40.7893C226.622 40.7767 225.918 40.7704 225.113 40.7704C224.308 40.7578 223.497 40.7516 222.679 40.7516C222.188 40.7516 221.629 40.7516 221 40.7516C220.384 40.7516 219.774 40.7578 219.17 40.7704C218.566 40.7704 218.031 40.7767 217.566 40.7893C217.113 40.8019 216.805 40.8144 216.642 40.827Z" fill="#D84830"/>
<path d="M197.209 42.4874L195.926 40.1668C196.832 39.9656 197.775 39.6511 198.756 39.2235C199.75 38.7833 200.737 38.2739 201.718 37.6953C202.699 37.1041 203.636 36.4753 204.529 35.8086C205.422 35.1294 206.227 34.4502 206.944 33.7711C207.661 33.0793 208.246 32.419 208.699 31.7901C208.749 32.0165 208.831 32.2869 208.944 32.6013C209.07 32.9158 209.202 33.2176 209.34 33.5069C209.479 33.7962 209.598 34.0226 209.699 34.1861C209.07 34.9785 208.29 35.7772 207.359 36.5822C206.441 37.3871 205.429 38.167 204.322 38.9216C203.215 39.6637 202.052 40.3429 200.831 40.9592C199.624 41.5755 198.417 42.0849 197.209 42.4874ZM200.718 32.4693C200.567 32.3183 200.335 32.136 200.02 31.9221C199.718 31.7083 199.379 31.4882 199.001 31.2618C198.637 31.0228 198.285 30.809 197.945 30.6203C197.618 30.4317 197.347 30.2933 197.134 30.2053L198.417 28.2432C198.668 28.3689 198.964 28.5387 199.303 28.7526C199.655 28.9664 200.008 29.1928 200.36 29.4318C200.725 29.6582 201.058 29.8783 201.36 30.0921C201.674 30.3059 201.919 30.482 202.096 30.6203L200.718 32.4693ZM198.115 36.3746C197.876 36.1734 197.524 35.947 197.058 35.6954C196.605 35.4439 196.134 35.2049 195.643 34.9785C195.165 34.7395 194.756 34.5634 194.417 34.4503L195.587 32.4127C195.951 32.551 196.373 32.7397 196.851 32.9787C197.341 33.2176 197.813 33.4629 198.266 33.7145C198.718 33.966 199.077 34.1861 199.341 34.3748L198.115 36.3746ZM208.548 29.7714C208.284 29.4066 207.938 29.0104 207.51 28.5828C207.095 28.1551 206.724 27.8218 206.397 27.5828L207.359 26.6772C207.561 26.8156 207.8 27.0231 208.076 27.2998C208.366 27.564 208.649 27.8407 208.925 28.13C209.202 28.4067 209.416 28.6457 209.567 28.8469L208.548 29.7714ZM206.944 31.2995C206.68 30.9222 206.341 30.5197 205.925 30.0921C205.51 29.6644 205.139 29.3248 204.812 29.0733L205.775 28.1677C205.963 28.3186 206.196 28.5325 206.473 28.8092C206.762 29.0859 207.045 29.3689 207.322 29.6582C207.598 29.9349 207.812 30.1738 207.963 30.3751L206.944 31.2995Z" fill="#D84830"/>
<path d="M178.475 43.3739C178.286 43.0846 178.022 42.7576 177.682 42.3928C177.343 42.0281 177.028 41.7514 176.739 41.5627C178.311 40.7326 179.506 39.6949 180.324 38.4497C181.141 37.192 181.613 35.7267 181.739 34.0538H178.116C177.651 34.6324 177.16 35.167 176.645 35.6575C176.129 36.148 175.582 36.5945 175.003 36.997C174.802 36.758 174.532 36.475 174.192 36.148C173.852 35.821 173.538 35.5757 173.249 35.4122C174.179 34.8085 175.016 34.079 175.758 33.2237C176.5 32.3684 177.135 31.444 177.663 30.4503C178.204 29.4567 178.607 28.4693 178.871 27.4883L181.154 28.1675C180.965 28.8089 180.739 29.4378 180.475 30.0541C180.223 30.6579 179.934 31.249 179.607 31.8276H188.644V34.0538H184.097C183.971 36.104 183.437 37.8963 182.493 39.4308C181.563 40.9653 180.223 42.2796 178.475 43.3739Z" fill="#D84830"/>
<path d="M154.212 42.1854C154.049 41.9087 153.829 41.5754 153.552 41.1854C153.288 40.7955 153.017 40.4874 152.741 40.261C153.684 39.8459 154.627 39.3302 155.571 38.7139C156.514 38.0976 157.413 37.4059 158.269 36.6386C159.137 35.8588 159.923 35.0413 160.627 34.186C161.344 33.3181 161.948 32.4377 162.438 31.5447C161.822 31.5824 161.143 31.6264 160.401 31.6767C159.671 31.727 158.942 31.7773 158.212 31.8277C157.495 31.8654 156.841 31.9094 156.25 31.9597C155.671 31.9975 155.225 32.0289 154.91 32.0541L154.646 29.658C154.961 29.658 155.432 29.6517 156.061 29.6391C156.69 29.6266 157.395 29.6077 158.174 29.5825C158.954 29.5448 159.728 29.5071 160.495 29.4693C161.275 29.4316 161.973 29.3876 162.589 29.3373C163.218 29.2744 163.683 29.2178 163.985 29.1675L165.513 30.1485C165.212 31.029 164.822 31.8968 164.344 32.7521C163.866 33.5948 163.325 34.4061 162.721 35.1859C163.161 35.5255 163.627 35.9091 164.117 36.3368C164.62 36.7644 165.111 37.2046 165.589 37.6574C166.067 38.1102 166.507 38.5441 166.91 38.9592C167.312 39.3743 167.645 39.7453 167.909 40.0723C167.595 40.2736 167.262 40.5377 166.91 40.8647C166.557 41.1792 166.249 41.481 165.985 41.7703C165.746 41.4307 165.438 41.0471 165.061 40.6195C164.683 40.1792 164.275 39.739 163.834 39.2988C163.407 38.846 162.973 38.4121 162.532 37.997C162.092 37.5694 161.677 37.192 161.287 36.865C160.243 37.9844 159.111 38.9969 157.891 39.9025C156.671 40.8081 155.445 41.5691 154.212 42.1854Z" fill="#D84830"/>
<path d="M143.949 43.7514C143.936 43.5501 143.905 43.3111 143.855 43.0344C143.804 42.7703 143.748 42.5124 143.685 42.2609C143.622 41.9968 143.553 41.7829 143.477 41.6194H144.741C144.993 41.6194 145.175 41.5754 145.288 41.4874C145.402 41.3993 145.458 41.2484 145.458 41.0346V33.5257H140.232V27.1111H147.647V41.8458C147.647 42.4999 147.471 42.9778 147.119 43.2797C146.779 43.5941 146.219 43.7514 145.439 43.7514H143.949ZM131.535 43.7702V27.1111H138.912V33.5257H133.704V43.7702H131.535ZM135.987 41.8647V34.7143H143.194V41.8647H135.987ZM138.006 40.2233H141.194V39.0159H138.006V40.2233ZM138.006 37.5443H141.194V36.3557H138.006V37.5443ZM142.345 31.9409H145.458V30.9976H142.345V31.9409ZM133.704 31.9409H136.799V30.9976H133.704V31.9409ZM142.345 29.6392H145.458V28.7147H142.345V29.6392ZM133.704 29.6392H136.799V28.7147H133.704V29.6392Z" fill="#D84830"/>
<path d="M118.687 43.8458V39.7518H110.178V37.7896H113.366V33.1107H118.687V30.8845H114.857C114.404 31.6014 113.913 32.2806 113.385 32.9221C112.87 33.551 112.329 34.1232 111.763 34.6389C111.561 34.4251 111.297 34.1861 110.97 33.922C110.656 33.6579 110.323 33.4378 109.97 33.2617C110.662 32.6957 111.316 32.0291 111.933 31.2618C112.549 30.482 113.083 29.677 113.536 28.8469C114.002 28.0042 114.347 27.2118 114.574 26.4697L116.706 27.1301C116.492 27.7212 116.247 28.2998 115.97 28.8658H126.573V30.8845H121.026V33.1107H125.233V35.0729H121.026V37.7896H127.384V39.7518H121.026V43.8458H118.687ZM115.687 37.7896H118.687V35.0729H115.687V37.7896Z" fill="#D84830"/>
<path d="M76.9333 43.8081L60.8402 27.6584L61.7835 26.7151L77.8767 42.8648L76.9333 43.8081Z" fill="#D84830"/>
<path d="M369.001 16.0364C368.887 16.0364 368.793 15.9987 368.718 15.9232C368.642 15.8351 368.604 15.7345 368.604 15.6213C368.604 15.571 368.617 15.5144 368.642 15.4515L373.189 5.07495H367.265C367.126 5.07495 367.013 5.03093 366.925 4.94288C366.85 4.85484 366.812 4.74793 366.812 4.62215V3.3015C366.812 3.16314 366.85 3.04994 366.925 2.9619C367.013 2.87386 367.126 2.82983 367.265 2.82983H375.547C375.686 2.82983 375.792 2.87386 375.868 2.9619C375.956 3.04994 376 3.16314 376 3.3015V4.47122C376 4.64731 375.981 4.79824 375.943 4.92402C375.918 5.03722 375.881 5.1567 375.83 5.28248L371.321 15.5836C371.283 15.6716 371.214 15.7723 371.114 15.8855C371.026 15.9861 370.893 16.0364 370.717 16.0364H369.001Z" fill="#D84830"/>
<path d="M359.176 16.2251C358.095 16.2251 357.164 16.0238 356.384 15.6213C355.604 15.2063 355 14.6528 354.573 13.9611C354.145 13.2567 353.931 12.4706 353.931 11.6028C353.931 11.2129 353.982 10.8355 354.082 10.4708C354.183 10.106 354.315 9.76013 354.478 9.43311C354.642 9.10609 354.799 8.81681 354.95 8.56525C355.114 8.30112 355.258 8.09359 355.384 7.94266L358.837 3.20716C358.887 3.14428 358.962 3.06881 359.063 2.98077C359.164 2.88015 359.302 2.82983 359.478 2.82983H361.233C361.346 2.82983 361.44 2.87386 361.516 2.9619C361.591 3.03737 361.629 3.1317 361.629 3.2449C361.629 3.29521 361.616 3.34552 361.591 3.39583C361.579 3.43356 361.56 3.46501 361.535 3.49016L358.893 7.15027C359.006 7.11253 359.138 7.08738 359.289 7.0748C359.44 7.06222 359.579 7.05593 359.704 7.05593C360.333 7.06851 360.931 7.19429 361.497 7.43326C362.063 7.65966 362.56 7.9741 362.987 8.37659C363.415 8.77907 363.748 9.25074 363.987 9.79158C364.239 10.3324 364.365 10.9236 364.365 11.565C364.365 12.3952 364.157 13.1687 363.742 13.8856C363.327 14.59 362.729 15.156 361.95 15.5836C361.182 16.0112 360.258 16.2251 359.176 16.2251ZM359.157 14.0554C359.61 14.0554 360.025 13.9611 360.403 13.7724C360.792 13.5837 361.107 13.307 361.346 12.9423C361.585 12.5775 361.704 12.1247 361.704 11.5839C361.704 11.0556 361.585 10.6091 361.346 10.2444C361.107 9.87962 360.792 9.60291 360.403 9.41425C360.025 9.22558 359.61 9.13125 359.157 9.13125C358.705 9.13125 358.283 9.22558 357.893 9.41425C357.516 9.60291 357.208 9.87962 356.969 10.2444C356.73 10.6091 356.61 11.0556 356.61 11.5839C356.61 12.1247 356.73 12.5775 356.969 12.9423C357.208 13.307 357.516 13.5837 357.893 13.7724C358.283 13.9611 358.705 14.0554 359.157 14.0554Z" fill="#D84830"/>
<path d="M335.945 16.0364C335.819 16.0364 335.712 15.9924 335.624 15.9044C335.536 15.8163 335.492 15.7094 335.492 15.5836V6.67865C335.492 6.55287 335.536 6.44596 335.624 6.35792C335.712 6.26988 335.819 6.22585 335.945 6.22585H337.417C337.542 6.22585 337.649 6.26988 337.737 6.35792C337.825 6.44596 337.869 6.55287 337.869 6.67865V7.32011C338.134 6.96794 338.486 6.67236 338.926 6.43339C339.379 6.18183 339.913 6.04977 340.53 6.03719C341.964 6.01203 342.963 6.57174 343.529 7.71631C343.819 7.2132 344.234 6.81071 344.775 6.50885C345.328 6.19441 345.938 6.03719 346.605 6.03719C347.259 6.03719 347.85 6.18812 348.378 6.48998C348.919 6.79185 349.34 7.25093 349.642 7.86724C349.957 8.47097 350.114 9.23821 350.114 10.169V15.5836C350.114 15.7094 350.07 15.8163 349.982 15.9044C349.894 15.9924 349.787 16.0364 349.661 16.0364H348.114C347.988 16.0364 347.881 15.9924 347.793 15.9044C347.705 15.8163 347.661 15.7094 347.661 15.5836V10.3199C347.661 9.75389 347.579 9.30738 347.416 8.98036C347.252 8.64077 347.032 8.40179 346.756 8.26344C346.479 8.12508 346.171 8.05591 345.831 8.05591C345.554 8.05591 345.278 8.12508 345.001 8.26344C344.724 8.40179 344.498 8.64077 344.322 8.98036C344.146 9.30738 344.058 9.75389 344.058 10.3199V15.5836C344.058 15.7094 344.014 15.8163 343.926 15.9044C343.838 15.9924 343.731 16.0364 343.605 16.0364H342.058C341.919 16.0364 341.806 15.9924 341.718 15.9044C341.643 15.8163 341.605 15.7094 341.605 15.5836V10.3199C341.605 9.75389 341.517 9.30738 341.341 8.98036C341.165 8.64077 340.938 8.40179 340.662 8.26344C340.385 8.12508 340.089 8.05591 339.775 8.05591C339.486 8.05591 339.203 8.13137 338.926 8.2823C338.649 8.42066 338.423 8.65334 338.247 8.98036C338.071 9.30738 337.983 9.75389 337.983 10.3199V15.5836C337.983 15.7094 337.939 15.8163 337.851 15.9044C337.763 15.9924 337.656 16.0364 337.53 16.0364H335.945Z" fill="#D84830"/>
<path d="M326.191 16.0367C326.065 16.0367 325.958 15.9926 325.87 15.9046C325.782 15.8166 325.738 15.7096 325.738 15.5839V6.69774C325.738 6.55938 325.782 6.44618 325.87 6.35814C325.958 6.2701 326.065 6.22607 326.191 6.22607H327.719C327.845 6.22607 327.952 6.2701 328.04 6.35814C328.141 6.44618 328.191 6.55938 328.191 6.69774V7.47126C328.48 7.06878 328.851 6.76063 329.304 6.54681C329.77 6.33298 330.304 6.22607 330.908 6.22607H331.681C331.82 6.22607 331.927 6.2701 332.002 6.35814C332.09 6.44618 332.134 6.55309 332.134 6.67887V8.03726C332.134 8.16304 332.09 8.26995 332.002 8.35799C331.927 8.44603 331.82 8.49006 331.681 8.49006H330.21C329.606 8.49006 329.134 8.65985 328.795 8.99945C328.468 9.33905 328.304 9.80442 328.304 10.3956V15.5839C328.304 15.7096 328.26 15.8166 328.172 15.9046C328.084 15.9926 327.971 16.0367 327.833 16.0367H326.191Z" fill="#D84830"/>
<path d="M315.922 16.225C315.268 16.225 314.677 16.0992 314.149 15.8477C313.621 15.5836 313.199 15.2377 312.885 14.81C312.583 14.3698 312.432 13.8793 312.432 13.3384C312.432 12.458 312.784 11.76 313.489 11.2443C314.206 10.716 315.149 10.3638 316.319 10.1877L318.903 9.81041V9.41422C318.903 8.88595 318.771 8.47718 318.507 8.18789C318.243 7.89861 317.79 7.75396 317.149 7.75396C316.696 7.75396 316.325 7.84829 316.036 8.03696C315.759 8.21305 315.551 8.45202 315.413 8.75389C315.312 8.9174 315.168 8.99915 314.979 8.99915H313.489C313.35 8.99915 313.243 8.96142 313.168 8.88595C313.105 8.81049 313.074 8.70987 313.074 8.58409C313.086 8.38285 313.168 8.13758 313.319 7.84829C313.47 7.55901 313.709 7.2823 314.036 7.01817C314.363 6.74146 314.784 6.50877 315.3 6.32011C315.816 6.13144 316.438 6.03711 317.168 6.03711C317.96 6.03711 318.627 6.13773 319.167 6.33897C319.721 6.52764 320.161 6.78548 320.488 7.1125C320.815 7.43952 321.054 7.82314 321.205 8.26336C321.356 8.70358 321.431 9.16895 321.431 9.65948V15.5836C321.431 15.7093 321.387 15.8163 321.299 15.9043C321.211 15.9923 321.104 16.0364 320.979 16.0364H319.45C319.312 16.0364 319.199 15.9923 319.111 15.9043C319.035 15.8163 318.998 15.7093 318.998 15.5836V14.8478C318.834 15.0867 318.614 15.3131 318.337 15.527C318.061 15.7282 317.721 15.898 317.319 16.0364C316.929 16.1621 316.463 16.225 315.922 16.225ZM316.564 14.4327C317.004 14.4327 317.4 14.3384 317.752 14.1497C318.117 13.961 318.4 13.6718 318.601 13.2819C318.815 12.8794 318.922 12.3763 318.922 11.7725V11.3763L317.036 11.6782C316.293 11.7914 315.74 11.9738 315.375 12.2253C315.011 12.4769 314.828 12.785 314.828 13.1498C314.828 13.4265 314.91 13.6655 315.073 13.8667C315.25 14.0554 315.47 14.2 315.734 14.3006C315.998 14.3887 316.275 14.4327 316.564 14.4327Z" fill="#D84830"/>
<path d="M301.014 16.0364C300.888 16.0364 300.782 15.9924 300.693 15.9043C300.605 15.8163 300.561 15.7094 300.561 15.5836V3.3015C300.561 3.16314 300.605 3.04994 300.693 2.9619C300.782 2.87386 300.888 2.82983 301.014 2.82983H309.202C309.341 2.82983 309.454 2.87386 309.542 2.9619C309.63 3.04994 309.674 3.16314 309.674 3.3015V4.62215C309.674 4.76051 309.63 4.87371 309.542 4.96175C309.454 5.03722 309.341 5.07495 309.202 5.07495H303.146V8.65959H308.825C308.963 8.65959 309.076 8.70361 309.165 8.79165C309.253 8.8797 309.297 8.9929 309.297 9.13125V10.4519C309.297 10.5777 309.253 10.6846 309.165 10.7726C309.076 10.8607 308.963 10.9047 308.825 10.9047H303.146V15.5836C303.146 15.7094 303.102 15.8163 303.014 15.9043C302.926 15.9924 302.813 16.0364 302.674 16.0364H301.014Z" fill="#D84830"/>
<path d="M285.506 14.2442V5.24489H288.468C288.506 5.08138 288.543 4.91158 288.581 4.73549C288.619 4.54683 288.65 4.37074 288.675 4.20723H284.147V2.37718H286.845C286.682 2.08789 286.512 1.79861 286.336 1.50932C286.16 1.22003 286.003 0.981058 285.864 0.792393L287.77 0.0188665C287.984 0.295575 288.223 0.666617 288.487 1.13199C288.764 1.59736 288.99 2.01243 289.166 2.37718H290.77C290.946 2.02501 291.134 1.62252 291.336 1.16972C291.549 0.704349 291.7 0.314442 291.788 0L293.996 0.547128C293.895 0.786104 293.757 1.07539 293.581 1.41499C293.417 1.74201 293.247 2.06274 293.071 2.37718H296.015V4.20723H291.034C290.996 4.37074 290.958 4.54683 290.921 4.73549C290.883 4.91158 290.845 5.08138 290.807 5.24489H294.845V14.2442H285.506ZM289.619 17.1685C288.286 17.1685 287.185 17.0993 286.317 16.961C285.462 16.8352 284.758 16.634 284.204 16.3573C283.663 16.0931 283.192 15.7598 282.789 15.3573C282.563 15.5334 282.255 15.7347 281.865 15.9611C281.487 16.1749 281.104 16.3887 280.714 16.6025C280.324 16.8163 279.997 16.9987 279.733 17.1497L278.865 15.0177C279.079 14.9423 279.368 14.8354 279.733 14.697C280.097 14.5587 280.462 14.414 280.827 14.2631C281.192 14.0996 281.468 13.9549 281.657 13.8292V9.05593H279.242V7.09381H283.714V13.5462C283.865 13.9486 284.16 14.2757 284.6 14.5272C285.041 14.7662 285.669 14.9423 286.487 15.0555C287.305 15.1561 288.348 15.2064 289.619 15.2064C291.229 15.2064 292.612 15.1813 293.769 15.1309C294.927 15.0806 295.864 15.0052 296.581 14.9045C296.518 15.0429 296.448 15.2567 296.373 15.546C296.298 15.8227 296.235 16.1057 296.184 16.395C296.134 16.6969 296.103 16.9421 296.09 17.1308C295.738 17.1308 295.279 17.1308 294.713 17.1308C294.147 17.1434 293.543 17.1497 292.902 17.1497C292.273 17.1622 291.669 17.1685 291.09 17.1685C290.512 17.1685 290.021 17.1685 289.619 17.1685ZM282.336 4.82983C282.122 4.51538 281.852 4.17579 281.525 3.81104C281.198 3.44628 280.852 3.09411 280.487 2.75451C280.135 2.41491 279.796 2.13192 279.469 1.90552L280.978 0.509396C281.28 0.710639 281.619 0.981059 281.997 1.32066C282.374 1.66025 282.739 2.01243 283.091 2.37718C283.443 2.72936 283.726 3.0438 283.94 3.32051C283.814 3.40855 283.644 3.55319 283.431 3.75444C283.217 3.9431 283.009 4.13806 282.808 4.3393C282.607 4.54054 282.449 4.70405 282.336 4.82983ZM287.694 12.6594H292.637V11.6784H287.694V12.6594ZM287.694 10.2068H292.637V9.24459H287.694V10.2068ZM287.694 7.773H292.637V6.82968H287.694V7.773Z" fill="#D84830"/>
<path d="M260.3 17.4139V9.96166C259.986 10.2761 259.665 10.578 259.338 10.8673C259.25 10.7415 259.112 10.5905 258.923 10.4145C258.734 10.2384 258.527 10.0686 258.3 9.90506C258.087 9.72897 257.892 9.5969 257.716 9.50886C258.08 9.21957 258.47 8.86111 258.885 8.43347C259.3 8.00583 259.709 7.54674 260.112 7.05621C260.527 6.55311 260.891 6.05629 261.206 5.56576C261.533 5.06265 261.784 4.60357 261.96 4.1885L263.847 5.01863C263.784 5.16956 263.709 5.32678 263.621 5.49029C263.545 5.64123 263.464 5.79216 263.375 5.94309H265.809V4.11304H263.791V2.26412H265.809V0.377468H267.96V2.26412H269.941V4.11304H267.96V5.94309H270.167V7.82974H263.375V5.94309C263.237 6.18207 263.092 6.42733 262.942 6.67888C262.791 6.91786 262.627 7.16312 262.451 7.41468V17.4139H260.3ZM263.375 16.1876L262.923 14.15C263.212 14.1249 263.614 14.0808 264.13 14.018C264.646 13.9551 265.206 13.8859 265.809 13.8104V11.8672H263.564V9.94279H265.809V8.2448H267.96V9.94279H270.111V11.8672H267.96V13.5274C268.539 13.4394 269.061 13.3576 269.526 13.2822C270.004 13.2067 270.375 13.1438 270.639 13.0935V14.9801C270.35 15.0556 269.966 15.1374 269.488 15.2254C269.023 15.3135 268.501 15.4078 267.922 15.5084C267.356 15.5965 266.784 15.6845 266.205 15.7725C265.627 15.8606 265.092 15.9423 264.602 16.0178C264.111 16.0933 263.702 16.1499 263.375 16.1876ZM270.79 17.3951C270.777 17.1938 270.746 16.9548 270.696 16.6781C270.645 16.4014 270.589 16.131 270.526 15.8669C270.463 15.5902 270.394 15.3701 270.318 15.2065H271.375C271.626 15.2065 271.796 15.1688 271.884 15.0933C271.985 15.0053 272.035 14.8418 272.035 14.6028V7.62221H270.545V5.67896H275.639V7.62221H274.205V15.4895C274.205 16.7599 273.425 17.3951 271.865 17.3951H270.79ZM259.508 5.1507C259.332 4.87399 259.118 4.57841 258.866 4.26397C258.615 3.94953 258.357 3.69169 258.093 3.49044C258.885 3.05022 259.615 2.55341 260.281 1.99999C260.948 1.43399 261.483 0.867997 261.885 0.302002L263.508 1.54719C263.168 1.98741 262.772 2.42763 262.319 2.86785C261.866 3.30807 261.394 3.72313 260.904 4.11304C260.426 4.50295 259.961 4.84883 259.508 5.1507ZM270.733 3.18858V1.22646H275.28V3.18858H270.733Z" fill="#D84830"/>
<path d="M239.302 8.13135V3.98071H242.641V3.03739H237.943V1.35827H242.641V0.169678H244.754V1.35827H247.735V0.169678H249.848V1.35827H254.471V3.03739H249.848V3.98071H253.169V8.13135H239.302ZM239.698 17.8099C239.61 17.5709 239.484 17.269 239.321 16.9043C239.17 16.5395 239.006 16.2377 238.83 15.9987C239.673 15.9106 240.541 15.7786 241.434 15.6025C242.327 15.4264 243.188 15.2063 244.018 14.9422C243.842 14.7661 243.635 14.5648 243.396 14.3384C243.169 14.112 242.949 13.9045 242.736 13.7158C242.421 13.8668 242.1 14.0051 241.773 14.1309C241.446 14.2567 241.119 14.3762 240.792 14.4894C240.679 14.2378 240.516 13.9548 240.302 13.6404C240.088 13.3259 239.893 13.087 239.717 12.9234C240.585 12.697 241.465 12.3512 242.358 11.8858C243.251 11.4204 244.05 10.911 244.754 10.3576H239.943V12.0744H237.849V8.73507H254.678V12.0744H252.603V10.3576H247.32C247.194 10.4834 247.062 10.6154 246.924 10.7538C246.786 10.8796 246.647 11.0116 246.509 11.15H251.112L251.81 11.9046C250.553 13.5775 248.936 14.8793 246.962 15.81C245 16.7282 242.578 17.3948 239.698 17.8099ZM246.037 14.1875C247.056 13.7347 247.867 13.2253 248.471 12.6593H244.584C244.509 12.7096 244.452 12.7411 244.415 12.7536C244.641 12.9297 244.899 13.1498 245.188 13.414C245.49 13.6781 245.773 13.9359 246.037 14.1875ZM244.754 3.98071H247.735V3.03739H244.754V3.98071ZM249.075 6.62203H251.169V5.49003H249.075V6.62203ZM241.321 6.62203H243.283V5.49003H241.321V6.62203ZM245.245 6.62203H247.131V5.49003H245.245V6.62203Z" fill="#D84830"/>
<path d="M224.263 8.20694L223.659 7.16928C224.288 7.00577 224.791 6.71648 225.169 6.30142C225.559 5.88636 225.754 5.44614 225.754 4.98076C225.754 4.89272 225.747 4.81725 225.735 4.75437C225.722 4.69148 225.71 4.63488 225.697 4.58457C225.571 4.76065 225.414 4.9053 225.225 5.0185C225.049 5.1317 224.854 5.1883 224.64 5.1883C224.288 5.1883 223.986 5.06881 223.735 4.82983C223.483 4.59086 223.357 4.27641 223.357 3.88651C223.357 3.48402 223.502 3.16958 223.791 2.94318C224.093 2.71678 224.445 2.5973 224.848 2.58472C225.464 2.58472 225.974 2.8174 226.376 3.28278C226.791 3.73557 226.999 4.32044 226.999 5.03736C226.999 5.8046 226.747 6.45235 226.244 6.98061C225.741 7.50888 225.081 7.91765 224.263 8.20694ZM219.886 8.20694L219.301 7.16928C219.93 7.00577 220.433 6.71648 220.811 6.30142C221.188 5.88636 221.377 5.44614 221.377 4.98076C221.377 4.89272 221.37 4.81725 221.358 4.75437C221.358 4.69148 221.351 4.63488 221.339 4.58457C221.213 4.76065 221.056 4.9053 220.867 5.0185C220.678 5.1317 220.483 5.1883 220.282 5.1883C219.93 5.1883 219.622 5.06881 219.358 4.82983C219.106 4.59086 218.98 4.27641 218.98 3.88651C218.98 3.48402 219.131 3.16958 219.433 2.94318C219.735 2.71678 220.081 2.5973 220.471 2.58472C221.087 2.58472 221.597 2.8174 221.999 3.28278C222.414 3.73557 222.622 4.32044 222.622 5.03736C222.622 5.8046 222.37 6.45235 221.867 6.98061C221.377 7.50888 220.716 7.91765 219.886 8.20694Z" fill="#D84830"/>
<path d="M207.396 16.6403C205.887 16.6403 204.774 16.3573 204.057 15.7913C203.34 15.2127 202.982 14.5084 202.982 13.6783C202.982 13.1374 203.114 12.6783 203.378 12.301C203.642 11.9237 203.988 11.6344 204.416 11.4331C204.843 11.2193 205.302 11.1124 205.793 11.1124C206.724 11.1124 207.472 11.4017 208.038 11.9803C208.617 12.5588 208.988 13.2758 209.151 14.1311C209.616 13.9172 209.994 13.5902 210.283 13.15C210.585 12.7098 210.736 12.1815 210.736 11.5652C210.736 11.0369 210.61 10.5653 210.359 10.1502C210.107 9.73515 209.749 9.40813 209.283 9.16916C208.83 8.91761 208.302 8.79183 207.698 8.79183C206.856 8.79183 206.12 8.89245 205.491 9.09369C204.875 9.29494 204.315 9.61567 203.812 10.0559C203.585 10.2571 203.284 10.515 202.906 10.8294C202.541 11.1439 202.196 11.4269 201.869 11.6784L200.322 10.0182C200.888 9.69113 201.491 9.27607 202.133 8.77296C202.774 8.26985 203.422 7.71015 204.076 7.09384C204.73 6.47754 205.353 5.84236 205.944 5.18832C206.535 4.52171 207.063 3.86767 207.529 3.22621C206.988 3.35198 206.397 3.47147 205.755 3.58467C205.126 3.69787 204.516 3.7922 203.925 3.86767C203.346 3.94313 202.856 3.99344 202.453 4.0186L202.038 1.86782C202.378 1.89297 202.799 1.89297 203.302 1.86782C203.818 1.83009 204.372 1.78606 204.963 1.73575C205.554 1.67286 206.126 1.5974 206.68 1.50935C207.246 1.42131 207.749 1.33327 208.189 1.24522C208.642 1.1446 208.975 1.04398 209.189 0.943359L210.887 2.07535C210.459 2.91805 209.868 3.80478 209.113 4.73553C208.371 5.6537 207.573 6.54042 206.717 7.39571C206.931 7.29508 207.17 7.21962 207.434 7.16931C207.698 7.10642 207.956 7.07498 208.208 7.07498C209.201 7.07498 210.063 7.26364 210.792 7.64097C211.522 8.0183 212.088 8.54656 212.49 9.22576C212.906 9.89238 213.113 10.6722 213.113 11.5652C213.113 12.5085 212.874 13.3638 212.396 14.1311C211.931 14.8983 211.27 15.5083 210.415 15.9611C209.56 16.4139 208.554 16.6403 207.396 16.6403ZM207.151 14.565C207.088 14.087 206.937 13.7034 206.698 13.4141C206.472 13.1248 206.17 12.9802 205.793 12.9802C205.592 12.9802 205.422 13.0305 205.283 13.1311C205.145 13.2317 205.076 13.3827 205.076 13.5839C205.076 13.8481 205.214 14.0682 205.491 14.2443C205.78 14.4203 206.258 14.521 206.925 14.5461C206.963 14.5587 207 14.565 207.038 14.565C207.076 14.565 207.113 14.565 207.151 14.565Z" fill="#D84830"/>
<path d="M188.964 17.1119C187.429 17.1873 186.084 17.1119 184.926 16.8855C183.769 16.6717 182.87 16.2692 182.229 15.678C181.6 15.0743 181.285 14.2505 181.285 13.2065C181.285 12.6028 181.449 12.0745 181.776 11.6217C182.103 11.1563 182.549 10.779 183.115 10.4897C183.681 10.2004 184.329 10.0055 185.058 9.90487C185.801 9.80425 186.58 9.80425 187.398 9.90487C187.197 9.64074 187.002 9.36403 186.813 9.07474C186.624 8.78546 186.442 8.48988 186.266 8.18802C185.084 8.38926 183.926 8.55277 182.795 8.67855C181.675 8.79174 180.713 8.84206 179.908 8.82948L179.474 6.82963C180.178 6.85478 181.046 6.82334 182.078 6.73529C183.109 6.63467 184.172 6.49632 185.266 6.32023C185.002 5.77939 184.763 5.24484 184.549 4.71658C183.794 4.8172 183.059 4.89896 182.342 4.96184C181.637 5.02473 181.021 5.06246 180.493 5.07504L180.059 3.11292C180.575 3.1255 181.159 3.11292 181.813 3.07519C182.48 3.02488 183.159 2.9557 183.851 2.86766C183.574 2.05011 183.386 1.34576 183.285 0.75461L185.511 0.490479C185.574 1.05647 185.738 1.74196 186.002 2.54693C186.706 2.42115 187.373 2.2828 188.002 2.13187C188.643 1.96836 189.178 1.80485 189.605 1.64134L190.171 3.56572C189.756 3.71665 189.247 3.8613 188.643 3.99965C188.039 4.138 187.392 4.27007 186.7 4.39585C186.8 4.6474 186.907 4.90524 187.021 5.16937C187.146 5.42093 187.272 5.67248 187.398 5.92403C188.316 5.73537 189.153 5.53413 189.907 5.32031C190.674 5.09391 191.278 4.86751 191.718 4.64111L192.454 6.5089C191.989 6.73529 191.404 6.9554 190.7 7.16922C190.008 7.38305 189.253 7.578 188.436 7.75409C188.838 8.40813 189.259 9.01814 189.7 9.58414C190.152 10.1376 190.612 10.6029 191.077 10.9803L189.681 12.4707C188.964 12.0682 188.247 11.8104 187.53 11.6972C186.826 11.5714 186.178 11.5525 185.587 11.6406C184.996 11.7286 184.518 11.8984 184.153 12.15C183.801 12.4015 183.625 12.7034 183.625 13.0556C183.625 13.6341 183.889 14.0681 184.417 14.3574C184.958 14.6467 185.687 14.8227 186.606 14.8856C187.524 14.9485 188.561 14.9422 189.719 14.8668C189.593 15.0554 189.473 15.2944 189.36 15.5837C189.259 15.8604 189.171 16.1371 189.096 16.4138C189.02 16.6905 188.976 16.9232 188.964 17.1119Z" fill="#D84830"/>
<path d="M169.701 16.7723C168.393 16.6214 167.236 16.2377 166.23 15.6214C165.223 15.0051 164.437 14.2065 163.871 13.2254C163.318 12.2443 163.041 11.1249 163.041 9.86715C163.041 8.96156 163.255 8.0371 163.683 7.09378C164.123 6.15045 164.777 5.31404 165.645 4.58453C164.639 4.74804 163.632 4.92413 162.626 5.11279C161.633 5.30146 160.727 5.47755 159.909 5.64106C159.104 5.80456 158.482 5.94292 158.042 6.05612L157.532 3.62234C157.947 3.59718 158.52 3.54058 159.249 3.45254C159.991 3.3645 160.821 3.25759 161.739 3.13181C162.67 2.99345 163.626 2.84881 164.607 2.69788C165.601 2.53437 166.557 2.37086 167.475 2.20735C168.406 2.04384 169.236 1.88662 169.965 1.73569C170.707 1.57218 171.286 1.42753 171.701 1.30176L172.305 3.60347C172.103 3.61605 171.858 3.6412 171.569 3.67894C171.292 3.71667 170.978 3.76069 170.626 3.811C169.934 3.89905 169.273 4.11287 168.645 4.45246C168.016 4.79206 167.45 5.23228 166.947 5.77312C166.456 6.31396 166.066 6.93027 165.777 7.62204C165.488 8.31381 165.343 9.06218 165.343 9.86715C165.343 10.8356 165.588 11.6406 166.079 12.2821C166.569 12.9235 167.236 13.4266 168.079 13.7914C168.934 14.1436 169.89 14.3825 170.946 14.5083C170.758 14.697 170.575 14.936 170.399 15.2252C170.223 15.502 170.072 15.7787 169.946 16.0554C169.821 16.3447 169.739 16.5836 169.701 16.7723ZM172.984 8.11257C172.745 7.72266 172.424 7.3076 172.022 6.86738C171.632 6.42716 171.273 6.07498 170.946 5.81085L171.965 4.96186C172.154 5.11279 172.38 5.3329 172.644 5.62219C172.921 5.91147 173.191 6.20705 173.456 6.50891C173.72 6.7982 173.921 7.04975 174.059 7.26357L172.984 8.11257ZM171.286 9.54642C171.047 9.14394 170.732 8.72259 170.343 8.28237C169.953 7.84215 169.594 7.48368 169.267 7.20698L170.305 6.37685C170.494 6.52778 170.72 6.74789 170.984 7.03718C171.248 7.32646 171.506 7.62204 171.758 7.9239C172.022 8.22577 172.223 8.47732 172.361 8.67856L171.286 9.54642Z" fill="#D84830"/>
<path d="M144.25 17.5458C144.187 17.3949 144.087 17.2125 143.948 16.9987C143.81 16.7975 143.659 16.5899 143.496 16.3761C143.345 16.1749 143.2 16.0114 143.062 15.8856C144.03 15.5586 144.867 15.112 145.571 14.5461C146.275 13.9675 146.766 13.2568 147.043 12.4141H144.005V7.65978H147.269V6.56552H145.099V5.35806C144.885 5.52157 144.672 5.67879 144.458 5.82973C144.244 5.96808 144.043 6.09386 143.854 6.20706C143.766 6.05612 143.628 5.86746 143.439 5.64106C143.25 5.40208 143.062 5.18826 142.873 4.9996V5.18826H141.232V6.28252H142.873V7.92391H141.232V9.1691H143.458C143.458 9.88603 143.445 10.6407 143.42 11.4331C143.395 12.2129 143.351 12.955 143.288 13.6593C143.238 14.3511 143.162 14.9297 143.062 15.395C142.898 16.1371 142.621 16.6528 142.232 16.9421C141.854 17.244 141.263 17.3949 140.458 17.3949H139.477C139.464 17.1433 139.42 16.8226 139.345 16.4327C139.27 16.0554 139.188 15.7661 139.1 15.5648H140.137C140.515 15.5648 140.785 15.5082 140.949 15.395C141.112 15.2818 141.244 15.0114 141.345 14.5838C141.37 14.4832 141.395 14.3637 141.42 14.2253C141.445 14.0744 141.464 13.9172 141.477 13.7537C141.351 13.7914 141.213 13.8291 141.062 13.8669C140.924 13.9046 140.823 13.936 140.76 13.9612C140.71 13.5964 140.628 13.1625 140.515 12.6594C140.414 12.1563 140.307 11.7412 140.194 11.4142L141.156 11.1689C141.219 11.3325 141.282 11.54 141.345 11.7915C141.42 12.0431 141.49 12.3009 141.552 12.5651C141.565 12.2506 141.571 11.9425 141.571 11.6406C141.584 11.3262 141.59 11.0369 141.59 10.7728H136.534V0.7735H143.533V2.45262H141.232V3.54688H142.873V4.52794C143.452 4.21349 144.03 3.81101 144.609 3.32048C145.2 2.81737 145.734 2.28282 146.212 1.71682C146.69 1.13825 147.043 0.591123 147.269 0.0754395L148.816 0.377303C149.156 0.842677 149.596 1.31434 150.137 1.79229C150.69 2.27024 151.294 2.71046 151.948 3.11295C152.602 3.51543 153.25 3.84245 153.891 4.09401C153.652 4.33298 153.413 4.63485 153.174 4.9996C152.948 5.36435 152.791 5.66622 152.702 5.90519C152.489 5.80457 152.269 5.69137 152.042 5.56559C151.816 5.43982 151.589 5.30146 151.363 5.15053V6.56552H149.25V7.65978H152.627V12.4141H149.646C149.998 13.1814 150.558 13.848 151.325 14.414C152.105 14.98 152.935 15.4265 153.816 15.7535C153.677 15.8793 153.52 16.0491 153.344 16.2629C153.18 16.4893 153.023 16.7157 152.872 16.9421C152.734 17.1685 152.627 17.3572 152.552 17.5081C151.747 17.1433 150.979 16.6843 150.25 16.1308C149.533 15.5774 148.935 14.9108 148.458 14.131C148.005 14.9234 147.407 15.5963 146.665 16.1497C145.936 16.7031 145.131 17.1685 144.25 17.5458ZM145.778 4.81093H150.854C150.325 4.4336 149.822 4.02483 149.344 3.58461C148.866 3.14439 148.464 2.72304 148.137 2.32055C147.86 2.72304 147.514 3.14439 147.099 3.58461C146.684 4.01225 146.244 4.42103 145.778 4.81093ZM135.779 15.112C135.804 14.8353 135.817 14.502 135.817 14.1121C135.83 13.7096 135.83 13.3134 135.817 12.9235C135.817 12.521 135.798 12.1815 135.76 11.9047L137.062 11.7538C137.087 12.0179 137.106 12.3513 137.119 12.7537C137.144 13.1436 137.156 13.5398 137.156 13.9423C137.169 14.3448 137.175 14.697 137.175 14.9988C136.974 14.9863 136.741 14.9926 136.477 15.0177C136.226 15.0429 135.993 15.0743 135.779 15.112ZM137.609 14.6781C137.609 14.4517 137.597 14.1561 137.572 13.7914C137.546 13.4141 137.515 13.0493 137.477 12.6971C137.452 12.3324 137.421 12.0557 137.383 11.867L138.496 11.7161C138.546 11.9425 138.59 12.2318 138.628 12.5839C138.678 12.9235 138.716 13.2631 138.741 13.6027C138.779 13.9423 138.804 14.2316 138.817 14.4706C138.691 14.4832 138.496 14.5146 138.232 14.5649C137.968 14.6152 137.76 14.653 137.609 14.6781ZM139.232 14.3197C139.219 14.0807 139.188 13.7914 139.137 13.4518C139.1 13.1122 139.049 12.7789 138.987 12.4519C138.936 12.1249 138.88 11.8607 138.817 11.6595L139.873 11.4708C139.936 11.6972 139.999 11.9739 140.062 12.3009C140.125 12.628 140.181 12.955 140.232 13.282C140.282 13.5964 140.313 13.8669 140.326 14.0933C140.263 14.1058 140.156 14.131 140.005 14.1687C139.854 14.1939 139.703 14.2253 139.553 14.2631C139.402 14.2882 139.295 14.3071 139.232 14.3197ZM149.25 10.7162H150.759V9.35776H149.25V10.7162ZM145.873 10.7162H147.269V9.35776H145.873V10.7162ZM138.326 9.1691H139.553V7.92391H138.326V9.1691ZM138.326 6.28252H139.553V5.18826H138.326V6.28252ZM138.326 3.54688H139.553V2.45262H138.326V3.54688Z" fill="#D84830"/>
<path d="M125.044 17.4327V14.5838H122.874V12.3576H125.044V8.79182C124.629 9.45844 124.176 10.1251 123.686 10.7917C123.195 11.4457 122.698 12.0557 122.195 12.6217C121.705 13.1877 121.227 13.6782 120.761 14.0933C120.636 13.9424 120.478 13.7726 120.29 13.5839C120.101 13.3953 119.906 13.2192 119.705 13.0557V17.4138H117.46V8.15036C117.259 8.40191 117.057 8.64718 116.856 8.88616C116.667 9.11255 116.472 9.33266 116.271 9.54648C116.07 9.32008 115.812 9.0874 115.498 8.84842C115.196 8.59687 114.9 8.40191 114.611 8.26356C115.064 7.83592 115.523 7.2825 115.988 6.60331C116.454 5.92411 116.888 5.19461 117.29 4.41479C117.705 3.63498 118.057 2.88032 118.347 2.15081C118.648 1.42131 118.856 0.792422 118.969 0.26416L121.082 0.830155C120.931 1.40873 120.736 2.00617 120.497 2.62247C120.258 3.23878 119.994 3.85509 119.705 4.47139V12.0557C120.221 11.5652 120.768 10.974 121.346 10.2823C121.925 9.5905 122.472 8.87358 122.988 8.13149C123.503 7.37683 123.931 6.65991 124.271 5.98071H120.478V3.88653H125.044V0.283026H127.252V3.88653H132.138V5.98071H127.761C128.05 6.54671 128.409 7.13786 128.836 7.75416C129.277 8.37047 129.748 8.9742 130.251 9.56535C130.754 10.1565 131.251 10.7036 131.742 11.2067C132.232 11.6973 132.673 12.106 133.062 12.4331C132.899 12.5211 132.704 12.6595 132.478 12.8481C132.264 13.0368 132.05 13.238 131.836 13.4519C131.635 13.6531 131.471 13.8418 131.346 14.0178C130.692 13.4267 129.993 12.6846 129.251 11.7916C128.522 10.886 127.855 9.95526 127.252 8.99935V12.3576H129.327V14.5838H127.252V17.4327H125.044Z" fill="#D84830"/>
<path d="M101.536 14.1312C100.908 14.4834 100.316 14.628 99.763 14.5651C99.2095 14.4897 98.719 14.1312 98.2914 13.4898C97.9015 12.886 97.543 12.1754 97.216 11.3578C96.889 10.5403 96.606 9.67243 96.367 8.75426C96.1406 7.83609 95.9645 6.91792 95.8387 5.99975C95.7255 5.08158 95.6752 4.22001 95.6878 3.41504L97.9895 3.43391C97.9518 4.05021 97.9706 4.72312 98.0461 5.45262C98.1216 6.18213 98.2411 6.91792 98.4046 7.66C98.5681 8.40209 98.763 9.09386 98.9894 9.73532C99.2158 10.3642 99.4611 10.8925 99.7252 11.3201C99.9013 11.622 100.09 11.7981 100.291 11.8484C100.505 11.8861 100.731 11.8295 100.97 11.6786C101.272 11.4773 101.587 11.2006 101.914 10.8484C102.253 10.4963 102.536 10.1567 102.763 9.82965C102.826 10.0183 102.926 10.2321 103.065 10.4711C103.216 10.7101 103.373 10.9428 103.536 11.1692C103.712 11.3956 103.87 11.578 104.008 11.7163C103.668 12.2194 103.278 12.6848 102.838 13.1124C102.411 13.5401 101.977 13.8797 101.536 14.1312ZM108.668 10.6032C108.542 10.2384 108.347 9.78563 108.083 9.24479C107.819 8.70395 107.517 8.14425 107.178 7.56567C106.838 6.97452 106.498 6.43368 106.159 5.94315C105.819 5.44004 105.505 5.05014 105.215 4.77343L107.027 3.62257C107.341 3.93701 107.687 4.35837 108.064 4.88663C108.454 5.41489 108.831 5.98089 109.196 6.58461C109.574 7.17576 109.907 7.75434 110.196 8.32033C110.485 8.87375 110.693 9.34541 110.819 9.73532C110.429 9.81079 110.033 9.93027 109.63 10.0938C109.24 10.2573 108.92 10.4271 108.668 10.6032Z" fill="#D84830"/>
<path d="M78.4439 16.8856V11.4897C77.5257 12.3702 76.7522 13.2129 76.1233 14.0179L74.4064 12.4331C74.9347 12.0054 75.5447 11.4835 76.2365 10.8671C76.9283 10.2383 77.6641 9.61567 78.4439 8.99936V6.45238C77.8779 6.57816 77.3245 6.69764 76.7836 6.81084C76.2428 6.91147 75.8088 6.99322 75.4818 7.05611L75.0102 4.99966C75.3498 4.98708 75.8403 4.93048 76.4818 4.82986C77.1358 4.71666 77.7898 4.59717 78.4439 4.4714V0.943359H80.5569V3.92427C80.7204 3.88653 80.8399 3.84251 80.9154 3.7922L82.1228 4.69779L80.8399 7.26364C81.5694 6.82342 82.3052 6.45867 83.0473 6.16938C83.7894 5.8801 84.5063 5.73545 85.1981 5.73545C86.1917 5.73545 87.0722 5.92412 87.8394 6.30145C88.6066 6.6662 89.2041 7.19446 89.6317 7.88624C90.0719 8.56543 90.292 9.38927 90.292 10.3577C90.292 11.8042 89.7638 13.0368 88.7073 14.0556C87.6507 15.0744 86.0911 15.7724 84.0284 16.1498C83.978 15.9485 83.8837 15.7095 83.7454 15.4328C83.6196 15.1561 83.4749 14.8794 83.3114 14.6027C83.1479 14.326 82.9844 14.0996 82.8209 13.9235C83.8145 13.7977 84.7013 13.5965 85.4811 13.3198C86.2609 13.0305 86.8772 12.6469 87.33 12.1689C87.7828 11.6784 88.0092 11.0747 88.0092 10.3577C88.0092 9.46473 87.7639 8.80441 87.2734 8.37676C86.7829 7.93655 86.0911 7.71644 85.1981 7.71644C84.5063 7.71644 83.7579 7.9051 82.953 8.28243C82.148 8.65976 81.3493 9.144 80.5569 9.73515V16.8856H78.4439Z" fill="#D84830"/>
<path d="M62.7092 17.4702V11.4518C62.1432 12.0807 61.5143 12.6907 60.8225 13.2818C60.1433 13.8604 59.4579 14.3887 58.7661 14.8666C58.0743 15.332 57.4328 15.7156 56.8417 16.0175C56.7537 15.854 56.6279 15.6653 56.4644 15.4515C56.3009 15.2251 56.1248 15.0113 55.9361 14.81C55.7474 14.5962 55.5714 14.439 55.4078 14.3384C55.9613 14.0994 56.5461 13.7912 57.1624 13.4139C57.7787 13.0366 58.3888 12.6215 58.9925 12.1687C59.6088 11.7033 60.1811 11.2254 60.7093 10.7349C61.2376 10.2318 61.6841 9.74122 62.0489 9.26327H58.7472V11.7536H53.3137V2.49019H58.7472V7.22569H62.7092V5.11264H59.483V3.13165H62.7092V0.188477H64.8977V3.13165H68.6899V5.11264H64.8977V7.22569H70.0483V9.26327H65.3128C65.6398 9.72864 66.036 10.2003 66.5014 10.6783C66.9667 11.1562 67.4573 11.6216 67.9729 12.0744C68.5012 12.5146 69.0169 12.9171 69.52 13.2818C70.0231 13.634 70.4759 13.917 70.8784 14.1308C70.7023 14.2566 70.5073 14.4264 70.2935 14.6402C70.0797 14.8415 69.8847 15.049 69.7087 15.2628C69.5326 15.4766 69.3942 15.6653 69.2936 15.8288C68.5892 15.376 67.8409 14.7849 67.0485 14.0554C66.2561 13.3259 65.5392 12.5398 64.8977 11.6971V17.4702H62.7092ZM55.3324 9.6972H56.7285V4.52777H55.3324V9.6972Z" fill="#D84830"/>
<path d="M42.2956 17.0366C41.2642 17.0366 40.3335 16.936 39.5034 16.7347C38.6732 16.5335 38.0192 16.2127 37.5412 15.7725C37.0633 15.3197 36.8243 14.7286 36.8243 13.9991C36.8243 13.3953 37.0067 12.8482 37.3714 12.3577C37.7362 11.8546 38.2393 11.4018 38.8808 10.9993C39.5222 10.5842 40.2517 10.2069 41.0693 9.86731V9.71638C41.0693 9.27616 40.9561 8.95543 40.7297 8.75419C40.5159 8.54037 40.2391 8.42088 39.8995 8.39572C39.321 8.35799 38.7676 8.43975 38.2393 8.64099C37.711 8.84223 37.1891 9.20698 36.6734 9.73525C36.5224 9.88618 36.3275 10.0811 36.0885 10.3201C35.8495 10.5465 35.6106 10.7729 35.3716 10.9993C35.1326 11.2257 34.9251 11.4144 34.749 11.5653L33.1076 9.94278C33.988 9.3642 34.8182 8.6347 35.598 7.75426C36.3778 6.87382 37.0381 5.93679 37.579 4.94315C36.8746 4.96831 36.2332 4.99346 35.6546 5.01862C35.076 5.0312 34.6421 5.0312 34.3528 5.01862L34.2773 2.84897C34.705 2.8867 35.2961 2.90557 36.0508 2.90557C36.818 2.90557 37.6481 2.8867 38.5412 2.84897C38.8304 2.01884 38.994 1.23903 39.0317 0.509521L41.2768 0.62272C41.2391 1.28934 41.1133 1.98111 40.8995 2.69804C41.8302 2.62257 42.6918 2.54082 43.4842 2.45277C44.2892 2.35215 44.9055 2.23895 45.3331 2.11317L45.4652 4.20736C45.113 4.27025 44.6539 4.33942 44.0879 4.41489C43.5219 4.47778 42.893 4.54067 42.2013 4.60355C41.5221 4.66644 40.824 4.72304 40.1071 4.77335C39.9436 5.12553 39.7549 5.48399 39.5411 5.84874C39.3398 6.20092 39.126 6.54052 38.8996 6.86754C39.4027 6.66629 39.9121 6.56567 40.4278 6.56567C41.1699 6.56567 41.7925 6.76063 42.2956 7.15053C42.8113 7.54044 43.132 8.1819 43.2578 9.07492C43.9621 8.83594 44.6791 8.62212 45.4086 8.43346C46.1507 8.23221 46.8676 8.04984 47.5594 7.88633L48.2008 9.96164C47.3204 10.0874 46.4651 10.2446 45.635 10.4333C44.8048 10.6094 44.0313 10.8106 43.3144 11.037V13.5463H41.0881V11.886C40.4593 12.1879 39.9561 12.5023 39.5788 12.8294C39.2015 13.1438 39.0128 13.4457 39.0128 13.7349C39.0128 14.1626 39.2707 14.4645 39.7864 14.6405C40.302 14.804 41.0881 14.8858 42.1447 14.8858C42.5723 14.8858 43.0503 14.8606 43.5785 14.8103C44.1194 14.7475 44.6539 14.672 45.1822 14.5839C45.723 14.4833 46.1947 14.3764 46.5972 14.2632C46.572 14.4267 46.5469 14.6657 46.5217 14.9801C46.5091 15.282 46.5028 15.5839 46.5028 15.8857C46.5028 16.1876 46.5091 16.414 46.5217 16.5649C45.9054 16.7159 45.2136 16.8291 44.4464 16.9045C43.6791 16.9926 42.9622 17.0366 42.2956 17.0366Z" fill="#D84830"/>
<path d="M21.9952 17.4515C21.9701 17.1245 21.9072 16.7283 21.8066 16.2629C21.706 15.8101 21.5928 15.4454 21.467 15.1686H23.3159C23.7435 15.1686 24.0831 15.112 24.3347 14.9988C24.5988 14.8856 24.8064 14.6781 24.9573 14.3763C25.1082 14.0618 25.234 13.6153 25.3346 13.0367C25.5484 11.867 25.6554 9.50241 25.6554 5.94292V4.7166H16.0712C15.9454 4.95558 15.807 5.20084 15.6561 5.45239C15.5052 5.69137 15.3542 5.92406 15.2033 6.15045H22.6556V14.3197H15.109V6.30139C14.782 6.79192 14.4424 7.25729 14.0902 7.69751C13.7506 8.12515 13.411 8.50248 13.0714 8.8295C12.933 8.67857 12.7444 8.51506 12.5054 8.33897C12.2664 8.15031 12.0212 7.98051 11.7696 7.82957C11.5306 7.67864 11.3231 7.57173 11.147 7.50884C11.5998 7.13151 12.0589 6.6347 12.5243 6.01839C12.9896 5.38951 13.4299 4.71031 13.8449 3.98081C14.2726 3.2513 14.6436 2.54695 14.958 1.86776C15.2725 1.17599 15.4989 0.578546 15.6372 0.0754395L17.8635 0.698034C17.7754 0.987321 17.6685 1.29547 17.5428 1.62249C17.4296 1.94951 17.2912 2.28911 17.1277 2.64128H27.9193V5.94292C27.9193 7.64091 27.8879 9.10621 27.825 10.3388C27.7747 11.5714 27.6992 12.5776 27.5986 13.3575C27.4728 14.4014 27.2338 15.2252 26.8817 15.829C26.5421 16.4201 26.0893 16.8352 25.5233 17.0742C24.9573 17.3257 24.2781 17.4515 23.4857 17.4515H21.9952ZM17.2786 12.4707H20.4859V11.0557H17.2786V12.4707ZM17.2786 9.41436H20.4859V8.01824H17.2786V9.41436Z" fill="#D84830"/>
<path d="M2.73564 2.396L3.33937 3.43365C2.71049 3.59716 2.20109 3.89274 1.81119 4.32038C1.43386 4.73544 1.24519 5.17566 1.24519 5.64104C1.24519 5.7165 1.25148 5.78568 1.26406 5.84857C1.27663 5.91146 1.28921 5.96806 1.30179 6.01837C1.42757 5.84228 1.58479 5.70393 1.77345 5.6033C1.96212 5.4901 2.15707 5.4335 2.35831 5.4335C2.71049 5.4335 3.01235 5.55299 3.26391 5.79197C3.51546 6.01837 3.64124 6.33281 3.64124 6.73529C3.64124 7.1252 3.49659 7.43336 3.20731 7.65975C2.91802 7.88615 2.57213 8.00564 2.16965 8.01822C1.55334 8.0308 1.03766 7.81069 0.622595 7.35789C0.207532 6.89252 0 6.29508 0 5.56557C0 4.79833 0.251553 4.15058 0.75466 3.62232C1.25777 3.08148 1.9181 2.67271 2.73564 2.396ZM7.11268 2.396L7.69754 3.43365C7.08123 3.59716 6.57812 3.89274 6.18822 4.32038C5.81089 4.73544 5.62222 5.17566 5.62222 5.64104C5.62222 5.7165 5.62222 5.78568 5.62222 5.84857C5.6348 5.91146 5.64738 5.96806 5.65995 6.01837C5.79831 5.84228 5.95553 5.70393 6.13162 5.6033C6.32028 5.4901 6.51524 5.4335 6.71648 5.4335C7.08123 5.4335 7.38938 5.55299 7.64094 5.79197C7.89249 6.01837 8.01827 6.33281 8.01827 6.73529C8.01827 7.1252 7.86734 7.43336 7.56547 7.65975C7.27619 7.88615 6.9303 8.00564 6.52781 8.01822C5.91151 8.0308 5.39582 7.81069 4.98076 7.35789C4.57827 6.89252 4.37703 6.29508 4.37703 5.56557C4.37703 4.79833 4.6223 4.15058 5.11283 3.62232C5.61593 3.08148 6.28255 2.67271 7.11268 2.396Z" fill="#D84830"/>
</svg>
