<svg width="1019" height="31" viewBox="0 0 1019 31" fill="none" xmlns="http://www.w3.org/2000/svg">
<path d="M991.431 29.504L989.863 27.904L1017.16 0.511963L1018.76 2.11196L991.431 29.504Z" fill="#D84830"/>
<path d="M958.655 25.3439L956.575 23.6799C956.617 23.3385 956.638 22.6345 956.638 21.5679C956.66 20.5012 956.671 19.2319 956.671 17.7599C956.692 16.2879 956.703 14.7945 956.703 13.2799C956.703 11.4025 956.692 9.77054 956.671 8.38387C956.649 6.99721 956.617 5.90921 956.575 5.11987H960.671C960.628 5.50387 960.596 6.12254 960.575 6.97587C960.553 7.80787 960.532 8.76787 960.51 9.85587C960.51 10.9439 960.51 12.0319 960.51 13.1199V20.0959C961.428 19.7119 962.409 19.2425 963.455 18.6879C964.521 18.1332 965.567 17.5465 966.591 16.9279C967.636 16.3092 968.585 15.7012 969.439 15.1039C970.292 14.5065 970.964 13.9625 971.455 13.4719C971.455 13.8772 971.487 14.3785 971.551 14.9759C971.636 15.5732 971.721 16.1492 971.807 16.7039C971.913 17.2372 971.998 17.6212 972.062 17.8559C971.359 18.4532 970.431 19.1145 969.279 19.8399C968.148 20.5652 966.932 21.2799 965.63 21.9839C964.329 22.6879 963.06 23.3385 961.823 23.9359C960.607 24.5332 959.551 25.0025 958.655 25.3439ZM944.799 26.0799C944.521 25.6105 944.105 25.0772 943.551 24.4799C942.996 23.8825 942.484 23.4025 942.015 23.0399C943.785 22.1012 945.204 21.0772 946.271 19.9679C947.359 18.8585 948.148 17.6319 948.638 16.2879C949.129 14.9225 949.396 13.4079 949.439 11.7439C949.481 10.0799 949.364 8.23454 949.086 6.20787L952.831 5.88787C953.279 9.08787 953.321 11.9465 952.958 14.4639C952.617 16.9599 951.785 19.1572 950.463 21.0559C949.14 22.9545 947.252 24.6292 944.799 26.0799Z" fill="#D84830"/>
<path d="M908.671 17.1199C908.692 16.8212 908.703 16.4159 908.703 15.9039C908.703 15.3919 908.703 14.8799 908.703 14.3679C908.703 13.8559 908.692 13.4505 908.671 13.1519C909.076 13.1732 909.791 13.1945 910.815 13.2159C911.86 13.2372 913.097 13.2585 914.527 13.2799C915.977 13.3012 917.524 13.3225 919.167 13.3439C920.809 13.3439 922.452 13.3439 924.095 13.3439C925.737 13.3439 927.284 13.3332 928.735 13.3119C930.207 13.2905 931.476 13.2692 932.543 13.2479C933.609 13.2265 934.367 13.1945 934.815 13.1519C934.793 13.4292 934.772 13.8239 934.751 14.3359C934.751 14.8479 934.751 15.3705 934.751 15.9039C934.772 16.4159 934.783 16.8105 934.783 17.0879C934.249 17.0665 933.46 17.0452 932.415 17.0239C931.391 17.0025 930.185 16.9812 928.799 16.9599C927.433 16.9385 925.972 16.9279 924.415 16.9279C922.879 16.9279 921.321 16.9279 919.743 16.9279C918.164 16.9279 916.66 16.9385 915.231 16.9599C913.801 16.9812 912.511 17.0025 911.359 17.0239C910.228 17.0452 909.332 17.0772 908.671 17.1199Z" fill="#D84830"/>
<path d="M876.446 24.4478V21.4398C876.766 21.4612 877.289 21.4825 878.014 21.5038C878.74 21.5038 879.582 21.5145 880.542 21.5358C881.502 21.5358 882.516 21.5358 883.583 21.5358C884.649 21.5358 885.684 21.5358 886.686 21.5358H887.935L888.67 15.7438C888.009 15.7652 887.241 15.7865 886.367 15.8078C885.513 15.8292 884.671 15.8505 883.839 15.8718C883.007 15.8932 882.26 15.9145 881.599 15.9358C880.959 15.9572 880.511 15.9785 880.255 15.9998L880.062 12.8958C880.383 12.9172 880.958 12.9385 881.79 12.9598C882.644 12.9598 883.604 12.9598 884.67 12.9598C885.758 12.9385 886.825 12.9172 887.87 12.8958C888.937 12.8745 889.865 12.8532 890.654 12.8318C891.465 12.7892 891.999 12.7572 892.255 12.7358L891.167 21.5038C892.404 21.5038 893.513 21.5038 894.495 21.5038C895.476 21.4825 896.137 21.4612 896.479 21.4398V24.4478C896.116 24.4052 895.422 24.3838 894.398 24.3838C893.374 24.3625 892.18 24.3518 890.815 24.3518C889.449 24.3305 888.073 24.3198 886.686 24.3198C885.854 24.3198 884.905 24.3198 883.839 24.3198C882.793 24.3198 881.758 24.3305 880.734 24.3518C879.71 24.3518 878.804 24.3625 878.014 24.3838C877.246 24.4052 876.724 24.4265 876.446 24.4478Z" fill="#D84830"/>
<path d="M843.487 27.264L841.311 23.328C842.847 22.9867 844.447 22.4533 846.111 21.728C847.796 20.9813 849.471 20.1173 851.135 19.136C852.799 18.1333 854.388 17.0667 855.903 15.936C857.417 14.784 858.783 13.632 859.999 12.48C861.215 11.3067 862.207 10.1867 862.975 9.12C863.06 9.504 863.199 9.96266 863.391 10.496C863.604 11.0293 863.828 11.5413 864.063 12.032C864.297 12.5227 864.5 12.9067 864.671 13.184C863.604 14.528 862.281 15.8827 860.703 17.248C859.145 18.6133 857.428 19.936 855.551 21.216C853.673 22.4747 851.7 23.6267 849.631 24.672C847.583 25.7173 845.535 26.5813 843.487 27.264ZM849.439 10.272C849.183 10.016 848.788 9.70667 848.255 9.344C847.743 8.98133 847.167 8.608 846.527 8.224C845.908 7.81866 845.311 7.456 844.735 7.136C844.18 6.816 843.721 6.58133 843.359 6.432L845.535 3.104C845.961 3.31733 846.463 3.60533 847.039 3.968C847.636 4.33066 848.233 4.71466 848.831 5.12C849.449 5.504 850.015 5.87733 850.527 6.24C851.06 6.60266 851.476 6.90133 851.775 7.136L849.439 10.272ZM845.023 16.896C844.617 16.5547 844.02 16.1707 843.231 15.744C842.463 15.3173 841.663 14.912 840.831 14.528C840.02 14.1227 839.327 13.824 838.751 13.632L840.735 10.176C841.353 10.4107 842.068 10.7307 842.879 11.136C843.711 11.5413 844.511 11.9573 845.279 12.384C846.047 12.8107 846.655 13.184 847.103 13.504L845.023 16.896ZM862.719 5.696C862.271 5.07733 861.684 4.40533 860.959 3.68C860.255 2.95466 859.625 2.38933 859.071 1.984L860.703 0.447998C861.044 0.682664 861.449 1.03466 861.919 1.504C862.409 1.952 862.889 2.42133 863.359 2.912C863.828 3.38133 864.191 3.78666 864.447 4.128L862.719 5.696ZM859.999 8.288C859.551 7.648 858.975 6.96533 858.271 6.24C857.567 5.51466 856.937 4.93866 856.383 4.512L858.015 2.976C858.335 3.232 858.729 3.59466 859.199 4.064C859.689 4.53333 860.169 5.01333 860.639 5.504C861.108 5.97333 861.471 6.37866 861.727 6.72L859.999 8.288Z" fill="#D84830"/>
<path d="M811.71 28.768C811.39 28.2773 810.942 27.7226 810.366 27.104C809.79 26.4853 809.257 26.016 808.766 25.696C811.433 24.288 813.46 22.528 814.846 20.416C816.233 18.2826 817.033 15.7973 817.246 12.96H811.102C810.313 13.9413 809.481 14.848 808.606 15.68C807.732 16.512 806.804 17.2693 805.822 17.952C805.481 17.5466 805.022 17.0666 804.446 16.512C803.87 15.9573 803.337 15.5413 802.846 15.264C804.425 14.24 805.844 13.0026 807.102 11.552C808.361 10.1013 809.438 8.53331 810.334 6.84797C811.252 5.16264 811.934 3.48797 812.382 1.82397L816.254 2.97598C815.934 4.06397 815.55 5.13064 815.102 6.17598C814.676 7.19998 814.185 8.20264 813.63 9.18398H828.958V12.96H821.246C821.033 16.4373 820.126 19.4773 818.526 22.08C816.948 24.6826 814.676 26.912 811.71 28.768Z" fill="#D84830"/>
<path d="M770.559 26.7519C770.281 26.2825 769.908 25.7172 769.439 25.0559C768.991 24.3945 768.532 23.8719 768.062 23.4879C769.663 22.7839 771.262 21.9092 772.862 20.8639C774.462 19.8185 775.988 18.6452 777.439 17.3439C778.911 16.0212 780.244 14.6345 781.439 13.1839C782.655 11.7119 783.678 10.2185 784.51 8.70388C783.465 8.76788 782.313 8.84254 781.055 8.92788C779.817 9.01321 778.58 9.09854 777.343 9.18388C776.127 9.24788 775.017 9.32254 774.015 9.40788C773.033 9.47188 772.276 9.52521 771.742 9.56788L771.294 5.50388C771.828 5.50388 772.628 5.49321 773.695 5.47188C774.761 5.45054 775.956 5.41854 777.279 5.37588C778.601 5.31188 779.913 5.24788 781.215 5.18388C782.537 5.11988 783.721 5.04521 784.767 4.95988C785.833 4.85321 786.623 4.75721 787.135 4.67188L789.727 6.33588C789.215 7.82921 788.553 9.30121 787.742 10.7519C786.932 12.1812 786.015 13.5572 784.991 14.8799C785.737 15.4559 786.527 16.1065 787.359 16.8319C788.212 17.5572 789.044 18.3039 789.854 19.0719C790.665 19.8399 791.412 20.5759 792.095 21.2799C792.777 21.9839 793.343 22.6132 793.791 23.1679C793.257 23.5092 792.692 23.9572 792.095 24.5119C791.497 25.0452 790.974 25.5572 790.526 26.0479C790.121 25.4719 789.598 24.8212 788.958 24.0959C788.318 23.3492 787.625 22.6025 786.879 21.8559C786.153 21.0879 785.417 20.3519 784.671 19.6479C783.924 18.9225 783.22 18.2825 782.559 17.7279C780.788 19.6265 778.868 21.3439 776.799 22.8799C774.729 24.4159 772.649 25.7065 770.559 26.7519Z" fill="#D84830"/>
<path d="M753.151 29.4078C753.129 29.0665 753.076 28.6612 752.991 28.1918C752.905 27.7438 752.809 27.3065 752.703 26.8798C752.596 26.4318 752.479 26.0692 752.351 25.7918H754.495C754.921 25.7918 755.231 25.7172 755.423 25.5678C755.615 25.4185 755.711 25.1625 755.711 24.7998V12.0638H746.847V1.18384H759.423V26.1758C759.423 27.2852 759.124 28.0958 758.527 28.6078C757.951 29.1412 757.001 29.4078 755.679 29.4078H753.151ZM732.095 29.4398V1.18384H744.607V12.0638H735.775V29.4398H732.095ZM739.647 26.2078V14.0798H751.871V26.2078H739.647ZM743.071 23.4238H748.479V21.3758H743.071V23.4238ZM743.071 18.8798H748.479V16.8638H743.071V18.8798ZM750.431 9.37584H755.711V7.77584H750.431V9.37584ZM735.775 9.37584H741.023V7.77584H735.775V9.37584ZM750.431 5.47184H755.711V3.90384H750.431V5.47184ZM735.775 5.47184H741.023V3.90384H735.775V5.47184Z" fill="#D84830"/>
<path d="M710.302 29.5679V22.6239H695.87V19.2959H701.279V11.3599H710.302V7.58395H703.807C703.039 8.79995 702.206 9.95195 701.31 11.0399C700.436 12.1066 699.518 13.0773 698.558 13.9519C698.217 13.5893 697.769 13.1839 697.214 12.7359C696.681 12.2879 696.116 11.9146 695.518 11.6159C696.692 10.6559 697.801 9.52528 698.846 8.22395C699.892 6.90128 700.798 5.53595 701.566 4.12795C702.356 2.69861 702.942 1.35461 703.326 0.0959473L706.943 1.21595C706.58 2.21861 706.164 3.19995 705.695 4.15995H723.678V7.58395H714.271V11.3599H721.406V14.6879H714.271V19.2959H725.055V22.6239H714.271V29.5679H710.302ZM705.214 19.2959H710.302V14.6879H705.214V19.2959Z" fill="#D84830"/>
<path d="M666.423 27.2001C666.231 27.2001 666.071 27.136 665.943 27.008C665.815 26.8587 665.751 26.6881 665.751 26.4961C665.751 26.4107 665.772 26.3147 665.815 26.208L673.527 8.60805H663.479C663.244 8.60805 663.052 8.53338 662.903 8.38405C662.775 8.23472 662.711 8.05338 662.711 7.84005V5.60005C662.711 5.36538 662.775 5.17338 662.903 5.02405C663.052 4.87472 663.244 4.80005 663.479 4.80005H677.527C677.761 4.80005 677.943 4.87472 678.071 5.02405C678.22 5.17338 678.295 5.36538 678.295 5.60005V7.58405C678.295 7.88272 678.263 8.13872 678.199 8.35205C678.156 8.54405 678.092 8.74672 678.007 8.96005L670.359 26.432C670.295 26.5814 670.177 26.752 670.007 26.944C669.857 27.1147 669.633 27.2001 669.335 27.2001H666.423Z" fill="#D84830"/>
<path d="M649.76 27.5201C647.925 27.5201 646.346 27.1787 645.023 26.4961C643.701 25.7921 642.677 24.8534 641.952 23.68C641.226 22.4854 640.864 21.1521 640.864 19.68C640.864 19.0187 640.949 18.3787 641.12 17.76C641.29 17.1414 641.514 16.5547 641.792 16C642.069 15.4454 642.335 14.9547 642.591 14.528C642.869 14.08 643.114 13.728 643.328 13.472L649.184 5.44005C649.269 5.33338 649.397 5.20538 649.568 5.05605C649.738 4.88538 649.973 4.80005 650.271 4.80005H653.247C653.439 4.80005 653.6 4.87472 653.728 5.02405C653.856 5.15205 653.919 5.31205 653.919 5.50405C653.919 5.58938 653.898 5.67472 653.856 5.76005C653.834 5.82405 653.802 5.87738 653.76 5.92005L649.28 12.128C649.472 12.064 649.696 12.0214 649.952 12C650.208 11.9787 650.442 11.9681 650.656 11.9681C651.722 11.9894 652.735 12.2027 653.695 12.608C654.655 12.992 655.498 13.5254 656.224 14.208C656.949 14.8907 657.514 15.6907 657.919 16.608C658.346 17.5254 658.56 18.5281 658.56 19.6161C658.56 21.0241 658.208 22.3361 657.504 23.5521C656.8 24.7467 655.786 25.7067 654.464 26.432C653.162 27.1574 651.594 27.5201 649.76 27.5201ZM649.728 23.84C650.496 23.84 651.2 23.6801 651.84 23.3601C652.501 23.0401 653.034 22.5707 653.44 21.952C653.845 21.3334 654.047 20.5654 654.047 19.6481C654.047 18.7521 653.845 17.9947 653.44 17.376C653.034 16.7574 652.501 16.288 651.84 15.9681C651.2 15.648 650.496 15.488 649.728 15.488C648.96 15.488 648.245 15.648 647.583 15.9681C646.943 16.288 646.421 16.7574 646.016 17.376C645.61 17.9947 645.408 18.7521 645.408 19.6481C645.408 20.5654 645.61 21.3334 646.016 21.952C646.421 22.5707 646.943 23.0401 647.583 23.3601C648.245 23.6801 648.96 23.84 649.728 23.84Z" fill="#D84830"/>
<path d="M610.357 27.1999C610.143 27.1999 609.962 27.1252 609.813 26.9759C609.663 26.8266 609.589 26.6452 609.589 26.4319V11.3279C609.589 11.1146 609.663 10.9332 609.813 10.7839C609.962 10.6346 610.143 10.5599 610.357 10.5599H612.853C613.066 10.5599 613.247 10.6346 613.397 10.7839C613.546 10.9332 613.621 11.1146 613.621 11.3279V12.4159C614.069 11.8186 614.666 11.3172 615.413 10.9119C616.181 10.4852 617.087 10.2612 618.133 10.2399C620.565 10.1972 622.261 11.1466 623.221 13.0879C623.711 12.2346 624.415 11.5519 625.333 11.0399C626.271 10.5066 627.306 10.2399 628.437 10.2399C629.546 10.2399 630.549 10.4959 631.445 11.0079C632.362 11.5199 633.077 12.2986 633.589 13.3439C634.122 14.3679 634.389 15.6692 634.389 17.2479V26.4319C634.389 26.6452 634.314 26.8266 634.165 26.9759C634.015 27.1252 633.834 27.1999 633.621 27.1999H630.997C630.783 27.1999 630.602 27.1252 630.453 26.9759C630.303 26.8266 630.229 26.6452 630.229 26.4319V17.5039C630.229 16.5439 630.09 15.7866 629.813 15.2319C629.535 14.6559 629.162 14.2506 628.693 14.0159C628.223 13.7812 627.701 13.6639 627.125 13.6639C626.655 13.6639 626.186 13.7812 625.717 14.0159C625.247 14.2506 624.863 14.6559 624.565 15.2319C624.266 15.7866 624.117 16.5439 624.117 17.5039V26.4319C624.117 26.6452 624.042 26.8266 623.893 26.9759C623.743 27.1252 623.562 27.1999 623.349 27.1999H620.725C620.49 27.1999 620.298 27.1252 620.149 26.9759C620.021 26.8266 619.957 26.6452 619.957 26.4319V17.5039C619.957 16.5439 619.807 15.7866 619.509 15.2319C619.21 14.6559 618.826 14.2506 618.357 14.0159C617.887 13.7812 617.386 13.6639 616.853 13.6639C616.362 13.6639 615.882 13.7919 615.413 14.0479C614.943 14.2826 614.559 14.6772 614.261 15.2319C613.962 15.7866 613.813 16.5439 613.813 17.5039V26.4319C613.813 26.6452 613.738 26.8266 613.589 26.9759C613.439 27.1252 613.258 27.1999 613.045 27.1999H610.357Z" fill="#D84830"/>
<path d="M593.813 27.2001C593.599 27.2001 593.418 27.1254 593.269 26.9761C593.119 26.8267 593.045 26.6454 593.045 26.4321V11.3601C593.045 11.1254 593.119 10.9334 593.269 10.7841C593.418 10.6347 593.599 10.5601 593.813 10.5601H596.405C596.618 10.5601 596.799 10.6347 596.949 10.7841C597.119 10.9334 597.205 11.1254 597.205 11.3601V12.6721C597.695 11.9894 598.325 11.4667 599.093 11.1041C599.882 10.7414 600.789 10.5601 601.813 10.5601H603.125C603.359 10.5601 603.541 10.6347 603.669 10.7841C603.818 10.9334 603.893 11.1147 603.893 11.3281V13.6321C603.893 13.8454 603.818 14.0267 603.669 14.1761C603.541 14.3254 603.359 14.4001 603.125 14.4001H600.629C599.605 14.4001 598.805 14.6881 598.229 15.2641C597.674 15.8401 597.397 16.6294 597.397 17.6321V26.4321C597.397 26.6454 597.322 26.8267 597.173 26.9761C597.023 27.1254 596.831 27.2001 596.597 27.2001H593.813Z" fill="#D84830"/>
<path d="M576.396 27.52C575.286 27.52 574.284 27.3067 573.388 26.88C572.492 26.432 571.777 25.8453 571.244 25.12C570.732 24.3733 570.476 23.5413 570.476 22.624C570.476 21.1307 571.073 19.9467 572.268 19.072C573.484 18.176 575.084 17.5787 577.068 17.28L581.452 16.64V15.968C581.452 15.072 581.228 14.3787 580.78 13.888C580.332 13.3973 579.564 13.152 578.476 13.152C577.708 13.152 577.078 13.312 576.588 13.632C576.118 13.9307 575.766 14.336 575.532 14.848C575.361 15.1253 575.116 15.264 574.796 15.264H572.268C572.033 15.264 571.852 15.2 571.724 15.072C571.617 14.944 571.564 14.7733 571.564 14.56C571.585 14.2187 571.724 13.8027 571.98 13.312C572.236 12.8213 572.641 12.352 573.196 11.904C573.75 11.4347 574.465 11.04 575.34 10.72C576.214 10.4 577.27 10.24 578.508 10.24C579.852 10.24 580.982 10.4107 581.9 10.752C582.838 11.072 583.585 11.5093 584.14 12.064C584.694 12.6187 585.1 13.2693 585.356 14.016C585.612 14.7627 585.74 15.552 585.74 16.384V26.432C585.74 26.6453 585.665 26.8267 585.516 26.976C585.366 27.1253 585.185 27.2 584.972 27.2H582.38C582.145 27.2 581.953 27.1253 581.804 26.976C581.676 26.8267 581.612 26.6453 581.612 26.432V25.184C581.334 25.5893 580.961 25.9733 580.492 26.336C580.022 26.6773 579.446 26.9653 578.764 27.2C578.102 27.4133 577.313 27.52 576.396 27.52ZM577.484 24.48C578.23 24.48 578.902 24.32 579.5 24C580.118 23.68 580.598 23.1893 580.94 22.528C581.302 21.8453 581.484 20.992 581.484 19.968V19.296L578.284 19.808C577.025 20 576.086 20.3093 575.468 20.736C574.849 21.1627 574.54 21.6853 574.54 22.304C574.54 22.7733 574.678 23.1787 574.956 23.52C575.254 23.84 575.628 24.0853 576.076 24.256C576.524 24.4053 576.993 24.48 577.484 24.48Z" fill="#D84830"/>
<path d="M557.991 27.2V14.912H555.079V11.808H557.991V9.05598C557.991 7.15732 558.428 5.84532 559.303 5.11998C560.178 4.39465 561.426 4.03198 563.047 4.03198C563.559 4.03198 564.071 4.06398 564.583 4.12798C565.116 4.19198 565.543 4.26665 565.863 4.35198V7.61598C565.564 7.50932 565.234 7.42398 564.871 7.35998C564.53 7.27465 564.178 7.23198 563.815 7.23198C563.09 7.23198 562.535 7.41332 562.151 7.77598C561.767 8.11732 561.575 8.69332 561.575 9.50398V11.808H565.863V14.912H561.575V27.2H557.991Z" fill="#D84830"/>
<path d="M531.399 24.16V8.896H536.423C536.487 8.61867 536.551 8.33067 536.615 8.032C536.679 7.712 536.732 7.41333 536.775 7.136H529.095V4.032H533.671C533.394 3.54133 533.106 3.05067 532.807 2.56C532.508 2.06933 532.242 1.664 532.007 1.344L535.239 0.0319996C535.602 0.501333 536.007 1.13067 536.455 1.92C536.924 2.70933 537.308 3.41333 537.607 4.032H540.327C540.626 3.43467 540.946 2.752 541.287 1.984C541.65 1.19467 541.906 0.533333 542.055 0L545.799 0.927999C545.628 1.33333 545.394 1.824 545.095 2.4C544.818 2.95467 544.53 3.49867 544.231 4.032H549.223V7.136H540.775C540.711 7.41333 540.647 7.712 540.583 8.032C540.519 8.33067 540.455 8.61867 540.391 8.896H547.239V24.16H531.399ZM538.375 29.12C536.114 29.12 534.247 29.0027 532.775 28.768C531.324 28.5547 530.13 28.2133 529.191 27.744C528.274 27.296 527.474 26.7307 526.791 26.048C526.407 26.3467 525.884 26.688 525.223 27.072C524.583 27.4347 523.932 27.7973 523.271 28.16C522.61 28.5227 522.055 28.832 521.607 29.088L520.135 25.472C520.498 25.344 520.988 25.1627 521.607 24.928C522.226 24.6933 522.844 24.448 523.463 24.192C524.082 23.9147 524.551 23.6693 524.871 23.456V15.36H520.775V12.032H528.359V22.976C528.615 23.6587 529.116 24.2133 529.863 24.64C530.61 25.0453 531.676 25.344 533.063 25.536C534.45 25.7067 536.22 25.792 538.375 25.792C541.106 25.792 543.452 25.7493 545.415 25.664C547.378 25.5787 548.967 25.4507 550.183 25.28C550.076 25.5147 549.959 25.8773 549.831 26.368C549.703 26.8373 549.596 27.3173 549.511 27.808C549.426 28.32 549.372 28.736 549.351 29.056C548.754 29.056 547.975 29.056 547.015 29.056C546.055 29.0773 545.031 29.088 543.943 29.088C542.876 29.1093 541.852 29.12 540.871 29.12C539.89 29.12 539.058 29.12 538.375 29.12ZM526.023 8.192C525.66 7.65867 525.202 7.08267 524.647 6.464C524.092 5.84533 523.506 5.248 522.887 4.672C522.29 4.096 521.714 3.616 521.159 3.232L523.719 0.864C524.231 1.20533 524.807 1.664 525.447 2.24C526.087 2.816 526.706 3.41333 527.303 4.032C527.9 4.62933 528.38 5.16267 528.743 5.632C528.53 5.78133 528.242 6.02667 527.879 6.368C527.516 6.688 527.164 7.01867 526.823 7.36C526.482 7.70133 526.215 7.97867 526.023 8.192ZM535.111 21.472H543.495V19.808H535.111V21.472ZM535.111 17.312H543.495V15.68H535.111V17.312ZM535.111 13.184H543.495V11.584H535.111V13.184Z" fill="#D84830"/>
<path d="M488.647 29.536V16.896C488.114 17.4293 487.57 17.9413 487.015 18.432C486.866 18.2186 486.631 17.9626 486.311 17.664C485.991 17.3653 485.639 17.0773 485.255 16.8C484.892 16.5013 484.562 16.2773 484.263 16.128C484.882 15.6373 485.543 15.0293 486.247 14.304C486.951 13.5786 487.644 12.8 488.327 11.968C489.031 11.1146 489.65 10.272 490.183 9.43996C490.738 8.58663 491.164 7.80796 491.463 7.10396L494.663 8.51196C494.556 8.76796 494.428 9.03463 494.279 9.31196C494.151 9.56796 494.012 9.82396 493.863 10.08H497.991V6.97596H494.567V3.83996H497.991V0.639963H501.639V3.83996H504.999V6.97596H501.639V10.08H505.383V13.28H493.863V10.08C493.628 10.4853 493.383 10.9013 493.127 11.328C492.871 11.7333 492.594 12.1493 492.295 12.576V29.536H488.647ZM493.863 27.456L493.095 24C493.586 23.9573 494.268 23.8826 495.143 23.776C496.018 23.6693 496.967 23.552 497.991 23.424V20.128H494.183V16.864H497.991V13.984H501.639V16.864H505.287V20.128H501.639V22.944C502.62 22.7946 503.506 22.656 504.295 22.528C505.106 22.4 505.735 22.2933 506.183 22.208V25.408C505.692 25.536 505.042 25.6746 504.231 25.824C503.442 25.9733 502.556 26.1333 501.575 26.304C500.615 26.4533 499.644 26.6026 498.663 26.752C497.682 26.9013 496.775 27.04 495.943 27.168C495.111 27.296 494.418 27.392 493.863 27.456ZM506.439 29.504C506.418 29.1626 506.364 28.7573 506.279 28.288C506.194 27.8186 506.098 27.36 505.991 26.912C505.884 26.4426 505.767 26.0693 505.639 25.792H507.431C507.858 25.792 508.146 25.728 508.295 25.6C508.466 25.4506 508.551 25.1733 508.551 24.768V12.928H506.023V9.63196H514.663V12.928H512.231V26.272C512.231 28.4266 510.908 29.504 508.263 29.504H506.439ZM487.303 8.73596C487.004 8.26663 486.642 7.7653 486.215 7.23196C485.788 6.69863 485.351 6.2613 484.903 5.91996C486.247 5.1733 487.484 4.33063 488.615 3.39196C489.746 2.43196 490.652 1.47196 491.335 0.511963L494.087 2.62396C493.511 3.37063 492.839 4.1173 492.071 4.86396C491.303 5.61063 490.503 6.31463 489.671 6.97596C488.86 7.6373 488.071 8.22396 487.303 8.73596ZM506.343 5.40796V2.07996H514.055V5.40796H506.343Z" fill="#D84830"/>
<path d="M453.031 13.7918V6.75184H458.695V5.15184H450.727V2.30384H458.695V0.287842H462.279V2.30384H467.335V0.287842H470.919V2.30384H478.759V5.15184H470.919V6.75184H476.551V13.7918H453.031ZM453.703 30.2078C453.554 29.8025 453.34 29.2905 453.063 28.6718C452.807 28.0532 452.53 27.5412 452.231 27.1358C453.66 26.9865 455.132 26.7625 456.647 26.4638C458.162 26.1652 459.623 25.7918 461.031 25.3438C460.732 25.0452 460.38 24.7038 459.975 24.3198C459.591 23.9358 459.218 23.5838 458.855 23.2638C458.322 23.5198 457.778 23.7545 457.223 23.9678C456.668 24.1812 456.114 24.3838 455.559 24.5758C455.367 24.1492 455.09 23.6692 454.727 23.1358C454.364 22.6025 454.034 22.1972 453.735 21.9198C455.207 21.5358 456.7 20.9492 458.215 20.1598C459.73 19.3705 461.084 18.5065 462.279 17.5678H454.119V20.4798H450.567V14.8158H479.111V20.4798H475.591V17.5678H466.631C466.418 17.7812 466.194 18.0052 465.959 18.2398C465.724 18.4532 465.49 18.6772 465.255 18.9118H473.063L474.247 20.1918C472.114 23.0292 469.372 25.2372 466.023 26.8158C462.695 28.3732 458.588 29.5038 453.703 30.2078ZM464.455 24.0638C466.183 23.2958 467.559 22.4318 468.583 21.4718H461.991C461.863 21.5572 461.767 21.6105 461.703 21.6318C462.087 21.9305 462.524 22.3038 463.015 22.7518C463.527 23.1998 464.007 23.6372 464.455 24.0638ZM462.279 6.75184H467.335V5.15184H462.279V6.75184ZM469.607 11.2318H473.159V9.31184H469.607V11.2318ZM456.455 11.2318H459.783V9.31184H456.455V11.2318ZM463.111 11.2318H466.311V9.31184H463.111V11.2318Z" fill="#D84830"/>
<path d="M427.524 13.92L426.5 12.16C427.566 11.8827 428.42 11.392 429.06 10.688C429.721 9.98403 430.052 9.23737 430.052 8.44803C430.052 8.2987 430.041 8.1707 430.02 8.06403C429.998 7.95737 429.977 7.86137 429.956 7.77603C429.742 8.0747 429.476 8.32003 429.156 8.51203C428.857 8.70403 428.526 8.80003 428.164 8.80003C427.566 8.80003 427.054 8.59737 426.628 8.19203C426.201 7.7867 425.988 7.25337 425.988 6.59203C425.988 5.90937 426.233 5.37603 426.724 4.99203C427.236 4.60803 427.833 4.40537 428.516 4.38403C429.561 4.38403 430.425 4.7787 431.108 5.56803C431.812 6.33603 432.164 7.32803 432.164 8.54403C432.164 9.84537 431.737 10.944 430.884 11.84C430.03 12.736 428.91 13.4294 427.524 13.92ZM420.1 13.92L419.108 12.16C420.174 11.8827 421.028 11.392 421.668 10.688C422.308 9.98403 422.628 9.23737 422.628 8.44803C422.628 8.2987 422.617 8.1707 422.596 8.06403C422.596 7.95737 422.585 7.86137 422.564 7.77603C422.35 8.0747 422.084 8.32003 421.764 8.51203C421.444 8.70403 421.113 8.80003 420.772 8.80003C420.174 8.80003 419.652 8.59737 419.204 8.19203C418.777 7.7867 418.564 7.25337 418.564 6.59203C418.564 5.90937 418.82 5.37603 419.332 4.99203C419.844 4.60803 420.43 4.40537 421.092 4.38403C422.137 4.38403 423.001 4.7787 423.684 5.56803C424.388 6.33603 424.74 7.32803 424.74 8.54403C424.74 9.84537 424.313 10.944 423.46 11.84C422.628 12.736 421.508 13.4294 420.1 13.92Z" fill="#D84830"/>
<path d="M398.916 28.2239C396.356 28.2239 394.468 27.7439 393.252 26.7839C392.036 25.8025 391.428 24.6079 391.428 23.1999C391.428 22.2825 391.652 21.5039 392.1 20.8639C392.548 20.2239 393.134 19.7332 393.86 19.3919C394.585 19.0292 395.364 18.8479 396.196 18.8479C397.774 18.8479 399.044 19.3385 400.004 20.3199C400.985 21.3012 401.614 22.5172 401.892 23.9679C402.681 23.6052 403.321 23.0505 403.812 22.3039C404.324 21.5572 404.58 20.6612 404.58 19.6159C404.58 18.7199 404.366 17.9199 403.94 17.2159C403.513 16.5119 402.905 15.9572 402.116 15.5519C401.348 15.1252 400.452 14.9119 399.428 14.9119C397.998 14.9119 396.75 15.0825 395.684 15.4239C394.638 15.7652 393.689 16.3092 392.836 17.0559C392.452 17.3972 391.939 17.8345 391.299 18.3679C390.681 18.9012 390.094 19.3812 389.54 19.8079L386.916 16.9919C387.876 16.4372 388.9 15.7332 389.988 14.8799C391.076 14.0265 392.174 13.0772 393.284 12.0319C394.393 10.9865 395.449 9.90919 396.452 8.79985C397.454 7.66919 398.35 6.55985 399.14 5.47185C398.222 5.68519 397.22 5.88785 396.132 6.07985C395.065 6.27185 394.03 6.43185 393.028 6.55985C392.046 6.68785 391.214 6.77319 390.532 6.81585L389.828 3.16785C390.404 3.21052 391.118 3.21052 391.972 3.16785C392.846 3.10385 393.785 3.02919 394.788 2.94385C395.79 2.83719 396.761 2.70919 397.7 2.55985C398.66 2.41052 399.513 2.26119 400.26 2.11185C401.028 1.94119 401.593 1.77052 401.956 1.59985L404.836 3.51985C404.11 4.94919 403.108 6.45319 401.828 8.03185C400.569 9.58919 399.214 11.0932 397.764 12.5439C398.126 12.3732 398.532 12.2452 398.98 12.1599C399.428 12.0532 399.865 11.9999 400.292 11.9999C401.977 11.9999 403.438 12.3199 404.676 12.9599C405.913 13.5999 406.873 14.4959 407.556 15.6479C408.26 16.7785 408.612 18.1012 408.612 19.6159C408.612 21.2159 408.206 22.6665 407.396 23.9679C406.606 25.2692 405.486 26.3039 404.036 27.0719C402.585 27.8399 400.878 28.2239 398.916 28.2239ZM398.5 24.7039C398.393 23.8932 398.137 23.2425 397.732 22.7519C397.348 22.2612 396.836 22.0159 396.196 22.0159C395.854 22.0159 395.566 22.1012 395.332 22.2719C395.097 22.4425 394.98 22.6985 394.98 23.0399C394.98 23.4879 395.214 23.8612 395.684 24.1599C396.174 24.4585 396.985 24.6292 398.116 24.6719C398.18 24.6932 398.244 24.7039 398.308 24.7039C398.372 24.7039 398.436 24.7039 398.5 24.7039Z" fill="#D84830"/>
<path d="M367.652 29.024C365.049 29.152 362.766 29.024 360.804 28.64C358.841 28.2774 357.316 27.5947 356.228 26.592C355.161 25.568 354.628 24.1707 354.628 22.4C354.628 21.376 354.905 20.48 355.46 19.712C356.014 18.9227 356.772 18.2827 357.732 17.792C358.692 17.3014 359.79 16.9707 361.028 16.8C362.286 16.6294 363.609 16.6294 364.996 16.8C364.654 16.352 364.324 15.8827 364.004 15.392C363.684 14.9014 363.374 14.4 363.076 13.888C361.07 14.2294 359.108 14.5067 357.188 14.72C355.289 14.912 353.657 14.9974 352.292 14.976L351.556 11.584C352.75 11.6267 354.222 11.5734 355.972 11.424C357.721 11.2534 359.524 11.0187 361.38 10.72C360.932 9.8027 360.526 8.89603 360.164 8.00003C358.884 8.1707 357.636 8.30937 356.42 8.41603C355.225 8.5227 354.18 8.5867 353.284 8.60803L352.548 5.28003C353.422 5.30137 354.414 5.28003 355.524 5.21603C356.654 5.1307 357.806 5.01337 358.98 4.86403C358.51 3.47737 358.19 2.2827 358.02 1.28003L361.796 0.832031C361.902 1.79203 362.18 2.9547 362.628 4.32003C363.822 4.1067 364.953 3.87203 366.02 3.61603C367.108 3.3387 368.014 3.06137 368.74 2.78403L369.7 6.04803C368.996 6.30403 368.132 6.54937 367.108 6.78403C366.084 7.0187 364.985 7.2427 363.812 7.45603C363.982 7.8827 364.164 8.32003 364.356 8.76803C364.569 9.1947 364.782 9.62137 364.996 10.048C366.553 9.72803 367.972 9.3867 369.252 9.02403C370.553 8.64003 371.577 8.25603 372.324 7.87203L373.572 11.04C372.782 11.424 371.79 11.7974 370.596 12.16C369.422 12.5227 368.142 12.8534 366.756 13.152C367.438 14.2614 368.153 15.296 368.9 16.256C369.668 17.1947 370.446 17.984 371.236 18.624L368.868 21.152C367.652 20.4694 366.436 20.032 365.22 19.84C364.025 19.6267 362.926 19.5947 361.924 19.744C360.921 19.8934 360.11 20.1814 359.492 20.608C358.894 21.0347 358.596 21.5467 358.596 22.144C358.596 23.1254 359.044 23.8614 359.94 24.352C360.857 24.8427 362.094 25.1414 363.652 25.248C365.209 25.3547 366.969 25.344 368.932 25.216C368.718 25.536 368.516 25.9414 368.324 26.432C368.153 26.9014 368.004 27.3707 367.876 27.84C367.748 28.3094 367.673 28.704 367.652 29.024Z" fill="#D84830"/>
<path d="M334.979 28.448C332.761 28.192 330.798 27.5413 329.091 26.496C327.385 25.4507 326.051 24.096 325.091 22.432C324.153 20.768 323.684 18.8693 323.684 16.736C323.684 15.2 324.046 13.632 324.771 12.032C325.518 10.432 326.627 9.01334 328.099 7.77601C326.393 8.05334 324.686 8.35201 322.979 8.67201C321.294 8.99201 319.758 9.29067 318.371 9.56801C317.006 9.84534 315.95 10.08 315.203 10.272L314.339 6.14401C315.043 6.10134 316.014 6.00534 317.251 5.85601C318.51 5.70667 319.918 5.52534 321.475 5.31201C323.054 5.07734 324.675 4.83201 326.339 4.57601C328.025 4.29867 329.646 4.02134 331.203 3.74401C332.782 3.46667 334.19 3.20001 335.427 2.94401C336.686 2.66667 337.667 2.42134 338.371 2.20801L339.395 6.11201C339.054 6.13334 338.638 6.17601 338.147 6.24001C337.678 6.30401 337.145 6.37867 336.547 6.46401C335.374 6.61334 334.254 6.97601 333.188 7.55201C332.121 8.12801 331.161 8.87467 330.307 9.79201C329.475 10.7093 328.814 11.7547 328.323 12.928C327.833 14.1013 327.587 15.3707 327.587 16.736C327.587 18.3787 328.003 19.744 328.835 20.832C329.667 21.92 330.798 22.7733 332.227 23.392C333.678 23.9893 335.299 24.3947 337.091 24.608C336.771 24.928 336.462 25.3333 336.163 25.824C335.865 26.2933 335.609 26.7627 335.395 27.232C335.182 27.7227 335.043 28.128 334.979 28.448ZM340.547 13.76C340.142 13.0987 339.598 12.3947 338.915 11.648C338.254 10.9013 337.646 10.304 337.091 9.85601L338.819 8.41601C339.139 8.67201 339.523 9.04534 339.971 9.53601C340.441 10.0267 340.9 10.528 341.348 11.04C341.796 11.5307 342.137 11.9573 342.371 12.32L340.547 13.76ZM337.667 16.192C337.262 15.5093 336.729 14.7947 336.067 14.048C335.406 13.3013 334.798 12.6933 334.243 12.224L336.003 10.816C336.323 11.072 336.707 11.4453 337.155 11.936C337.603 12.4267 338.041 12.928 338.467 13.44C338.915 13.952 339.257 14.3787 339.491 14.72L337.667 16.192Z" fill="#D84830"/>
<path d="M291.812 29.7599C291.705 29.5039 291.534 29.1946 291.299 28.8319C291.065 28.4906 290.809 28.1386 290.531 27.7759C290.275 27.4346 290.03 27.1573 289.796 26.9439C291.438 26.3893 292.857 25.6319 294.052 24.6719C295.246 23.6906 296.078 22.4853 296.548 21.0559H291.396V12.9919H296.932V11.1359H293.251V9.08793C292.889 9.36526 292.526 9.63193 292.164 9.88793C291.801 10.1226 291.459 10.3359 291.139 10.5279C290.99 10.2719 290.756 9.95193 290.436 9.56793C290.116 9.1626 289.795 8.79993 289.475 8.47993V8.79993H286.691V10.6559H289.475V13.4399H286.691V15.5519H290.467C290.467 16.7679 290.446 18.0479 290.404 19.3919C290.361 20.7146 290.286 21.9733 290.18 23.1679C290.094 24.3413 289.966 25.3226 289.796 26.1119C289.518 27.3706 289.049 28.2453 288.388 28.7359C287.748 29.2479 286.745 29.5039 285.38 29.5039H283.716C283.694 29.0773 283.62 28.5333 283.492 27.8719C283.364 27.2319 283.225 26.7413 283.076 26.3999H284.836C285.476 26.3999 285.934 26.3039 286.212 26.1119C286.489 25.9199 286.713 25.4613 286.884 24.7359C286.926 24.5653 286.969 24.3626 287.012 24.1279C287.054 23.8719 287.086 23.6053 287.108 23.3279C286.894 23.3919 286.66 23.4559 286.404 23.5199C286.169 23.5839 285.998 23.6373 285.892 23.6799C285.806 23.0613 285.667 22.3253 285.475 21.4719C285.305 20.6186 285.124 19.9146 284.932 19.3599L286.564 18.9439C286.67 19.2213 286.777 19.5733 286.884 19.9999C287.012 20.4266 287.129 20.8639 287.236 21.3119C287.257 20.7786 287.268 20.2559 287.268 19.7439C287.289 19.2106 287.299 18.7199 287.299 18.2719H278.724V1.31193H290.596V4.15993H286.691V6.01593H289.475V7.67993C290.457 7.1466 291.438 6.46393 292.419 5.63193C293.422 4.7786 294.329 3.87193 295.139 2.91193C295.95 1.93059 296.548 1.0026 296.932 0.12793L299.556 0.639929C300.132 1.42926 300.878 2.22926 301.796 3.03993C302.734 3.8506 303.758 4.59726 304.868 5.27993C305.977 5.96259 307.076 6.51726 308.164 6.94393C307.758 7.34926 307.353 7.86126 306.948 8.47993C306.564 9.0986 306.297 9.6106 306.148 10.0159C305.785 9.84526 305.411 9.65326 305.027 9.43993C304.643 9.2266 304.26 8.99193 303.876 8.73593V11.1359H300.292V12.9919H306.02V21.0559H300.964C301.561 22.3573 302.51 23.4879 303.812 24.4479C305.134 25.4079 306.542 26.1653 308.036 26.7199C307.801 26.9333 307.534 27.2213 307.236 27.5839C306.958 27.9679 306.692 28.3519 306.436 28.7359C306.201 29.1199 306.02 29.4399 305.892 29.6959C304.526 29.0773 303.225 28.2986 301.988 27.3599C300.772 26.4213 299.758 25.2906 298.948 23.9679C298.18 25.3119 297.166 26.4533 295.908 27.3919C294.67 28.3306 293.305 29.1199 291.812 29.7599ZM294.404 8.15993H303.012C302.116 7.51993 301.262 6.8266 300.452 6.07993C299.641 5.33326 298.958 4.6186 298.404 3.93593C297.934 4.6186 297.347 5.33326 296.643 6.07993C295.939 6.80526 295.193 7.4986 294.404 8.15993ZM277.444 25.6319C277.486 25.1626 277.508 24.5973 277.508 23.9359C277.529 23.2533 277.529 22.5813 277.508 21.9199C277.508 21.2373 277.475 20.6613 277.411 20.1919L279.62 19.9359C279.662 20.3839 279.694 20.9493 279.716 21.6319C279.758 22.2933 279.78 22.9653 279.78 23.6479C279.801 24.3306 279.811 24.9279 279.811 25.4399C279.47 25.4186 279.076 25.4293 278.628 25.4719C278.201 25.5146 277.806 25.5679 277.444 25.6319ZM280.548 24.8959C280.548 24.5119 280.526 24.0106 280.484 23.3919C280.441 22.7519 280.388 22.1333 280.324 21.5359C280.281 20.9173 280.228 20.4479 280.164 20.1279L282.052 19.8719C282.137 20.2559 282.212 20.7466 282.276 21.3439C282.361 21.9199 282.425 22.4959 282.467 23.0719C282.531 23.6479 282.574 24.1386 282.596 24.5439C282.382 24.5653 282.052 24.6186 281.604 24.7039C281.156 24.7893 280.804 24.8533 280.548 24.8959ZM283.299 24.2879C283.278 23.8826 283.225 23.3919 283.139 22.8159C283.075 22.2399 282.99 21.6746 282.884 21.1199C282.798 20.5653 282.702 20.1173 282.596 19.7759L284.388 19.4559C284.494 19.8399 284.601 20.3093 284.708 20.8639C284.814 21.4186 284.91 21.9733 284.996 22.5279C285.081 23.0613 285.134 23.5199 285.156 23.9039C285.049 23.9253 284.868 23.9679 284.612 24.0319C284.356 24.0746 284.1 24.1279 283.844 24.1919C283.588 24.2346 283.406 24.2666 283.299 24.2879ZM300.292 18.1759H302.852V15.8719H300.292V18.1759ZM294.564 18.1759H296.932V15.8719H294.564V18.1759ZM281.764 15.5519H283.844V13.4399H281.764V15.5519ZM281.764 10.6559H283.844V8.79993H281.764V10.6559ZM281.764 6.01593H283.844V4.15993H281.764V6.01593Z" fill="#D84830"/>
<path d="M259.236 29.568V24.736H255.556V20.96H259.236V14.912C258.532 16.0427 257.764 17.1733 256.932 18.304C256.1 19.4133 255.257 20.448 254.404 21.408C253.572 22.368 252.761 23.2 251.972 23.904C251.758 23.648 251.492 23.36 251.172 23.04C250.852 22.72 250.521 22.4213 250.18 22.144V29.536H246.372V13.824C246.03 14.2507 245.689 14.6667 245.348 15.072C245.028 15.456 244.697 15.8293 244.356 16.192C244.014 15.808 243.577 15.4133 243.044 15.008C242.532 14.5813 242.03 14.2507 241.54 14.016C242.308 13.2907 243.086 12.352 243.876 11.2C244.665 10.048 245.401 8.81066 246.084 7.488C246.788 6.16533 247.385 4.88533 247.876 3.648C248.388 2.41066 248.74 1.344 248.932 0.447998L252.516 1.408C252.26 2.38933 251.929 3.40266 251.524 4.448C251.118 5.49333 250.67 6.53866 250.18 7.584V20.448C251.054 19.616 251.982 18.6133 252.964 17.44C253.945 16.2667 254.873 15.0507 255.748 13.792C256.622 12.512 257.348 11.296 257.924 10.144H251.492V6.592H259.236V0.479998H262.98V6.592H271.268V10.144H263.844C264.334 11.104 264.942 12.1067 265.668 13.152C266.414 14.1973 267.214 15.2213 268.068 16.224C268.921 17.2267 269.764 18.1547 270.596 19.008C271.428 19.84 272.174 20.5333 272.836 21.088C272.558 21.2373 272.228 21.472 271.844 21.792C271.481 22.112 271.118 22.4533 270.756 22.816C270.414 23.1573 270.137 23.4773 269.924 23.776C268.814 22.7733 267.63 21.5147 266.372 20C265.134 18.464 264.004 16.8853 262.98 15.264V20.96H266.5V24.736H262.98V29.568H259.236Z" fill="#D84830"/>
<path d="M219.364 23.968C218.297 24.5653 217.294 24.8107 216.356 24.704C215.417 24.576 214.585 23.968 213.86 22.88C213.198 21.856 212.59 20.6507 212.036 19.264C211.481 17.8773 211.001 16.4053 210.596 14.848C210.212 13.2907 209.913 11.7333 209.7 10.176C209.508 8.61866 209.422 7.15733 209.444 5.79199L213.348 5.82399C213.284 6.86933 213.316 8.01066 213.444 9.24799C213.572 10.4853 213.774 11.7333 214.052 12.992C214.329 14.2507 214.66 15.424 215.044 16.512C215.428 17.5787 215.844 18.4747 216.292 19.2C216.59 19.712 216.91 20.0107 217.252 20.096C217.614 20.16 217.998 20.064 218.404 19.808C218.916 19.4667 219.449 18.9973 220.004 18.4C220.58 17.8027 221.06 17.2267 221.444 16.672C221.55 16.992 221.721 17.3547 221.956 17.76C222.212 18.1653 222.478 18.56 222.756 18.944C223.054 19.328 223.321 19.6373 223.556 19.872C222.98 20.7253 222.318 21.5147 221.572 22.24C220.846 22.9653 220.11 23.5413 219.364 23.968ZM231.46 17.984C231.246 17.3653 230.916 16.5973 230.468 15.68C230.02 14.7627 229.508 13.8133 228.932 12.832C228.356 11.8293 227.78 10.912 227.204 10.08C226.628 9.22666 226.094 8.56533 225.604 8.09599L228.676 6.14399C229.209 6.67733 229.796 7.39199 230.436 8.28799C231.097 9.18399 231.737 10.144 232.356 11.168C232.996 12.1707 233.561 13.152 234.052 14.112C234.542 15.0507 234.894 15.8507 235.108 16.512C234.446 16.64 233.774 16.8427 233.092 17.12C232.43 17.3973 231.886 17.6853 231.46 17.984Z" fill="#D84830"/>
<path d="M180.196 28.6399V19.4879C178.638 20.9812 177.326 22.4105 176.26 23.7759L173.348 21.0879C174.244 20.3625 175.278 19.4772 176.452 18.4319C177.625 17.3652 178.873 16.3092 180.196 15.2639V10.9439C179.236 11.1572 178.297 11.3599 177.38 11.5519C176.462 11.7225 175.726 11.8612 175.172 11.9679L174.372 8.47985C174.948 8.45852 175.78 8.36252 176.868 8.19185C177.977 7.99985 179.086 7.79719 180.196 7.58385V1.59985H183.78V6.65585C184.057 6.59185 184.26 6.51719 184.388 6.43185L186.436 7.96785L184.26 12.3199C185.497 11.5732 186.745 10.9545 188.004 10.4639C189.262 9.97319 190.478 9.72785 191.652 9.72785C193.337 9.72785 194.83 10.0479 196.132 10.6879C197.433 11.3065 198.446 12.2025 199.172 13.3759C199.918 14.5279 200.292 15.9252 200.292 17.5679C200.292 20.0212 199.396 22.1119 197.604 23.8399C195.812 25.5679 193.166 26.7519 189.668 27.3919C189.582 27.0505 189.422 26.6452 189.188 26.1759C188.974 25.7065 188.729 25.2372 188.452 24.7679C188.174 24.2985 187.897 23.9145 187.62 23.6159C189.305 23.4025 190.809 23.0612 192.132 22.5919C193.454 22.1012 194.5 21.4505 195.268 20.6399C196.036 19.8079 196.42 18.7839 196.42 17.5679C196.42 16.0532 196.004 14.9332 195.172 14.2079C194.34 13.4612 193.166 13.0879 191.652 13.0879C190.478 13.0879 189.209 13.4079 187.844 14.0479C186.478 14.6879 185.124 15.5092 183.78 16.5119V28.6399H180.196Z" fill="#D84830"/>
<path d="M153.508 29.6321V19.4241C152.548 20.4907 151.481 21.5254 150.308 22.5281C149.156 23.5094 147.993 24.4054 146.82 25.2161C145.646 26.0054 144.558 26.6561 143.556 27.1681C143.406 26.8907 143.193 26.5707 142.916 26.2081C142.638 25.8241 142.34 25.4614 142.02 25.1201C141.7 24.7574 141.401 24.4907 141.124 24.3201C142.062 23.9147 143.054 23.3921 144.1 22.7521C145.145 22.1121 146.18 21.4081 147.204 20.6401C148.249 19.8507 149.22 19.0401 150.116 18.2081C151.012 17.3547 151.769 16.5227 152.388 15.7121H146.788V19.9361H137.572V4.22407H146.788V12.2561H153.508V8.67207H148.036V5.31207H153.508V0.320068H157.22V5.31207H163.652V8.67207H157.22V12.2561H165.956V15.7121H157.924C158.478 16.5014 159.15 17.3014 159.94 18.1121C160.729 18.9227 161.561 19.7121 162.436 20.4801C163.332 21.2267 164.206 21.9094 165.06 22.5281C165.913 23.1254 166.681 23.6054 167.364 23.9681C167.065 24.1814 166.734 24.4694 166.372 24.8321C166.009 25.1734 165.678 25.5254 165.38 25.8881C165.081 26.2507 164.846 26.5707 164.676 26.8481C163.481 26.0801 162.212 25.0774 160.868 23.8401C159.524 22.6027 158.308 21.2694 157.22 19.8401V29.6321H153.508ZM140.996 16.4481H143.364V7.68007H140.996V16.4481Z" fill="#D84830"/>
<path d="M118.884 28.896C117.134 28.896 115.556 28.7253 114.148 28.384C112.74 28.0427 111.63 27.4987 110.82 26.752C110.009 25.984 109.604 24.9813 109.604 23.744C109.604 22.72 109.913 21.792 110.532 20.96C111.15 20.1067 112.004 19.3387 113.092 18.656C114.18 17.952 115.417 17.312 116.804 16.736V16.48C116.804 15.7333 116.612 15.1893 116.228 14.848C115.865 14.4853 115.396 14.2827 114.82 14.24C113.838 14.176 112.9 14.3147 112.004 14.656C111.108 14.9973 110.222 15.616 109.348 16.512C109.092 16.768 108.761 17.0987 108.356 17.504C107.95 17.888 107.545 18.272 107.14 18.656C106.734 19.04 106.382 19.36 106.084 19.616L103.3 16.864C104.793 15.8827 106.201 14.6453 107.524 13.152C108.846 11.6587 109.966 10.0693 110.884 8.38401C109.689 8.42668 108.601 8.46935 107.62 8.51201C106.638 8.53335 105.902 8.53335 105.412 8.51201L105.284 4.83201C106.009 4.89601 107.012 4.92801 108.292 4.92801C109.593 4.92801 111.001 4.89601 112.516 4.83201C113.006 3.42401 113.284 2.10135 113.348 0.864014L117.156 1.05601C117.092 2.18668 116.878 3.36001 116.516 4.57601C118.094 4.44801 119.556 4.30935 120.9 4.16001C122.265 3.98935 123.31 3.79735 124.036 3.58401L124.26 7.13601C123.662 7.24268 122.884 7.36001 121.924 7.48801C120.964 7.59468 119.897 7.70135 118.724 7.80801C117.572 7.91468 116.388 8.01068 115.172 8.09601C114.894 8.69335 114.574 9.30135 114.212 9.92001C113.87 10.5173 113.508 11.0933 113.124 11.648C113.977 11.3067 114.841 11.136 115.716 11.136C116.974 11.136 118.03 11.4667 118.884 12.128C119.758 12.7893 120.302 13.8773 120.516 15.392C121.71 14.9867 122.926 14.624 124.164 14.304C125.422 13.9627 126.638 13.6533 127.812 13.376L128.9 16.896C127.406 17.1093 125.956 17.376 124.548 17.696C123.14 17.9947 121.828 18.336 120.612 18.72V22.976H116.836V20.16C115.769 20.672 114.916 21.2053 114.276 21.76C113.636 22.2933 113.316 22.8053 113.316 23.296C113.316 24.0213 113.753 24.5333 114.628 24.832C115.502 25.1093 116.836 25.248 118.628 25.248C119.353 25.248 120.164 25.2053 121.06 25.12C121.977 25.0133 122.884 24.8853 123.78 24.736C124.697 24.5653 125.497 24.384 126.18 24.192C126.137 24.4693 126.094 24.8747 126.052 25.408C126.03 25.92 126.02 26.432 126.02 26.944C126.02 27.456 126.03 27.84 126.052 28.096C125.006 28.352 123.833 28.544 122.532 28.672C121.23 28.8213 120.014 28.896 118.884 28.896Z" fill="#D84830"/>
<path d="M84.4515 29.5999C84.4088 29.0453 84.3022 28.3733 84.1315 27.5839C83.9608 26.8159 83.7688 26.1973 83.5555 25.7279H86.6915C87.4168 25.7279 87.9928 25.6319 88.4195 25.4399C88.8675 25.2479 89.2195 24.8959 89.4755 24.3839C89.7315 23.8506 89.9448 23.0933 90.1155 22.1119C90.4782 20.1279 90.6595 16.1173 90.6595 10.0799V7.99993H74.4035C74.1902 8.40526 73.9555 8.82126 73.6995 9.24793C73.4435 9.65326 73.1875 10.0479 72.9315 10.4319H85.5715V24.2879H72.7715V10.6879C72.2168 11.5199 71.6408 12.3093 71.0435 13.0559C70.4675 13.7813 69.8915 14.4213 69.3155 14.9759C69.0808 14.7199 68.7608 14.4426 68.3555 14.1439C67.9502 13.8239 67.5342 13.5359 67.1075 13.2799C66.7022 13.0239 66.3502 12.8426 66.0515 12.7359C66.8195 12.0959 67.5982 11.2533 68.3875 10.2079C69.1768 9.14126 69.9235 7.98926 70.6275 6.75193C71.3528 5.5146 71.9822 4.31993 72.5155 3.16793C73.0488 1.9946 73.4328 0.981262 73.6675 0.12793L77.4435 1.18393C77.2942 1.6746 77.1128 2.19726 76.8995 2.75193C76.7075 3.3066 76.4728 3.8826 76.1955 4.47993H94.4995V10.0799C94.4995 12.9599 94.4462 15.4453 94.3395 17.5359C94.2542 19.6266 94.1262 21.3333 93.9555 22.6559C93.7422 24.4266 93.3368 25.8239 92.7395 26.8479C92.1635 27.8506 91.3955 28.5546 90.4355 28.9599C89.4755 29.3866 88.3235 29.5999 86.9795 29.5999H84.4515ZM76.4515 21.1519H81.8915V18.7519H76.4515V21.1519ZM76.4515 15.9679H81.8915V13.5999H76.4515V15.9679Z" fill="#D84830"/>
<path d="M51.7848 4.06396L52.8088 5.82397C51.7421 6.1013 50.8781 6.60263 50.2168 7.32796C49.5768 8.03197 49.2568 8.77863 49.2568 9.56797C49.2568 9.69597 49.2674 9.8133 49.2888 9.91997C49.3101 10.0266 49.3314 10.1226 49.3528 10.208C49.5661 9.9093 49.8328 9.67463 50.1528 9.50397C50.4728 9.31197 50.8034 9.21597 51.1448 9.21597C51.7421 9.21597 52.2541 9.41863 52.6808 9.82397C53.1074 10.208 53.3208 10.7413 53.3208 11.424C53.3208 12.0853 53.0754 12.608 52.5848 12.992C52.0941 13.376 51.5074 13.5786 50.8248 13.6C49.7794 13.6213 48.9048 13.248 48.2008 12.48C47.4968 11.6906 47.1448 10.6773 47.1448 9.43997C47.1448 8.13863 47.5714 7.03996 48.4248 6.14396C49.2781 5.22663 50.3981 4.5333 51.7848 4.06396ZM59.2088 4.06396L60.2008 5.82397C59.1554 6.1013 58.3021 6.60263 57.6408 7.32796C57.0008 8.03197 56.6808 8.77863 56.6808 9.56797C56.6808 9.69597 56.6808 9.8133 56.6808 9.91997C56.7021 10.0266 56.7234 10.1226 56.7448 10.208C56.9794 9.9093 57.2461 9.67463 57.5448 9.50397C57.8648 9.31197 58.1954 9.21597 58.5368 9.21597C59.1554 9.21597 59.6781 9.41863 60.1048 9.82397C60.5314 10.208 60.7448 10.7413 60.7448 11.424C60.7448 12.0853 60.4888 12.608 59.9768 12.992C59.4861 13.376 58.8994 13.5786 58.2168 13.6C57.1714 13.6213 56.2968 13.248 55.5928 12.48C54.9101 11.6906 54.5688 10.6773 54.5688 9.43997C54.5688 8.13863 54.9848 7.03996 55.8168 6.14396C56.6701 5.22663 57.8008 4.5333 59.2088 4.06396Z" fill="#D84830"/>
<path d="M27.296 29.504L0 2.11196L1.6 0.511963L28.896 27.904L27.296 29.504Z" fill="#D84830"/>
</svg>
