<svg width="390" height="47" viewBox="0 0 390 47" fill="none" xmlns="http://www.w3.org/2000/svg">
<path d="M312.439 46.4401L311.459 45.4401L328.519 28.3201L329.519 29.3201L312.439 46.4401Z" fill="#D84830"/>
<path d="M276.742 43.84L275.442 42.8C275.469 42.5866 275.482 42.1466 275.482 41.48C275.496 40.8133 275.502 40.02 275.502 39.1C275.516 38.18 275.522 37.2466 275.522 36.3C275.522 35.1266 275.516 34.1066 275.502 33.24C275.489 32.3733 275.469 31.6933 275.442 31.2H278.002C277.976 31.44 277.956 31.8266 277.942 32.36C277.929 32.88 277.916 33.48 277.902 34.16C277.902 34.84 277.902 35.52 277.902 36.2V40.56C278.476 40.32 279.089 40.0266 279.742 39.68C280.409 39.3333 281.062 38.9666 281.702 38.58C282.356 38.1933 282.949 37.8133 283.482 37.44C284.016 37.0666 284.436 36.7266 284.742 36.42C284.742 36.6733 284.762 36.9866 284.802 37.36C284.856 37.7333 284.909 38.0933 284.962 38.44C285.029 38.7733 285.082 39.0133 285.122 39.16C284.682 39.5333 284.102 39.9466 283.382 40.4C282.676 40.8533 281.916 41.3 281.102 41.74C280.289 42.18 279.496 42.5866 278.722 42.96C277.962 43.3333 277.302 43.6266 276.742 43.84ZM268.082 44.3C267.909 44.0066 267.649 43.6733 267.302 43.3C266.956 42.9266 266.636 42.6266 266.342 42.4C267.449 41.8133 268.336 41.1733 269.002 40.48C269.682 39.7866 270.176 39.02 270.482 38.18C270.789 37.3266 270.956 36.38 270.982 35.34C271.009 34.3 270.936 33.1466 270.762 31.88L273.102 31.68C273.382 33.68 273.409 35.4666 273.182 37.04C272.969 38.6 272.449 39.9733 271.622 41.16C270.796 42.3466 269.616 43.3933 268.082 44.3Z" fill="#D84830"/>
<path d="M245.502 38.7C245.516 38.5133 245.522 38.26 245.522 37.94C245.522 37.62 245.522 37.3 245.522 36.98C245.522 36.66 245.516 36.4066 245.502 36.22C245.756 36.2333 246.202 36.2466 246.842 36.26C247.496 36.2733 248.269 36.2866 249.162 36.3C250.069 36.3133 251.036 36.3266 252.062 36.34C253.089 36.34 254.116 36.34 255.142 36.34C256.169 36.34 257.136 36.3333 258.042 36.32C258.962 36.3066 259.756 36.2933 260.422 36.28C261.089 36.2666 261.562 36.2466 261.842 36.22C261.829 36.3933 261.816 36.64 261.802 36.96C261.802 37.28 261.802 37.6066 261.802 37.94C261.816 38.26 261.822 38.5066 261.822 38.68C261.489 38.6666 260.996 38.6533 260.342 38.64C259.702 38.6266 258.949 38.6133 258.082 38.6C257.229 38.5866 256.316 38.58 255.342 38.58C254.382 38.58 253.409 38.58 252.422 38.58C251.436 38.58 250.496 38.5866 249.602 38.6C248.709 38.6133 247.902 38.6266 247.182 38.64C246.476 38.6533 245.916 38.6733 245.502 38.7Z" fill="#D84830"/>
<path d="M225.362 43.28V41.4C225.562 41.4133 225.889 41.4266 226.342 41.44C226.796 41.44 227.322 41.4466 227.922 41.46C228.522 41.46 229.156 41.46 229.822 41.46C230.489 41.46 231.136 41.46 231.762 41.46H232.542L233.002 37.84C232.589 37.8533 232.109 37.8666 231.562 37.88C231.029 37.8933 230.502 37.9066 229.982 37.92C229.462 37.9333 228.996 37.9466 228.582 37.96C228.182 37.9733 227.902 37.9866 227.742 38L227.622 36.06C227.822 36.0733 228.182 36.0866 228.702 36.1C229.236 36.1 229.836 36.1 230.502 36.1C231.182 36.0866 231.849 36.0733 232.502 36.06C233.169 36.0466 233.749 36.0333 234.242 36.02C234.749 35.9933 235.082 35.9733 235.242 35.96L234.562 41.44C235.336 41.44 236.029 41.44 236.642 41.44C237.256 41.4266 237.669 41.4133 237.882 41.4V43.28C237.656 43.2533 237.222 43.24 236.582 43.24C235.942 43.2266 235.196 43.22 234.342 43.22C233.489 43.2066 232.629 43.2 231.762 43.2C231.242 43.2 230.649 43.2 229.982 43.2C229.329 43.2 228.682 43.2066 228.042 43.22C227.402 43.22 226.836 43.2266 226.342 43.24C225.862 43.2533 225.536 43.2666 225.362 43.28Z" fill="#D84830"/>
<path d="M204.762 45.04L203.402 42.58C204.362 42.3667 205.362 42.0334 206.402 41.58C207.456 41.1134 208.502 40.5734 209.542 39.96C210.582 39.3334 211.576 38.6667 212.522 37.96C213.469 37.24 214.322 36.52 215.082 35.8C215.842 35.0667 216.462 34.3667 216.942 33.7C216.996 33.94 217.082 34.2267 217.202 34.56C217.336 34.8934 217.476 35.2134 217.622 35.52C217.769 35.8267 217.896 36.0667 218.002 36.24C217.336 37.08 216.509 37.9267 215.522 38.78C214.549 39.6334 213.476 40.46 212.302 41.26C211.129 42.0467 209.896 42.7667 208.602 43.42C207.322 44.0734 206.042 44.6134 204.762 45.04ZM208.482 34.42C208.322 34.26 208.076 34.0667 207.742 33.84C207.422 33.6134 207.062 33.38 206.662 33.14C206.276 32.8867 205.902 32.66 205.542 32.46C205.196 32.26 204.909 32.1134 204.682 32.02L206.042 29.94C206.309 30.0734 206.622 30.2534 206.982 30.48C207.356 30.7067 207.729 30.9467 208.102 31.2C208.489 31.44 208.842 31.6734 209.162 31.9C209.496 32.1267 209.756 32.3134 209.942 32.46L208.482 34.42ZM205.722 38.56C205.469 38.3467 205.096 38.1067 204.602 37.84C204.122 37.5734 203.622 37.32 203.102 37.08C202.596 36.8267 202.162 36.64 201.802 36.52L203.042 34.36C203.429 34.5067 203.876 34.7067 204.382 34.96C204.902 35.2134 205.402 35.4734 205.882 35.74C206.362 36.0067 206.742 36.24 207.022 36.44L205.722 38.56ZM216.782 31.56C216.502 31.1734 216.136 30.7534 215.682 30.3C215.242 29.8467 214.849 29.4934 214.502 29.24L215.522 28.28C215.736 28.4267 215.989 28.6467 216.282 28.94C216.589 29.22 216.889 29.5134 217.182 29.82C217.476 30.1134 217.702 30.3667 217.862 30.58L216.782 31.56ZM215.082 33.18C214.802 32.78 214.442 32.3534 214.002 31.9C213.562 31.4467 213.169 31.0867 212.822 30.82L213.842 29.86C214.042 30.02 214.289 30.2467 214.582 30.54C214.889 30.8334 215.189 31.1334 215.482 31.44C215.776 31.7334 216.002 31.9867 216.162 32.2L215.082 33.18Z" fill="#D84830"/>
<path d="M184.902 45.9799C184.702 45.6732 184.422 45.3266 184.062 44.9399C183.702 44.5532 183.369 44.2599 183.062 44.0599C184.729 43.1799 185.996 42.0799 186.862 40.7599C187.729 39.4266 188.229 37.8732 188.362 36.0999H184.522C184.029 36.7132 183.509 37.2799 182.962 37.7999C182.416 38.3199 181.836 38.7932 181.222 39.2199C181.009 38.9666 180.722 38.6666 180.362 38.3199C180.002 37.9732 179.669 37.7132 179.362 37.5399C180.349 36.8999 181.236 36.1266 182.022 35.2199C182.809 34.3132 183.482 33.3332 184.042 32.2799C184.616 31.2266 185.042 30.1799 185.322 29.1399L187.742 29.8599C187.542 30.5399 187.302 31.2066 187.022 31.8599C186.756 32.4999 186.449 33.1266 186.102 33.7399H195.682V36.0999H190.862C190.729 38.2732 190.162 40.1732 189.162 41.7999C188.176 43.4266 186.756 44.8199 184.902 45.9799Z" fill="#D84830"/>
<path d="M159.182 44.7199C159.009 44.4266 158.776 44.0733 158.482 43.6599C158.202 43.2466 157.916 42.9199 157.622 42.6799C158.622 42.2399 159.622 41.6933 160.622 41.0399C161.622 40.3866 162.576 39.6533 163.482 38.8399C164.402 38.0133 165.236 37.1466 165.982 36.2399C166.742 35.3199 167.382 34.3866 167.902 33.4399C167.249 33.4799 166.529 33.5266 165.742 33.5799C164.969 33.6333 164.196 33.6866 163.422 33.7399C162.662 33.7799 161.969 33.8266 161.342 33.8799C160.729 33.9199 160.256 33.9533 159.922 33.9799L159.642 31.4399C159.976 31.4399 160.476 31.4333 161.142 31.4199C161.809 31.4066 162.556 31.3866 163.382 31.3599C164.209 31.3199 165.029 31.2799 165.842 31.2399C166.669 31.1999 167.409 31.1533 168.062 31.0999C168.729 31.0333 169.222 30.9733 169.542 30.9199L171.162 31.9599C170.842 32.8933 170.429 33.8133 169.922 34.7199C169.416 35.6133 168.842 36.4733 168.202 37.2999C168.669 37.6599 169.162 38.0666 169.682 38.5199C170.216 38.9733 170.736 39.4399 171.242 39.9199C171.749 40.3999 172.216 40.8599 172.642 41.2999C173.069 41.7399 173.422 42.1333 173.702 42.4799C173.369 42.6933 173.016 42.9733 172.642 43.3199C172.269 43.6533 171.942 43.9733 171.662 44.2799C171.409 43.9199 171.082 43.5133 170.682 43.0599C170.282 42.5933 169.849 42.1266 169.382 41.6599C168.929 41.1799 168.469 40.7199 168.002 40.2799C167.536 39.8266 167.096 39.4266 166.682 39.0799C165.576 40.2666 164.376 41.3399 163.082 42.2999C161.789 43.2599 160.489 44.0666 159.182 44.7199Z" fill="#D84830"/>
<path d="M148.302 46.38C148.289 46.1667 148.256 45.9133 148.202 45.62C148.149 45.34 148.089 45.0667 148.022 44.8C147.956 44.52 147.882 44.2933 147.802 44.12H149.142C149.409 44.12 149.602 44.0733 149.722 43.98C149.842 43.8867 149.902 43.7267 149.902 43.5V35.54H144.362V28.74H152.222V44.36C152.222 45.0533 152.036 45.56 151.662 45.88C151.302 46.2133 150.709 46.38 149.882 46.38H148.302ZM135.142 46.4V28.74H142.962V35.54H137.442V46.4H135.142ZM139.862 44.38V36.8H147.502V44.38H139.862ZM142.002 42.64H145.382V41.36H142.002V42.64ZM142.002 39.8H145.382V38.54H142.002V39.8ZM146.602 33.86H149.902V32.86H146.602V33.86ZM137.442 33.86H140.722V32.86H137.442V33.86ZM146.602 31.42H149.902V30.44H146.602V31.42ZM137.442 31.42H140.722V30.44H137.442V31.42Z" fill="#D84830"/>
<path d="M121.522 46.4801V42.1401H112.502V40.0601H115.882V35.1001H121.522V32.7401H117.462C116.982 33.5001 116.462 34.2201 115.902 34.9001C115.356 35.5667 114.782 36.1734 114.182 36.7201C113.969 36.4934 113.689 36.2401 113.342 35.9601C113.009 35.6801 112.656 35.4467 112.282 35.2601C113.016 34.6601 113.709 33.9534 114.362 33.1401C115.016 32.3134 115.582 31.4601 116.062 30.5801C116.556 29.6867 116.922 28.8467 117.162 28.0601L119.422 28.7601C119.196 29.3867 118.936 30.0001 118.642 30.6001H129.882V32.7401H124.002V35.1001H128.462V37.1801H124.002V40.0601H130.742V42.1401H124.002V46.4801H121.522ZM118.342 40.0601H121.522V37.1801H118.342V40.0601Z" fill="#D84830"/>
<path d="M77.2606 46.4401L60.2006 29.3201L61.2006 28.3201L78.2606 45.4401L77.2606 46.4401Z" fill="#D84830"/>
<path d="M386.875 17C386.755 17 386.655 16.96 386.575 16.88C386.495 16.7867 386.455 16.68 386.455 16.56C386.455 16.5067 386.468 16.4467 386.495 16.38L391.315 5.38H385.035C384.888 5.38 384.768 5.33333 384.675 5.24C384.595 5.14667 384.555 5.03333 384.555 4.9V3.5C384.555 3.35333 384.595 3.23333 384.675 3.14C384.768 3.04667 384.888 3 385.035 3H393.815C393.962 3 394.075 3.04667 394.155 3.14C394.248 3.23333 394.295 3.35333 394.295 3.5V4.74C394.295 4.92667 394.275 5.08667 394.235 5.22C394.208 5.34 394.168 5.46667 394.115 5.6L389.335 16.52C389.295 16.6133 389.222 16.72 389.115 16.84C389.022 16.9467 388.882 17 388.695 17H386.875Z" fill="#D84830"/>
<path d="M376.46 17.2C375.314 17.2 374.327 16.9867 373.5 16.56C372.674 16.12 372.034 15.5333 371.58 14.8C371.127 14.0533 370.9 13.22 370.9 12.3C370.9 11.8867 370.954 11.4867 371.06 11.1C371.167 10.7133 371.307 10.3467 371.48 10C371.654 9.65333 371.82 9.34667 371.98 9.08C372.154 8.8 372.307 8.58 372.44 8.42L376.1 3.4C376.154 3.33333 376.234 3.25333 376.34 3.16C376.447 3.05333 376.594 3 376.78 3H378.64C378.76 3 378.86 3.04667 378.94 3.14C379.02 3.22 379.06 3.32 379.06 3.44C379.06 3.49333 379.047 3.54667 379.02 3.6C379.007 3.64 378.987 3.67333 378.96 3.7L376.16 7.58C376.28 7.54 376.42 7.51333 376.58 7.5C376.74 7.48667 376.887 7.48 377.02 7.48C377.687 7.49333 378.32 7.62667 378.92 7.88C379.52 8.12 380.047 8.45333 380.5 8.88C380.954 9.30667 381.307 9.80667 381.56 10.38C381.827 10.9533 381.96 11.58 381.96 12.26C381.96 13.14 381.74 13.96 381.3 14.72C380.86 15.4667 380.227 16.0667 379.4 16.52C378.587 16.9733 377.607 17.2 376.46 17.2ZM376.44 14.9C376.92 14.9 377.36 14.8 377.76 14.6C378.174 14.4 378.507 14.1067 378.76 13.72C379.014 13.3333 379.14 12.8533 379.14 12.28C379.14 11.72 379.014 11.2467 378.76 10.86C378.507 10.4733 378.174 10.18 377.76 9.98C377.36 9.78 376.92 9.68 376.44 9.68C375.96 9.68 375.514 9.78 375.1 9.98C374.7 10.18 374.374 10.4733 374.12 10.86C373.867 11.2467 373.74 11.72 373.74 12.28C373.74 12.8533 373.867 13.3333 374.12 13.72C374.374 14.1067 374.7 14.4 375.1 14.6C375.514 14.8 375.96 14.9 376.44 14.9Z" fill="#D84830"/>
<path d="M351.833 17C351.7 17 351.587 16.9534 351.493 16.86C351.4 16.7667 351.354 16.6534 351.354 16.52V7.08003C351.354 6.9467 351.4 6.83336 351.493 6.74003C351.587 6.6467 351.7 6.60003 351.833 6.60003H353.393C353.527 6.60003 353.64 6.6467 353.734 6.74003C353.827 6.83336 353.874 6.9467 353.874 7.08003V7.76003C354.154 7.3867 354.527 7.07336 354.993 6.82003C355.473 6.55336 356.04 6.41336 356.694 6.40003C358.214 6.37336 359.274 6.9667 359.874 8.18003C360.18 7.6467 360.62 7.22003 361.194 6.90003C361.78 6.5667 362.427 6.40003 363.134 6.40003C363.827 6.40003 364.454 6.56003 365.014 6.88003C365.587 7.20003 366.034 7.6867 366.354 8.34003C366.687 8.98003 366.854 9.79336 366.854 10.78V16.52C366.854 16.6534 366.807 16.7667 366.714 16.86C366.62 16.9534 366.507 17 366.374 17H364.734C364.6 17 364.487 16.9534 364.394 16.86C364.3 16.7667 364.254 16.6534 364.254 16.52V10.94C364.254 10.34 364.167 9.8667 363.993 9.52003C363.82 9.16003 363.587 8.9067 363.294 8.76003C363 8.61336 362.674 8.54003 362.314 8.54003C362.02 8.54003 361.727 8.61336 361.434 8.76003C361.14 8.9067 360.9 9.16003 360.714 9.52003C360.527 9.8667 360.434 10.34 360.434 10.94V16.52C360.434 16.6534 360.387 16.7667 360.294 16.86C360.2 16.9534 360.087 17 359.954 17H358.314C358.167 17 358.047 16.9534 357.954 16.86C357.874 16.7667 357.833 16.6534 357.833 16.52V10.94C357.833 10.34 357.74 9.8667 357.553 9.52003C357.367 9.16003 357.127 8.9067 356.833 8.76003C356.54 8.61336 356.227 8.54003 355.893 8.54003C355.587 8.54003 355.287 8.62003 354.993 8.78003C354.7 8.9267 354.46 9.17336 354.273 9.52003C354.087 9.8667 353.993 10.34 353.993 10.94V16.52C353.993 16.6534 353.947 16.7667 353.854 16.86C353.76 16.9534 353.647 17 353.514 17H351.833Z" fill="#D84830"/>
<path d="M341.494 17.0001C341.36 17.0001 341.247 16.9534 341.154 16.8601C341.06 16.7668 341.014 16.6534 341.014 16.5201V7.1001C341.014 6.95343 341.06 6.83343 341.154 6.7401C341.247 6.64676 341.36 6.6001 341.494 6.6001H343.114C343.247 6.6001 343.36 6.64676 343.454 6.7401C343.56 6.83343 343.614 6.95343 343.614 7.1001V7.9201C343.92 7.49343 344.314 7.16676 344.794 6.9401C345.287 6.71343 345.854 6.6001 346.494 6.6001H347.314C347.46 6.6001 347.574 6.64676 347.654 6.7401C347.747 6.83343 347.794 6.94676 347.794 7.0801V8.5201C347.794 8.65343 347.747 8.76676 347.654 8.8601C347.574 8.95343 347.46 9.0001 347.314 9.0001H345.754C345.114 9.0001 344.614 9.1801 344.254 9.5401C343.907 9.9001 343.734 10.3934 343.734 11.0201V16.5201C343.734 16.6534 343.687 16.7668 343.594 16.8601C343.5 16.9534 343.38 17.0001 343.234 17.0001H341.494Z" fill="#D84830"/>
<path d="M330.608 17.1999C329.915 17.1999 329.288 17.0666 328.728 16.7999C328.168 16.5199 327.721 16.1532 327.388 15.6999C327.068 15.2332 326.908 14.7132 326.908 14.1399C326.908 13.2066 327.281 12.4666 328.028 11.9199C328.788 11.3599 329.788 10.9866 331.028 10.7999L333.768 10.3999V9.9799C333.768 9.4199 333.628 8.98657 333.348 8.6799C333.068 8.37324 332.588 8.2199 331.908 8.2199C331.428 8.2199 331.035 8.3199 330.728 8.5199C330.435 8.70657 330.215 8.9599 330.068 9.2799C329.961 9.45324 329.808 9.5399 329.608 9.5399H328.028C327.881 9.5399 327.768 9.4999 327.688 9.4199C327.621 9.3399 327.588 9.23324 327.588 9.0999C327.601 8.88657 327.688 8.62657 327.848 8.3199C328.008 8.01324 328.261 7.7199 328.608 7.4399C328.955 7.14657 329.401 6.8999 329.948 6.6999C330.495 6.4999 331.155 6.3999 331.928 6.3999C332.768 6.3999 333.475 6.50657 334.048 6.7199C334.635 6.9199 335.101 7.19324 335.448 7.5399C335.795 7.88657 336.048 8.29324 336.208 8.7599C336.368 9.22657 336.448 9.7199 336.448 10.2399V16.5199C336.448 16.6532 336.401 16.7666 336.308 16.8599C336.215 16.9532 336.101 16.9999 335.968 16.9999H334.348C334.201 16.9999 334.081 16.9532 333.988 16.8599C333.908 16.7666 333.868 16.6532 333.868 16.5199V15.7399C333.695 15.9932 333.461 16.2332 333.168 16.4599C332.875 16.6732 332.515 16.8532 332.088 16.9999C331.675 17.1332 331.181 17.1999 330.608 17.1999ZM331.288 15.2999C331.755 15.2999 332.175 15.1999 332.548 14.9999C332.935 14.7999 333.235 14.4932 333.448 14.0799C333.675 13.6532 333.788 13.1199 333.788 12.4799V12.0599L331.788 12.3799C331.001 12.4999 330.415 12.6932 330.028 12.9599C329.641 13.2266 329.448 13.5532 329.448 13.9399C329.448 14.2332 329.535 14.4866 329.708 14.6999C329.895 14.8999 330.128 15.0532 330.408 15.1599C330.688 15.2532 330.981 15.2999 331.288 15.2999Z" fill="#D84830"/>
<path d="M314.804 17C314.671 17 314.557 16.9533 314.464 16.86C314.371 16.7667 314.324 16.6533 314.324 16.52V3.5C314.324 3.35333 314.371 3.23333 314.464 3.14C314.557 3.04667 314.671 3 314.804 3H323.484C323.631 3 323.751 3.04667 323.844 3.14C323.937 3.23333 323.984 3.35333 323.984 3.5V4.9C323.984 5.04667 323.937 5.16667 323.844 5.26C323.751 5.34 323.631 5.38 323.484 5.38H317.064V9.18H323.084C323.231 9.18 323.351 9.22667 323.444 9.32C323.537 9.41333 323.584 9.53333 323.584 9.68V11.08C323.584 11.2133 323.537 11.3267 323.444 11.42C323.351 11.5133 323.231 11.56 323.084 11.56H317.064V16.52C317.064 16.6533 317.017 16.7667 316.924 16.86C316.831 16.9533 316.711 17 316.564 17H314.804Z" fill="#D84830"/>
<path d="M298.364 15.1V5.56H301.504C301.544 5.38667 301.584 5.20667 301.624 5.02C301.664 4.82 301.697 4.63333 301.724 4.46H296.924V2.52H299.784C299.611 2.21333 299.431 1.90667 299.244 1.6C299.057 1.29333 298.891 1.04 298.744 0.84L300.764 0.02C300.991 0.313334 301.244 0.706667 301.524 1.2C301.817 1.69333 302.057 2.13333 302.244 2.52H303.944C304.131 2.14667 304.331 1.72 304.544 1.24C304.771 0.746666 304.931 0.333333 305.024 0L307.364 0.579999C307.257 0.833333 307.111 1.14 306.924 1.5C306.751 1.84667 306.571 2.18667 306.384 2.52H309.504V4.46H304.224C304.184 4.63333 304.144 4.82 304.104 5.02C304.064 5.20667 304.024 5.38667 303.984 5.56H308.264V15.1H298.364ZM302.724 18.2C301.311 18.2 300.144 18.1267 299.224 17.98C298.317 17.8467 297.571 17.6333 296.984 17.34C296.411 17.06 295.911 16.7067 295.484 16.28C295.244 16.4667 294.917 16.68 294.504 16.92C294.104 17.1467 293.697 17.3733 293.284 17.6C292.871 17.8267 292.524 18.02 292.244 18.18L291.324 15.92C291.551 15.84 291.857 15.7267 292.244 15.58C292.631 15.4333 293.017 15.28 293.404 15.12C293.791 14.9467 294.084 14.7933 294.284 14.66V9.6H291.724V7.52H296.464V14.36C296.624 14.7867 296.937 15.1333 297.404 15.4C297.871 15.6533 298.537 15.84 299.404 15.96C300.271 16.0667 301.377 16.12 302.724 16.12C304.431 16.12 305.897 16.0933 307.124 16.04C308.351 15.9867 309.344 15.9067 310.104 15.8C310.037 15.9467 309.964 16.1733 309.884 16.48C309.804 16.7733 309.737 17.0733 309.684 17.38C309.631 17.7 309.597 17.96 309.584 18.16C309.211 18.16 308.724 18.16 308.124 18.16C307.524 18.1733 306.884 18.18 306.204 18.18C305.537 18.1933 304.897 18.2 304.284 18.2C303.671 18.2 303.151 18.2 302.724 18.2ZM295.004 5.12C294.777 4.78667 294.491 4.42667 294.144 4.04C293.797 3.65333 293.431 3.28 293.044 2.92C292.671 2.56 292.311 2.26 291.964 2.02L293.564 0.54C293.884 0.753333 294.244 1.04 294.644 1.4C295.044 1.76 295.431 2.13333 295.804 2.52C296.177 2.89333 296.477 3.22667 296.704 3.52C296.571 3.61333 296.391 3.76667 296.164 3.98C295.937 4.18 295.717 4.38667 295.504 4.6C295.291 4.81333 295.124 4.98667 295.004 5.12ZM300.684 13.42H305.924V12.38H300.684V13.42ZM300.684 10.82H305.924V9.8H300.684V10.82ZM300.684 8.24H305.924V7.24H300.684V8.24Z" fill="#D84830"/>
<path d="M271.644 18.4601V10.5601C271.311 10.8934 270.971 11.2134 270.624 11.5201C270.531 11.3867 270.384 11.2267 270.184 11.0401C269.984 10.8534 269.764 10.6734 269.524 10.5001C269.297 10.3134 269.091 10.1734 268.904 10.0801C269.291 9.7734 269.704 9.3934 270.144 8.94007C270.584 8.48674 271.017 8.00007 271.444 7.48007C271.884 6.94674 272.271 6.42007 272.604 5.90007C272.951 5.36674 273.217 4.88007 273.404 4.44007L275.404 5.32007C275.337 5.48007 275.257 5.64674 275.164 5.82007C275.084 5.98007 274.997 6.14007 274.904 6.30007H277.484V4.36007H275.344V2.40007H277.484V0.400069H279.764V2.40007H281.864V4.36007H279.764V6.30007H282.104V8.30007H274.904V6.30007C274.757 6.5534 274.604 6.8134 274.444 7.08007C274.284 7.3334 274.111 7.5934 273.924 7.86007V18.4601H271.644ZM274.904 17.1601L274.424 15.0001C274.731 14.9734 275.157 14.9267 275.704 14.8601C276.251 14.7934 276.844 14.7201 277.484 14.6401V12.5801H275.104V10.5401H277.484V8.74007H279.764V10.5401H282.044V12.5801H279.764V14.3401C280.377 14.2467 280.931 14.1601 281.424 14.0801C281.931 14.0001 282.324 13.9334 282.604 13.8801V15.8801C282.297 15.9601 281.891 16.0467 281.384 16.1401C280.891 16.2334 280.337 16.3334 279.724 16.4401C279.124 16.5334 278.517 16.6267 277.904 16.7201C277.291 16.8134 276.724 16.9001 276.204 16.9801C275.684 17.0601 275.251 17.1201 274.904 17.1601ZM282.764 18.4401C282.751 18.2267 282.717 17.9734 282.664 17.6801C282.611 17.3867 282.551 17.1001 282.484 16.8201C282.417 16.5267 282.344 16.2934 282.264 16.1201H283.384C283.651 16.1201 283.831 16.0801 283.924 16.0001C284.031 15.9067 284.084 15.7334 284.084 15.4801V8.08007H282.504V6.02007H287.904V8.08007H286.384V16.4201C286.384 17.7667 285.557 18.4401 283.904 18.4401H282.764ZM270.804 5.46007C270.617 5.16674 270.391 4.8534 270.124 4.52007C269.857 4.18674 269.584 3.9134 269.304 3.70007C270.144 3.2334 270.917 2.70674 271.624 2.12007C272.331 1.52007 272.897 0.920069 273.324 0.320068L275.044 1.64007C274.684 2.10674 274.264 2.5734 273.784 3.04007C273.304 3.50674 272.804 3.94674 272.284 4.36007C271.777 4.7734 271.284 5.14007 270.804 5.46007ZM282.704 3.38007V1.30007H287.524V3.38007H282.704Z" fill="#D84830"/>
<path d="M249.384 8.61993V4.21993H252.924V3.21993H247.944V1.43993H252.924V0.179932H255.164V1.43993H258.324V0.179932H260.564V1.43993H265.464V3.21993H260.564V4.21993H264.084V8.61993H249.384ZM249.804 18.8799C249.711 18.6266 249.577 18.3066 249.404 17.9199C249.244 17.5333 249.071 17.2133 248.884 16.9599C249.777 16.8666 250.697 16.7266 251.644 16.5399C252.591 16.3533 253.504 16.1199 254.384 15.8399C254.197 15.6533 253.977 15.4399 253.724 15.1999C253.484 14.9599 253.251 14.7399 253.024 14.5399C252.691 14.6999 252.351 14.8466 252.004 14.9799C251.657 15.1133 251.311 15.2399 250.964 15.3599C250.844 15.0933 250.671 14.7933 250.444 14.4599C250.217 14.1266 250.011 13.8733 249.824 13.6999C250.744 13.4599 251.677 13.0933 252.624 12.5999C253.571 12.1066 254.417 11.5666 255.164 10.9799H250.064V12.7999H247.844V9.25993H265.684V12.7999H263.484V10.9799H257.884C257.751 11.1133 257.611 11.2533 257.464 11.3999C257.317 11.5333 257.171 11.6733 257.024 11.8199H261.904L262.644 12.6199C261.311 14.3933 259.597 15.7733 257.504 16.7599C255.424 17.7333 252.857 18.4399 249.804 18.8799ZM256.524 15.0399C257.604 14.5599 258.464 14.0199 259.104 13.4199H254.984C254.904 13.4733 254.844 13.5066 254.804 13.5199C255.044 13.7066 255.317 13.9399 255.624 14.2199C255.944 14.4999 256.244 14.7733 256.524 15.0399ZM255.164 4.21993H258.324V3.21993H255.164V4.21993ZM259.744 7.01993H261.964V5.81993H259.744V7.01993ZM251.524 7.01993H253.604V5.81993H251.524V7.01993ZM255.684 7.01993H257.684V5.81993H255.684V7.01993Z" fill="#D84830"/>
<path d="M233.442 8.69999L232.802 7.59999C233.468 7.42666 234.002 7.11999 234.402 6.67999C234.815 6.23999 235.022 5.77332 235.022 5.27999C235.022 5.18666 235.015 5.10666 235.002 5.03999C234.988 4.97332 234.975 4.91332 234.962 4.85999C234.828 5.04666 234.662 5.19999 234.462 5.31999C234.275 5.43999 234.068 5.49999 233.842 5.49999C233.468 5.49999 233.148 5.37332 232.882 5.11999C232.615 4.86666 232.482 4.53332 232.482 4.11999C232.482 3.69332 232.635 3.35999 232.942 3.11999C233.262 2.87999 233.635 2.75332 234.062 2.73999C234.715 2.73999 235.255 2.98666 235.682 3.47999C236.122 3.95999 236.342 4.57999 236.342 5.33999C236.342 6.15332 236.075 6.83999 235.542 7.39999C235.008 7.95999 234.308 8.39332 233.442 8.69999ZM228.802 8.69999L228.182 7.59999C228.848 7.42666 229.382 7.11999 229.782 6.67999C230.182 6.23999 230.382 5.77332 230.382 5.27999C230.382 5.18666 230.375 5.10666 230.362 5.03999C230.362 4.97332 230.355 4.91332 230.342 4.85999C230.208 5.04666 230.042 5.19999 229.842 5.31999C229.642 5.43999 229.435 5.49999 229.222 5.49999C228.848 5.49999 228.522 5.37332 228.242 5.11999C227.975 4.86666 227.842 4.53332 227.842 4.11999C227.842 3.69332 228.002 3.35999 228.322 3.11999C228.642 2.87999 229.008 2.75332 229.422 2.73999C230.075 2.73999 230.615 2.98666 231.042 3.47999C231.482 3.95999 231.702 4.57999 231.702 5.33999C231.702 6.15332 231.435 6.83999 230.902 7.39999C230.382 7.95999 229.682 8.39332 228.802 8.69999Z" fill="#D84830"/>
<path d="M215.562 17.64C213.962 17.64 212.782 17.34 212.022 16.74C211.262 16.1267 210.882 15.38 210.882 14.5C210.882 13.9267 211.022 13.44 211.302 13.04C211.582 12.64 211.948 12.3333 212.402 12.12C212.855 11.8933 213.342 11.78 213.862 11.78C214.848 11.78 215.642 12.0867 216.242 12.7C216.855 13.3133 217.248 14.0733 217.422 14.98C217.915 14.7533 218.315 14.4067 218.622 13.94C218.942 13.4733 219.102 12.9133 219.102 12.26C219.102 11.7 218.968 11.2 218.702 10.76C218.435 10.32 218.055 9.97333 217.562 9.72C217.082 9.45333 216.522 9.32 215.882 9.32C214.988 9.32 214.208 9.42667 213.542 9.64C212.888 9.85333 212.295 10.1933 211.762 10.66C211.522 10.8733 211.202 11.1467 210.802 11.48C210.415 11.8133 210.048 12.1133 209.702 12.38L208.062 10.62C208.662 10.2733 209.302 9.83333 209.982 9.3C210.662 8.76667 211.348 8.17333 212.042 7.52C212.735 6.86667 213.395 6.19333 214.022 5.5C214.648 4.79333 215.208 4.1 215.702 3.42C215.128 3.55333 214.502 3.68 213.822 3.8C213.155 3.92 212.508 4.02 211.882 4.1C211.268 4.18 210.748 4.23333 210.322 4.26L209.882 1.98C210.242 2.00667 210.688 2.00667 211.222 1.98C211.768 1.94 212.355 1.89333 212.982 1.84C213.608 1.77333 214.215 1.69333 214.802 1.6C215.402 1.50667 215.935 1.41333 216.402 1.32C216.882 1.21333 217.235 1.10667 217.462 1L219.262 2.2C218.808 3.09333 218.182 4.03333 217.382 5.02C216.595 5.99333 215.748 6.93333 214.842 7.84C215.068 7.73333 215.322 7.65333 215.602 7.6C215.882 7.53333 216.155 7.5 216.422 7.5C217.475 7.5 218.388 7.7 219.162 8.1C219.935 8.5 220.535 9.06 220.962 9.78C221.402 10.4867 221.622 11.3133 221.622 12.26C221.622 13.26 221.368 14.1667 220.862 14.98C220.368 15.7933 219.668 16.44 218.762 16.92C217.855 17.4 216.788 17.64 215.562 17.64ZM215.302 15.44C215.235 14.9333 215.075 14.5267 214.822 14.22C214.582 13.9133 214.262 13.76 213.862 13.76C213.648 13.76 213.468 13.8133 213.322 13.92C213.175 14.0267 213.102 14.1867 213.102 14.4C213.102 14.68 213.248 14.9133 213.542 15.1C213.848 15.2867 214.355 15.3933 215.062 15.42C215.102 15.4333 215.142 15.44 215.182 15.44C215.222 15.44 215.262 15.44 215.302 15.44Z" fill="#D84830"/>
<path d="M196.022 18.14C194.395 18.22 192.968 18.14 191.742 17.9C190.515 17.6734 189.562 17.2467 188.882 16.62C188.215 15.98 187.882 15.1067 187.882 14C187.882 13.36 188.055 12.8 188.402 12.32C188.748 11.8267 189.222 11.4267 189.822 11.12C190.422 10.8134 191.108 10.6067 191.882 10.5C192.668 10.3934 193.495 10.3934 194.362 10.5C194.148 10.22 193.942 9.92669 193.742 9.62002C193.542 9.31335 193.348 9.00002 193.162 8.68002C191.908 8.89335 190.682 9.06669 189.482 9.20002C188.295 9.32002 187.275 9.37335 186.422 9.36002L185.962 7.24002C186.708 7.26669 187.628 7.23335 188.722 7.14002C189.815 7.03335 190.942 6.88669 192.102 6.70002C191.822 6.12669 191.568 5.56002 191.342 5.00002C190.542 5.10669 189.762 5.19335 189.002 5.26002C188.255 5.32669 187.602 5.36669 187.042 5.38002L186.582 3.30002C187.128 3.31335 187.748 3.30002 188.442 3.26002C189.148 3.20669 189.868 3.13335 190.602 3.04002C190.308 2.17335 190.108 1.42669 190.002 0.80002L192.362 0.52002C192.428 1.12002 192.602 1.84669 192.882 2.70002C193.628 2.56669 194.335 2.42002 195.002 2.26002C195.682 2.08669 196.248 1.91335 196.702 1.74002L197.302 3.78002C196.862 3.94002 196.322 4.09335 195.682 4.24002C195.042 4.38669 194.355 4.52669 193.622 4.66002C193.728 4.92669 193.842 5.20002 193.962 5.48002C194.095 5.74669 194.228 6.01335 194.362 6.28002C195.335 6.08002 196.222 5.86669 197.022 5.64002C197.835 5.40002 198.475 5.16002 198.942 4.92002L199.722 6.90002C199.228 7.14002 198.608 7.37335 197.862 7.60002C197.128 7.82669 196.328 8.03335 195.462 8.22002C195.888 8.91335 196.335 9.56002 196.802 10.16C197.282 10.7467 197.768 11.24 198.262 11.64L196.782 13.22C196.022 12.7934 195.262 12.52 194.502 12.4C193.755 12.2667 193.068 12.2467 192.442 12.34C191.815 12.4334 191.308 12.6134 190.922 12.88C190.548 13.1467 190.362 13.4667 190.362 13.84C190.362 14.4534 190.642 14.9134 191.202 15.22C191.775 15.5267 192.548 15.7134 193.522 15.78C194.495 15.8467 195.595 15.84 196.822 15.76C196.688 15.96 196.562 16.2134 196.442 16.52C196.335 16.8134 196.242 17.1067 196.162 17.4C196.082 17.6934 196.035 17.94 196.022 18.14Z" fill="#D84830"/>
<path d="M175.602 17.7799C174.215 17.6199 172.988 17.2132 171.922 16.5599C170.855 15.9065 170.022 15.0599 169.422 14.0199C168.835 12.9799 168.542 11.7932 168.542 10.4599C168.542 9.49988 168.768 8.51988 169.222 7.51988C169.688 6.51988 170.382 5.63322 171.302 4.85988C170.235 5.03322 169.168 5.21988 168.102 5.41988C167.048 5.61988 166.088 5.80655 165.222 5.97988C164.368 6.15322 163.708 6.29988 163.242 6.41988L162.702 3.83988C163.142 3.81322 163.748 3.75322 164.522 3.65988C165.308 3.56655 166.188 3.45322 167.162 3.31988C168.148 3.17322 169.162 3.01988 170.202 2.85988C171.255 2.68655 172.268 2.51322 173.242 2.33988C174.228 2.16655 175.108 1.99988 175.882 1.83988C176.668 1.66655 177.282 1.51322 177.722 1.37988L178.362 3.81988C178.148 3.83322 177.888 3.85988 177.582 3.89988C177.288 3.93988 176.955 3.98655 176.582 4.03988C175.848 4.13322 175.148 4.35988 174.482 4.71988C173.815 5.07988 173.215 5.54655 172.682 6.11988C172.162 6.69322 171.748 7.34655 171.442 8.07988C171.135 8.81322 170.982 9.60655 170.982 10.4599C170.982 11.4865 171.242 12.3399 171.762 13.0199C172.282 13.6999 172.988 14.2332 173.882 14.6199C174.788 14.9932 175.802 15.2465 176.922 15.3799C176.722 15.5799 176.528 15.8332 176.342 16.1399C176.155 16.4332 175.995 16.7266 175.862 17.0199C175.728 17.3266 175.642 17.5799 175.602 17.7799ZM179.082 8.59988C178.828 8.18655 178.488 7.74655 178.062 7.27988C177.648 6.81322 177.268 6.43988 176.922 6.15988L178.002 5.25988C178.202 5.41988 178.442 5.65322 178.722 5.95988C179.015 6.26655 179.302 6.57988 179.582 6.89988C179.862 7.20655 180.075 7.47322 180.222 7.69988L179.082 8.59988ZM177.282 10.1199C177.028 9.69322 176.695 9.24655 176.282 8.77988C175.868 8.31322 175.488 7.93322 175.142 7.63988L176.242 6.75988C176.442 6.91988 176.682 7.15322 176.962 7.45988C177.242 7.76655 177.515 8.07988 177.782 8.39988C178.062 8.71988 178.275 8.98655 178.422 9.19988L177.282 10.1199Z" fill="#D84830"/>
<path d="M148.622 18.6001C148.555 18.4401 148.448 18.2467 148.302 18.0201C148.155 17.8067 147.995 17.5867 147.822 17.3601C147.662 17.1467 147.508 16.9734 147.362 16.8401C148.388 16.4934 149.275 16.0201 150.022 15.4201C150.768 14.8067 151.288 14.0534 151.582 13.1601H148.362V8.12008H151.822V6.96008H149.522V5.68008C149.295 5.85341 149.068 6.02008 148.842 6.18008C148.615 6.32674 148.402 6.46008 148.202 6.58008C148.108 6.42008 147.962 6.22008 147.762 5.98008C147.562 5.72674 147.362 5.50008 147.162 5.30008V5.50008H145.422V6.66008H147.162V8.40008H145.422V9.72008H147.782C147.782 10.4801 147.768 11.2801 147.742 12.1201C147.715 12.9467 147.668 13.7334 147.602 14.4801C147.548 15.2134 147.468 15.8267 147.362 16.3201C147.188 17.1067 146.895 17.6534 146.482 17.9601C146.082 18.2801 145.455 18.4401 144.602 18.4401H143.562C143.548 18.1734 143.502 17.8334 143.422 17.4201C143.342 17.0201 143.255 16.7134 143.162 16.5001H144.262C144.662 16.5001 144.948 16.4401 145.122 16.3201C145.295 16.2001 145.435 15.9134 145.542 15.4601C145.568 15.3534 145.595 15.2267 145.622 15.0801C145.648 14.9201 145.668 14.7534 145.682 14.5801C145.548 14.6201 145.402 14.6601 145.242 14.7001C145.095 14.7401 144.988 14.7734 144.922 14.8001C144.868 14.4134 144.782 13.9534 144.662 13.4201C144.555 12.8867 144.442 12.4467 144.322 12.1001L145.342 11.8401C145.408 12.0134 145.475 12.2334 145.542 12.5001C145.622 12.7667 145.695 13.0401 145.762 13.3201C145.775 12.9867 145.782 12.6601 145.782 12.3401C145.795 12.0067 145.802 11.7001 145.802 11.4201H140.442V0.820078H147.862V2.60008H145.422V3.76008H147.162V4.80008C147.775 4.46674 148.388 4.04008 149.002 3.52008C149.628 2.98674 150.195 2.42008 150.702 1.82008C151.208 1.20674 151.582 0.626744 151.822 0.0800781L153.462 0.400077C153.822 0.893411 154.288 1.39341 154.862 1.90008C155.448 2.40674 156.088 2.87341 156.782 3.30008C157.475 3.72674 158.162 4.07341 158.842 4.34008C158.588 4.59341 158.335 4.91341 158.082 5.30008C157.842 5.68674 157.675 6.00674 157.582 6.26008C157.355 6.15341 157.122 6.03341 156.882 5.90008C156.642 5.76674 156.402 5.62008 156.162 5.46008V6.96008H153.922V8.12008H157.502V13.1601H154.342C154.715 13.9734 155.308 14.6801 156.122 15.2801C156.948 15.8801 157.828 16.3534 158.762 16.7001C158.615 16.8334 158.448 17.0134 158.262 17.2401C158.088 17.4801 157.922 17.7201 157.762 17.9601C157.615 18.2001 157.502 18.4001 157.422 18.5601C156.568 18.1734 155.755 17.6867 154.982 17.1001C154.222 16.5134 153.588 15.8067 153.082 14.9801C152.602 15.8201 151.968 16.5334 151.182 17.1201C150.408 17.7067 149.555 18.2001 148.622 18.6001ZM150.242 5.10008H155.622C155.062 4.70008 154.528 4.26674 154.022 3.80008C153.515 3.33341 153.088 2.88674 152.742 2.46008C152.448 2.88674 152.082 3.33341 151.642 3.80008C151.202 4.25341 150.735 4.68674 150.242 5.10008ZM139.642 16.0201C139.668 15.7267 139.682 15.3734 139.682 14.9601C139.695 14.5334 139.695 14.1134 139.682 13.7001C139.682 13.2734 139.662 12.9134 139.622 12.6201L141.002 12.4601C141.028 12.7401 141.048 13.0934 141.062 13.5201C141.088 13.9334 141.102 14.3534 141.102 14.7801C141.115 15.2067 141.122 15.5801 141.122 15.9001C140.908 15.8867 140.662 15.8934 140.382 15.9201C140.115 15.9467 139.868 15.9801 139.642 16.0201ZM141.582 15.5601C141.582 15.3201 141.568 15.0067 141.542 14.6201C141.515 14.2201 141.482 13.8334 141.442 13.4601C141.415 13.0734 141.382 12.7801 141.342 12.5801L142.522 12.4201C142.575 12.6601 142.622 12.9667 142.662 13.3401C142.715 13.7001 142.755 14.0601 142.782 14.4201C142.822 14.7801 142.848 15.0867 142.862 15.3401C142.728 15.3534 142.522 15.3867 142.242 15.4401C141.962 15.4934 141.742 15.5334 141.582 15.5601ZM143.302 15.1801C143.288 14.9267 143.255 14.6201 143.202 14.2601C143.162 13.9001 143.108 13.5467 143.042 13.2001C142.988 12.8534 142.928 12.5734 142.862 12.3601L143.982 12.1601C144.048 12.4001 144.115 12.6934 144.182 13.0401C144.248 13.3867 144.308 13.7334 144.362 14.0801C144.415 14.4134 144.448 14.7001 144.462 14.9401C144.395 14.9534 144.282 14.9801 144.122 15.0201C143.962 15.0467 143.802 15.0801 143.642 15.1201C143.482 15.1467 143.368 15.1667 143.302 15.1801ZM153.922 11.3601H155.522V9.92008H153.922V11.3601ZM150.342 11.3601H151.822V9.92008H150.342V11.3601ZM142.342 9.72008H143.642V8.40008H142.342V9.72008ZM142.342 6.66008H143.642V5.50008H142.342V6.66008ZM142.342 3.76008H143.642V2.60008H142.342V3.76008Z" fill="#D84830"/>
<path d="M128.262 18.48V15.46H125.962V13.1H128.262V9.32003C127.822 10.0267 127.342 10.7334 126.822 11.44C126.302 12.1334 125.775 12.78 125.242 13.38C124.722 13.98 124.215 14.5 123.722 14.94C123.588 14.78 123.422 14.6 123.222 14.4C123.022 14.2 122.815 14.0134 122.602 13.84V18.46H120.222V8.64003C120.008 8.9067 119.795 9.1667 119.582 9.42003C119.382 9.66003 119.175 9.89336 118.962 10.12C118.748 9.88003 118.475 9.63336 118.142 9.38003C117.822 9.11336 117.508 8.9067 117.202 8.76003C117.682 8.3067 118.168 7.72003 118.662 7.00003C119.155 6.28003 119.615 5.5067 120.042 4.68003C120.482 3.85336 120.855 3.05336 121.162 2.28003C121.482 1.5067 121.702 0.840029 121.822 0.280029L124.062 0.880029C123.902 1.49336 123.695 2.1267 123.442 2.78003C123.188 3.43336 122.908 4.0867 122.602 4.74003V12.78C123.148 12.26 123.728 11.6334 124.342 10.9C124.955 10.1667 125.535 9.4067 126.082 8.62003C126.628 7.82003 127.082 7.06003 127.442 6.34003H123.422V4.12003H128.262V0.300029H130.602V4.12003H135.782V6.34003H131.142C131.448 6.94003 131.828 7.5667 132.282 8.22003C132.748 8.87336 133.248 9.51336 133.782 10.14C134.315 10.7667 134.842 11.3467 135.362 11.88C135.882 12.4 136.348 12.8334 136.762 13.18C136.588 13.2734 136.382 13.42 136.142 13.62C135.915 13.82 135.688 14.0334 135.462 14.26C135.248 14.4734 135.075 14.6734 134.942 14.86C134.248 14.2334 133.508 13.4467 132.722 12.5C131.948 11.54 131.242 10.5534 130.602 9.54003V13.1H132.802V15.46H130.602V18.48H128.262Z" fill="#D84830"/>
<path d="M103.342 14.9801C102.675 15.3535 102.048 15.5068 101.462 15.4401C100.875 15.3601 100.355 14.9801 99.9018 14.3001C99.4884 13.6601 99.1084 12.9068 98.7618 12.0401C98.4151 11.1735 98.1151 10.2535 97.8618 9.28012C97.6218 8.30678 97.4351 7.33345 97.3018 6.36012C97.1818 5.38678 97.1284 4.47345 97.1418 3.62012L99.5818 3.64012C99.5418 4.29345 99.5618 5.00678 99.6418 5.78012C99.7218 6.55345 99.8484 7.33345 100.022 8.12012C100.195 8.90678 100.402 9.64012 100.642 10.3201C100.882 10.9868 101.142 11.5468 101.422 12.0001C101.608 12.3201 101.808 12.5068 102.022 12.5601C102.248 12.6001 102.488 12.5401 102.742 12.3801C103.062 12.1668 103.395 11.8735 103.742 11.5001C104.102 11.1268 104.402 10.7668 104.642 10.4201C104.708 10.6201 104.815 10.8468 104.962 11.1001C105.122 11.3535 105.288 11.6001 105.462 11.8401C105.648 12.0801 105.815 12.2735 105.962 12.4201C105.602 12.9535 105.188 13.4468 104.722 13.9001C104.268 14.3535 103.808 14.7135 103.342 14.9801ZM110.902 11.2401C110.768 10.8535 110.562 10.3735 110.282 9.80012C110.002 9.22678 109.682 8.63345 109.322 8.02012C108.962 7.39345 108.602 6.82012 108.242 6.30012C107.882 5.76678 107.548 5.35345 107.242 5.06012L109.162 3.84012C109.495 4.17345 109.862 4.62012 110.262 5.18012C110.675 5.74012 111.075 6.34012 111.462 6.98012C111.862 7.60678 112.215 8.22012 112.522 8.82012C112.828 9.40678 113.048 9.90678 113.182 10.3201C112.768 10.4001 112.348 10.5268 111.922 10.7001C111.508 10.8735 111.168 11.0535 110.902 11.2401Z" fill="#D84830"/>
<path d="M78.8618 17.9V12.18C77.8885 13.1133 77.0685 14.0067 76.4018 14.86L74.5818 13.18C75.1418 12.7267 75.7885 12.1733 76.5218 11.52C77.2551 10.8533 78.0351 10.1933 78.8618 9.54V6.84C78.2618 6.97333 77.6751 7.1 77.1018 7.22C76.5285 7.32667 76.0685 7.41333 75.7218 7.48L75.2218 5.3C75.5818 5.28667 76.1018 5.22667 76.7818 5.12C77.4751 5 78.1685 4.87333 78.8618 4.74V1H81.1018V4.16C81.2751 4.12 81.4018 4.07333 81.4818 4.02L82.7618 4.98L81.4018 7.7C82.1751 7.23333 82.9551 6.84667 83.7418 6.54C84.5285 6.23333 85.2885 6.08 86.0218 6.08C87.0751 6.08 88.0085 6.28 88.8218 6.68C89.6351 7.06667 90.2685 7.62667 90.7218 8.36C91.1885 9.08 91.4218 9.95333 91.4218 10.98C91.4218 12.5133 90.8618 13.82 89.7418 14.9C88.6218 15.98 86.9685 16.72 84.7818 17.12C84.7285 16.9067 84.6285 16.6533 84.4818 16.36C84.3485 16.0667 84.1951 15.7733 84.0218 15.48C83.8485 15.1867 83.6751 14.9467 83.5018 14.76C84.5551 14.6267 85.4951 14.4133 86.3218 14.12C87.1485 13.8133 87.8018 13.4067 88.2818 12.9C88.7618 12.38 89.0018 11.74 89.0018 10.98C89.0018 10.0333 88.7418 9.33333 88.2218 8.88C87.7018 8.41333 86.9685 8.18 86.0218 8.18C85.2885 8.18 84.4951 8.38 83.6418 8.78C82.7885 9.18 81.9418 9.69333 81.1018 10.32V17.9H78.8618Z" fill="#D84830"/>
<path d="M62.1818 18.52V12.14C61.5818 12.8066 60.9151 13.4533 60.1818 14.08C59.4618 14.6933 58.7351 15.2533 58.0018 15.76C57.2685 16.2533 56.5885 16.66 55.9618 16.98C55.8685 16.8066 55.7351 16.6066 55.5618 16.38C55.3885 16.14 55.2018 15.9133 55.0018 15.7C54.8018 15.4733 54.6151 15.3066 54.4418 15.2C55.0285 14.9466 55.6485 14.62 56.3018 14.22C56.9551 13.82 57.6018 13.38 58.2418 12.9C58.8951 12.4066 59.5018 11.9 60.0618 11.38C60.6218 10.8466 61.0951 10.3266 61.4818 9.81995H57.9818V12.46H52.2218V2.63995H57.9818V7.65995H62.1818V5.41995H58.7618V3.31995H62.1818V0.199951H64.5018V3.31995H68.5218V5.41995H64.5018V7.65995H69.9618V9.81995H64.9418C65.2885 10.3133 65.7085 10.8133 66.2018 11.32C66.6951 11.8266 67.2151 12.32 67.7618 12.8C68.3218 13.2666 68.8685 13.6933 69.4018 14.08C69.9351 14.4533 70.4151 14.7533 70.8418 14.98C70.6551 15.1133 70.4485 15.2933 70.2218 15.52C69.9951 15.7333 69.7885 15.9533 69.6018 16.18C69.4151 16.4066 69.2685 16.6066 69.1618 16.78C68.4151 16.3 67.6218 15.6733 66.7818 14.9C65.9418 14.1266 65.1818 13.2933 64.5018 12.4V18.52H62.1818ZM54.3618 10.28H55.8418V4.79995H54.3618V10.28Z" fill="#D84830"/>
<path d="M40.5418 18.06C39.4485 18.06 38.4618 17.9534 37.5818 17.74C36.7018 17.5267 36.0085 17.1867 35.5018 16.72C34.9951 16.24 34.7418 15.6134 34.7418 14.84C34.7418 14.2 34.9351 13.62 35.3218 13.1C35.7085 12.5667 36.2418 12.0867 36.9218 11.66C37.6018 11.22 38.3751 10.82 39.2418 10.46V10.3C39.2418 9.83337 39.1218 9.49337 38.8818 9.28004C38.6551 9.05337 38.3618 8.92671 38.0018 8.90004C37.3885 8.86004 36.8018 8.94671 36.2418 9.16004C35.6818 9.37337 35.1285 9.76004 34.5818 10.32C34.4218 10.48 34.2151 10.6867 33.9618 10.94C33.7085 11.18 33.4551 11.42 33.2018 11.66C32.9485 11.9 32.7285 12.1 32.5418 12.26L30.8018 10.54C31.7351 9.9267 32.6151 9.15337 33.4418 8.22004C34.2685 7.28671 34.9685 6.29337 35.5418 5.24004C34.7951 5.26671 34.1151 5.29337 33.5018 5.32004C32.8885 5.33337 32.4285 5.33337 32.1218 5.32004L32.0418 3.02004C32.4951 3.06004 33.1218 3.08004 33.9218 3.08004C34.7351 3.08004 35.6151 3.06004 36.5618 3.02004C36.8685 2.14004 37.0418 1.31337 37.0818 0.540039L39.4618 0.660038C39.4218 1.3667 39.2885 2.10004 39.0618 2.86004C40.0485 2.78004 40.9618 2.69337 41.8018 2.60004C42.6551 2.49337 43.3085 2.37337 43.7618 2.24004L43.9018 4.46004C43.5285 4.5267 43.0418 4.60004 42.4418 4.68004C41.8418 4.7467 41.1751 4.81337 40.4418 4.88004C39.7218 4.94671 38.9818 5.00671 38.2218 5.06004C38.0485 5.43337 37.8485 5.81337 37.6218 6.20004C37.4085 6.57337 37.1818 6.93337 36.9418 7.28004C37.4751 7.06671 38.0151 6.96004 38.5618 6.96004C39.3485 6.96004 40.0085 7.16671 40.5418 7.58004C41.0885 7.99337 41.4285 8.67337 41.5618 9.62004C42.3085 9.36671 43.0685 9.14004 43.8418 8.94004C44.6285 8.72671 45.3885 8.53337 46.1218 8.36004L46.8018 10.56C45.8685 10.6934 44.9618 10.86 44.0818 11.06C43.2018 11.2467 42.3818 11.46 41.6218 11.7V14.36H39.2618V12.6C38.5951 12.92 38.0618 13.2534 37.6618 13.6C37.2618 13.9334 37.0618 14.2534 37.0618 14.56C37.0618 15.0134 37.3351 15.3334 37.8818 15.52C38.4285 15.6934 39.2618 15.78 40.3818 15.78C40.8351 15.78 41.3418 15.7534 41.9018 15.7C42.4751 15.6334 43.0418 15.5534 43.6018 15.46C44.1751 15.3534 44.6751 15.24 45.1018 15.12C45.0751 15.2934 45.0485 15.5467 45.0218 15.88C45.0085 16.2 45.0018 16.52 45.0018 16.84C45.0018 17.16 45.0085 17.4 45.0218 17.56C44.3685 17.72 43.6351 17.84 42.8218 17.92C42.0085 18.0134 41.2485 18.06 40.5418 18.06Z" fill="#D84830"/>
<path d="M19.0218 18.5001C18.9951 18.1534 18.9285 17.7334 18.8218 17.2401C18.7151 16.7601 18.5951 16.3734 18.4618 16.0801H20.4218C20.8751 16.0801 21.2351 16.0201 21.5018 15.9001C21.7818 15.7801 22.0018 15.5601 22.1618 15.2401C22.3218 14.9067 22.4551 14.4334 22.5618 13.8201C22.7885 12.5801 22.9018 10.0734 22.9018 6.30008V5.00008H12.7418C12.6085 5.25341 12.4618 5.51341 12.3018 5.78008C12.1418 6.03341 11.9818 6.28008 11.8218 6.52008H19.7218V15.1801H11.7218V6.68008C11.3751 7.20008 11.0151 7.69341 10.6418 8.16008C10.2818 8.61341 9.92179 9.01341 9.56179 9.36008C9.41512 9.20008 9.21512 9.02674 8.96179 8.84008C8.70846 8.64008 8.44846 8.46008 8.18179 8.30008C7.92846 8.14008 7.70846 8.02674 7.52179 7.96008C8.00179 7.56008 8.48846 7.03341 8.98179 6.38008C9.47512 5.71341 9.94179 4.99341 10.3818 4.22008C10.8351 3.44674 11.2285 2.70008 11.5618 1.98008C11.8951 1.24674 12.1351 0.613411 12.2818 0.0800781L14.6418 0.740078C14.5485 1.04674 14.4351 1.37341 14.3018 1.72008C14.1818 2.06674 14.0351 2.42674 13.8618 2.80008H25.3018V6.30008C25.3018 8.10008 25.2685 9.65341 25.2018 10.9601C25.1485 12.2667 25.0685 13.3334 24.9618 14.1601C24.8285 15.2667 24.5751 16.1401 24.2018 16.7801C23.8418 17.4067 23.3618 17.8467 22.7618 18.1001C22.1618 18.3667 21.4418 18.5001 20.6018 18.5001H19.0218ZM14.0218 13.2201H17.4218V11.7201H14.0218V13.2201ZM14.0218 9.98008H17.4218V8.50008H14.0218V9.98008Z" fill="#D84830"/>
<path d="M-1.39492 2.54004L-0.754922 3.64004C-1.42159 3.81337 -1.96159 4.12671 -2.37492 4.58004C-2.77492 5.02004 -2.97492 5.48671 -2.97492 5.98004C-2.97492 6.06004 -2.96826 6.13337 -2.95492 6.20004C-2.94159 6.26671 -2.92826 6.32671 -2.91492 6.38004C-2.78159 6.19337 -2.61492 6.04671 -2.41492 5.94004C-2.21492 5.82004 -2.00826 5.76004 -1.79492 5.76004C-1.42159 5.76004 -1.10159 5.88671 -0.834922 6.14004C-0.568255 6.38004 -0.434922 6.71337 -0.434922 7.14004C-0.434922 7.55337 -0.588255 7.88004 -0.894922 8.12004C-1.20159 8.36004 -1.56825 8.48671 -1.99492 8.50004C-2.64825 8.51337 -3.19492 8.28004 -3.63492 7.80004C-4.07492 7.30671 -4.29492 6.67337 -4.29492 5.90004C-4.29492 5.08671 -4.02826 4.40004 -3.49492 3.84004C-2.96159 3.26671 -2.26159 2.83337 -1.39492 2.54004ZM3.24508 2.54004L3.86508 3.64004C3.21175 3.81337 2.67841 4.12671 2.26508 4.58004C1.86508 5.02004 1.66508 5.48671 1.66508 5.98004C1.66508 6.06004 1.66508 6.13337 1.66508 6.20004C1.67841 6.26671 1.69175 6.32671 1.70508 6.38004C1.85175 6.19337 2.01841 6.04671 2.20508 5.94004C2.40508 5.82004 2.61175 5.76004 2.82508 5.76004C3.21175 5.76004 3.53841 5.88671 3.80508 6.14004C4.07175 6.38004 4.20508 6.71337 4.20508 7.14004C4.20508 7.55337 4.04508 7.88004 3.72508 8.12004C3.41841 8.36004 3.05175 8.48671 2.62508 8.50004C1.97175 8.51337 1.42508 8.28004 0.985078 7.80004C0.558412 7.30671 0.345078 6.67337 0.345078 5.90004C0.345078 5.08671 0.605078 4.40004 1.12508 3.84004C1.65841 3.26671 2.36508 2.83337 3.24508 2.54004Z" fill="#D84830"/>
</svg>
