<svg width="280" height="124" viewBox="0 0 280 124" fill="none" xmlns="http://www.w3.org/2000/svg">
<path d="M222.094 0.125205C208.235 -0.719929 195.281 3.00492 184.606 9.9538C181.25 12.1449 176.974 12.1449 173.618 9.9538C163.941 3.66225 152.408 0 140.016 0C127.623 0 116.09 3.66225 106.413 9.9538C103.058 12.1449 98.7812 12.1292 95.4256 9.9538C84.7503 3.00492 71.8118 -0.73558 57.9526 0.125205C27.3467 2.00328 2.43755 26.6217 0.174502 57.2813C-2.50995 93.6534 26.1294 124 61.8232 124C74.1841 124 85.6867 120.353 95.3476 114.093C98.75 111.886 103.073 111.886 106.476 114.093C116.136 120.353 127.639 124 140 124C152.361 124 163.863 120.353 173.524 114.093C176.927 111.886 181.25 111.886 184.652 114.093C194.313 120.353 205.816 124 218.177 124C253.886 124 282.51 93.6534 279.825 57.2813C277.609 26.6217 252.7 2.00328 222.094 0.125205Z" fill="#D84830"/>
<path d="M226.08 82.2398C226.053 81.7865 225.96 81.2398 225.8 80.5998C225.64 79.9598 225.48 79.4665 225.32 79.1198H228.44C229.48 79.1198 230.213 78.9465 230.64 78.5998C231.093 78.2265 231.413 77.5465 231.6 76.5598H210.68C210.893 75.4398 211.107 74.0665 211.32 72.4398C211.533 70.7865 211.733 69.0665 211.92 67.2798H206.08V64.3998H212.24C212.427 62.6931 212.587 61.0798 212.72 59.5598C212.853 58.0131 212.947 56.7465 213 55.7598H236.28C236.253 56.9865 236.213 58.3465 236.16 59.8398C236.133 61.3331 236.093 62.8531 236.04 64.3998H241.92V67.2798H235.88C235.853 68.4265 235.8 69.5465 235.72 70.6398C235.64 71.7065 235.56 72.6931 235.48 73.5998H240.8V76.5598H235.16L235.12 76.7998C234.907 78.2398 234.56 79.3465 234.08 80.1198C233.627 80.9198 232.987 81.4665 232.16 81.7598C231.36 82.0798 230.307 82.2398 229 82.2398H226.08ZM216.8 54.7198V51.8798H206.4V48.9998H216.8V45.7998H220.2V48.9998H227.84V45.7998H231.28V48.9998H241.64V51.8798H231.28V54.7198H227.84V51.8798H220.2V54.7198H216.8ZM214.64 73.5998H225.6C224.827 72.9065 223.92 72.1731 222.88 71.3998C221.84 70.5998 220.84 69.9065 219.88 69.3198L221.8 67.2798H215.4C215.293 68.4265 215.173 69.5598 215.04 70.6798C214.907 71.7731 214.773 72.7465 214.64 73.5998ZM225.76 73.5998H232C232.08 72.7198 232.16 71.7331 232.24 70.6398C232.32 69.5465 232.387 68.4265 232.44 67.2798H222.04C224.093 68.5331 226 69.9198 227.76 71.4398C227.547 71.6265 227.213 71.9598 226.76 72.4398C226.333 72.9198 226 73.3065 225.76 73.5998ZM215.68 64.3998H225.64C224.893 63.7331 224.04 63.0398 223.08 62.3198C222.147 61.5998 221.253 60.9865 220.4 60.4798L222.16 58.6398H216.12C216.093 59.3331 216.04 60.1865 215.96 61.1998C215.88 62.2131 215.787 63.2798 215.68 64.3998ZM226.6 64.3998H232.6C232.653 63.3865 232.693 62.3865 232.72 61.3998C232.747 60.4131 232.76 59.4931 232.76 58.6398H222.8C223.733 59.2265 224.667 59.8665 225.6 60.5598C226.56 61.2265 227.44 61.9198 228.24 62.6398C228.053 62.7998 227.8 63.0531 227.48 63.3998C227.16 63.7465 226.867 64.0798 226.6 64.3998Z" fill="#FFFCF1"/>
<path d="M188.12 80.9598C185.08 81.0932 182.373 80.9465 180 80.5198C177.653 80.1198 175.8 79.3332 174.44 78.1598C173.107 76.9598 172.44 75.2798 172.44 73.1198C172.44 71.8398 172.813 70.7465 173.56 69.8398C174.307 68.9065 175.307 68.1865 176.56 67.6798C177.84 67.1465 179.28 66.8132 180.88 66.6798C182.507 66.5465 184.173 66.6132 185.88 66.8798C185.293 66.1865 184.733 65.4398 184.2 64.6398C183.667 63.8132 183.133 62.9732 182.6 62.1198C180.893 62.4132 179.187 62.6798 177.48 62.9198C175.773 63.1598 174.173 63.3332 172.68 63.4398C171.187 63.5465 169.907 63.5998 168.84 63.5998L168.04 60.3198C169.027 60.3465 170.2 60.3198 171.56 60.2398C172.947 60.1332 174.44 59.9732 176.04 59.7598C177.667 59.5465 179.307 59.3065 180.96 59.0398C180.613 58.3465 180.267 57.6398 179.92 56.9198C179.6 56.1998 179.293 55.4932 179 54.7998C177.347 55.0132 175.733 55.1998 174.16 55.3598C172.587 55.4932 171.213 55.5598 170.04 55.5598L169.32 52.3198C170.44 52.3465 171.747 52.3065 173.24 52.1998C174.733 52.0665 176.267 51.9065 177.84 51.7198C177.147 49.7465 176.68 48.0932 176.44 46.7598L180.12 46.3198C180.173 46.9598 180.307 47.7065 180.52 48.5598C180.733 49.3865 181 50.2665 181.32 51.1998C182.92 50.9332 184.413 50.6398 185.8 50.3198C187.213 49.9998 188.373 49.6665 189.28 49.3198L190.2 52.5198C189.32 52.8132 188.2 53.1198 186.84 53.4398C185.507 53.7332 184.053 54.0132 182.48 54.2798C182.773 54.9465 183.08 55.6265 183.4 56.3198C183.747 57.0132 184.093 57.7065 184.44 58.3998C186.467 57.9998 188.32 57.5732 190 57.1198C191.68 56.6398 192.96 56.1865 193.84 55.7598L195.08 58.8398C194.173 59.2932 192.92 59.7465 191.32 60.1998C189.747 60.6532 188.027 61.0665 186.16 61.4398C187.013 62.9065 187.933 64.2665 188.92 65.5198C189.907 66.7465 190.92 67.7865 191.96 68.6398L189.72 71.1598C188.093 70.3598 186.467 69.8532 184.84 69.6398C183.24 69.3998 181.787 69.3998 180.48 69.6398C179.2 69.8532 178.16 70.2532 177.36 70.8398C176.587 71.3998 176.2 72.0932 176.2 72.9198C176.2 74.2798 176.787 75.3065 177.96 75.9998C179.133 76.6665 180.707 77.0798 182.68 77.2398C184.68 77.3998 186.893 77.4265 189.32 77.3198C189.027 77.7998 188.76 78.4132 188.52 79.1598C188.307 79.9065 188.173 80.5065 188.12 80.9598Z" fill="#FFFCF1"/>
<path d="M146.2 80.5599C143.987 80.6666 141.867 80.5866 139.84 80.3199C137.813 80.0532 136.013 79.5732 134.44 78.8799C132.867 78.1599 131.627 77.1999 130.72 75.9999C129.813 74.7999 129.36 73.3199 129.36 71.5599C129.36 70.1999 129.72 69.0265 130.44 68.0399C131.187 67.0265 132.2 66.2266 133.48 65.6399C134.76 65.0265 136.227 64.6265 137.88 64.4399C139.56 64.2532 141.333 64.3065 143.2 64.5999C141.387 62.3865 139.947 59.9866 138.88 57.3999C136.347 57.6132 133.867 57.7866 131.44 57.9199C129.04 58.0532 126.987 58.1065 125.28 58.0799L124.72 54.4399C126.293 54.5465 128.227 54.5865 130.52 54.5599C132.813 54.5065 135.213 54.3865 137.72 54.1999C136.947 51.7199 136.56 49.2799 136.56 46.8799H140.28C140.253 48.0265 140.32 49.1865 140.48 50.3599C140.667 51.5332 140.933 52.7065 141.28 53.8799C143.867 53.6132 146.28 53.3066 148.52 52.9599C150.76 52.6132 152.52 52.2532 153.8 51.8799L154.44 55.3999C153.133 55.6932 151.413 55.9865 149.28 56.2799C147.173 56.5732 144.907 56.8399 142.48 57.0799C143.333 58.9199 144.387 60.6532 145.64 62.2799C146.92 63.9065 148.4 65.3332 150.08 66.5599L147.84 69.1599C146.613 68.5465 145.32 68.0932 143.96 67.7999C142.6 67.5065 141.267 67.3732 139.96 67.3999C138.68 67.3999 137.52 67.5599 136.48 67.8799C135.44 68.1732 134.613 68.6266 134 69.2399C133.387 69.8532 133.08 70.6265 133.08 71.5599C133.08 72.6532 133.467 73.5732 134.24 74.3199C135.013 75.0399 136.067 75.5999 137.4 75.9999C138.76 76.3732 140.307 76.6132 142.04 76.7199C143.8 76.8266 145.653 76.8132 147.6 76.6799C147.28 77.1866 146.973 77.8399 146.68 78.6399C146.413 79.4399 146.253 80.0799 146.2 80.5599Z" fill="#FFFCF1"/>
<path d="M99.5601 79.28C99.4534 78.7734 99.2134 78.1867 98.8401 77.52C98.4668 76.8534 98.0801 76.3067 97.6801 75.88C101.387 75.6667 104.267 74.6934 106.32 72.96C108.4 71.2267 109.44 68.9067 109.44 66C109.44 64.1067 108.84 62.5067 107.64 61.2C106.44 59.8934 104.853 58.9867 102.88 58.48C102.133 60.0534 101.32 61.5867 100.44 63.08C99.5601 64.5734 98.6401 65.9867 97.6801 67.32C98.4801 67.9067 99.3201 68.4267 100.2 68.88C99.7734 69.1734 99.3468 69.6134 98.9201 70.2C98.5201 70.76 98.2134 71.2667 98.0001 71.72C97.1468 71.2934 96.2934 70.76 95.4401 70.12C94.5868 71.08 93.7201 71.9467 92.8401 72.72C91.9601 73.4667 91.0934 74.0934 90.2401 74.6C88.8801 75.4 87.6134 75.8 86.4401 75.8C85.2934 75.8 84.3601 75.3867 83.6401 74.56C82.9468 73.7334 82.6001 72.4934 82.6001 70.84C82.6001 68.8934 83.0268 67.0134 83.8801 65.2C84.7601 63.36 85.9201 61.72 87.3601 60.28C86.5334 58.8134 85.8001 57.36 85.1601 55.92C84.5468 54.48 84.0268 53.1067 83.6001 51.8L86.8401 50.44C87.0534 51.56 87.4268 52.7867 87.9601 54.12C88.4934 55.4534 89.1334 56.7867 89.8801 58.12C91.2934 57.1334 92.8134 56.36 94.4401 55.8C96.0668 55.2134 97.7201 54.92 99.4001 54.92C99.6134 54.92 99.8001 54.9334 99.9601 54.96C100.147 54.96 100.333 54.96 100.52 54.96C101.027 53.7067 101.453 52.4534 101.8 51.2C102.173 49.92 102.453 48.6934 102.64 47.52L106.32 48.48C105.787 50.8267 105.067 53.1734 104.16 55.52C106.027 56 107.627 56.76 108.96 57.8C110.32 58.84 111.36 60.0667 112.08 61.48C112.8 62.8667 113.16 64.3734 113.16 66C113.16 69.5467 111.987 72.5067 109.64 74.88C107.32 77.2534 103.96 78.72 99.5601 79.28ZM88.6401 71.68C89.9734 70.96 91.4001 69.6934 92.9201 67.88C92.2268 67.1867 91.5601 66.44 90.9201 65.64C90.2801 64.8134 89.6668 63.9734 89.0801 63.12C88.0934 64.24 87.3201 65.4667 86.7601 66.8C86.2001 68.1067 85.9201 69.4267 85.9201 70.76C85.9201 72.3867 86.8268 72.6934 88.6401 71.68ZM95.0801 65.08C96.5734 62.92 97.9334 60.5867 99.1601 58.08C97.8001 58.1067 96.4668 58.3734 95.1601 58.88C93.8534 59.36 92.6534 60 91.5601 60.8C92.0934 61.5467 92.6534 62.2934 93.2401 63.04C93.8268 63.76 94.4401 64.44 95.0801 65.08Z" fill="#FFFCF1"/>
<path d="M53.2401 80.88C52.9201 80.56 52.4534 80.2 51.8401 79.8C51.2534 79.4 50.6801 79.08 50.1201 78.84C51.2134 78.2267 52.1867 77.4667 53.0401 76.56C53.8934 75.6267 54.6267 74.6 55.2401 73.48C53.8267 72.84 52.5601 71.92 51.4401 70.72C50.3201 69.4933 49.5334 68.0533 49.0801 66.4C49.5067 66.2667 49.9867 66.0267 50.5201 65.68C51.0534 65.3333 51.5067 64.9467 51.8801 64.52C52.0934 65.8533 52.6401 67.0267 53.5201 68.04C54.4267 69.0533 55.4801 69.8133 56.6801 70.32C57.4801 68.1867 57.9601 65.8933 58.1201 63.44C58.3067 60.9867 58.2134 58.6267 57.8401 56.36C56.0001 56.6533 54.2667 57.28 52.6401 58.24C51.0401 59.2 49.6401 60.3733 48.4401 61.76C47.2667 63.12 46.3867 64.5733 45.8001 66.12C45.2401 67.64 45.0934 69.12 45.3601 70.56C45.5467 71.4933 45.7734 72.3333 46.0401 73.08C46.3067 73.8267 46.6001 74.5467 46.9201 75.24L43.6801 76.76C43.0667 75.3467 42.5734 73.7333 42.2001 71.92C41.8267 70.08 41.5467 68.16 41.3601 66.16C41.2001 64.1333 41.1067 62.1333 41.0801 60.16C41.0534 58.16 41.0801 56.28 41.1601 54.52C41.2667 52.76 41.3867 51.2267 41.5201 49.92L44.9601 50.52C44.6934 52.12 44.5067 54.0267 44.4001 56.24C44.3201 58.4267 44.3467 60.6667 44.4801 62.96C45.2267 61.2267 46.2667 59.6667 47.6001 58.28C48.9601 56.8933 50.4667 55.7467 52.1201 54.84C53.8001 53.9333 55.4801 53.3333 57.1601 53.04C56.8934 52.0533 56.5734 51.1067 56.2001 50.2C55.8534 49.2933 55.4534 48.44 55.0001 47.64L58.6001 47C59.5601 48.68 60.3067 50.6267 60.8401 52.84C62.9734 52.9733 64.8534 53.5067 66.4801 54.44C68.1334 55.3467 69.4267 56.6267 70.3601 58.28C71.2934 59.9067 71.7601 61.8667 71.7601 64.16C71.7601 66.1867 71.2401 67.9867 70.2001 69.56C69.1601 71.1333 67.7601 72.3733 66.0001 73.28C64.2401 74.1867 62.2934 74.64 60.1601 74.64C59.9734 74.64 59.7734 74.6267 59.5601 74.6C59.3467 74.5733 59.1334 74.5467 58.9201 74.52C58.2267 75.8267 57.4134 77.0267 56.4801 78.12C55.5467 79.1867 54.4667 80.1067 53.2401 80.88ZM60.3601 70.88C60.5734 70.9067 60.7734 70.92 60.9601 70.92C61.1467 70.8933 61.3334 70.8667 61.5201 70.84C62.5067 70.7333 63.5067 70.44 64.5201 69.96C65.5334 69.4533 66.3867 68.7333 67.0801 67.8C67.8001 66.84 68.1601 65.6267 68.1601 64.16C68.1601 61.8667 67.5467 60.0667 66.3201 58.76C65.0934 57.4267 63.4934 56.64 61.5201 56.4C61.8934 58.7467 61.9867 61.1867 61.8001 63.72C61.6134 66.2267 61.1334 68.6133 60.3601 70.88Z" fill="#FFFCF1"/>
</svg>
