<svg width="1440" height="1799" viewBox="0 0 1440 1799" fill="none" xmlns="http://www.w3.org/2000/svg">
<path d="M53 287.766C31.2704 310.651 0 348.766 0 348.766V1798.5H1440V348.766C1440 348.766 1404.41 305.825 1379.5 280.266C1314.01 213.068 1271.5 179.48 1191 131.266C1168.43 117.75 1155.5 110.591 1132 98.7659C1048.21 56.6017 996.871 39.1923 905 20.2659C879.785 15.0713 865.522 12.644 840 9.26595C747.084 -3.0321 692.9 -3.14507 600 9.26595C574.673 12.6496 560.523 15.0902 535.5 20.2659C443.644 39.2653 392.412 56.8474 308.5 98.7659C282.779 111.615 268.613 119.404 244 134.266C162.082 183.729 118.891 218.372 53 287.766Z" fill="#D84830"/>
</svg>
