<svg width="838" height="113" viewBox="0 0 838 113" fill="none" xmlns="http://www.w3.org/2000/svg">
<path d="M216.96 62.8967H201.931V65.3641H216.96V62.8967Z" fill="#D84830"/>
<path d="M64.0231 66.0627H49.8091C52.5547 67.0896 55.3717 68.4018 57.3594 69.557C59.9334 68.5729 62.1499 67.4177 64.0231 66.0627Z" fill="#D84830"/>
<path d="M60.877 47.8213H54.6709V50.9019H60.877V47.8213Z" fill="#D84830"/>
<path d="M216.96 50.7166H201.931V53.1411H216.96V50.7166Z" fill="#D84830"/>
<path d="M203.49 0.114098C190.791 -0.656065 178.922 2.73836 169.141 9.07081C166.067 11.0675 162.149 11.0675 159.074 9.07081C150.223 3.33737 139.655 0 128.287 0C116.918 0 106.365 3.33737 97.499 9.07081C94.4245 11.0675 90.5064 11.0533 87.4319 9.07081C77.6508 2.73836 65.7962 -0.670327 53.0979 0.114098C25.0559 1.82557 2.23336 24.2601 0.159884 52.1999C-2.29969 85.3454 23.9405 113 56.6443 113C67.9698 113 78.5088 109.677 87.3604 103.972C90.4778 101.961 94.4388 101.961 97.5562 103.972C106.408 109.677 116.947 113 128.272 113C139.598 113 150.137 109.677 158.988 103.972C162.106 101.961 166.067 101.961 169.184 103.972C178.036 109.677 188.575 113 199.9 113C232.618 113 258.844 85.3454 256.385 52.1999C254.354 24.2601 231.532 1.82557 203.49 0.114098ZM32.3775 37.1817H44.7182V34.7144H51.6251V37.1817H64.0802V34.7144H71.0443V37.1817H83.5566V41.8883H71.0443V43.4714H64.0802V41.8883H51.6251V43.4714H44.7182V41.8883H32.3775V37.1817ZM79.4669 44.2273V54.4961H36.7103V44.2273H79.4669ZM83.7282 64.5796H76.8214V60.472H57.7025C57.0018 61.1281 56.3011 61.7842 55.5432 62.3832H68.4703L69.7001 62.155L74.0901 64.0233C67.884 72.7519 54.2562 76.6169 39.6418 78.3427C39.0555 77.0305 37.7113 74.934 36.5959 73.7645C41.6295 73.3509 46.5343 72.595 50.9816 71.5253C49.0511 70.4556 46.5915 69.3289 44.375 68.5445C42.6162 69.2006 40.7429 69.7996 38.698 70.4128C37.8257 69.2433 36.0096 67.375 34.6082 66.5906C41.4579 65.0502 46.4199 62.8111 49.5802 60.472H38.8124V64.5796H32.2631V56.2789H83.7282V64.5796ZM140.928 37.1817H155.556V42.0309H140.928V37.1817ZM118.82 39.7917H125.427V34.6573H132.033V39.7917H138.64V44.4127H132.033V48.9339H139.526V53.7402H117.705V48.9339H125.427V44.4127H118.82V39.7917ZM111.398 34.7144L117.662 36.5399C114.559 40.6047 109.711 44.9832 105.207 47.7786C104.392 46.6519 102.633 44.6124 101.574 43.6283C105.321 41.3891 109.411 37.6524 111.398 34.7144ZM114.616 78.2428H108.238V59.3453C107.008 60.472 105.836 61.4419 104.663 62.2833C104.02 61.1566 102.089 58.3612 100.859 57.1917C105.478 54.1539 110.04 49.3047 112.728 44.4983L118.934 46.1812C117.705 48.2778 116.303 50.4742 114.602 52.5707V78.2286L114.616 78.2428ZM156.486 54.5817H152.096V72.0815C152.096 74.7914 151.624 76.2746 149.465 77.216C147.42 78.1002 144.488 78.2001 140.513 78.2001C140.284 76.8023 139.641 74.7914 138.868 73.2083C131.204 73.9499 123.196 74.6487 117.233 75.1622L116.532 70.0705C119.049 69.9279 122.095 69.6997 125.369 69.4573V63.9092H118.119V59.1456H125.369V54.5247H131.919V59.1456H139.112V63.9092H131.919V68.9438C134.607 68.7156 137.353 68.4732 140.113 68.245L140.284 72.6805C142.1 72.6805 143.616 72.7233 144.26 72.6805C145.017 72.6805 145.246 72.5379 145.246 71.9817V54.5817H140.513V49.6327H156.486V54.5817ZM190.877 39.7062H198.999C198.299 38.5937 197.298 37.3244 196.311 36.3403L201.802 34.7001C203.375 36.0978 205.02 38.1088 205.606 39.4637L204.905 39.6919H212.212C213.328 38.1944 214.615 36.0978 215.316 34.6573L222.222 35.8268C221.164 37.2245 220.12 38.5794 219.119 39.7062H228.128V44.1845H212.513C212.041 45.0688 211.526 45.9103 211.054 46.7089H223.867V69.386H195.382V46.7089H204.448C204.676 45.8675 204.862 45.026 205.034 44.1845H190.877V39.7062ZM180.524 35.7413C184.027 37.6952 188.303 40.5904 190.291 42.7868L184.8 46.4665C182.983 44.2273 178.837 41.1467 175.376 39.0929L180.524 35.727V35.7413ZM227.313 77.216C220.292 77.5012 208.537 77.5868 201.573 77.3586C194.381 77.1304 189.59 75.8182 185.786 72.1814C183.212 74.0069 180.638 75.8182 177.421 77.7864L174.032 71.996C176.549 70.8264 179.466 69.2861 182.04 67.703V57.862H175.319V52.7704H188.832V67.4178C191.235 70.5412 195.61 71.7963 201.702 71.996C208.552 72.2242 221.708 72.0958 229.487 71.6251C228.729 72.9373 227.671 75.6328 227.327 77.2302L227.313 77.216Z" fill="#D84830"/>
<path d="M48.8655 47.8213H42.8452V50.9019H48.8655V47.8213Z" fill="#D84830"/>
<path d="M72.9748 47.8213H66.6543V50.9019H72.9748V47.8213Z" fill="#D84830"/>
<path d="M216.96 56.7781H201.931V59.2027H216.96V56.7781Z" fill="#D84830"/>
<path d="M317.588 25.3297H357.527V19.0686H280.208V93.4036H317.588V59.2026H337.193V52.8417H317.588V25.3297Z" fill="#D84830"/>
<path d="M382.123 19.0686L354.01 93.4178H361.789L371.37 68.7726H394.793L405.975 93.4178H446.229L413.211 19.0686H382.123ZM373.715 62.2833L382.123 40.7187L391.819 62.2833H373.715Z" fill="#D84830"/>
<path d="M548.03 50.8164C550.876 47.0655 552.292 42.8866 552.292 38.2799C552.292 34.8142 551.419 31.6051 549.675 28.6671C547.93 25.7291 545.585 23.3901 542.654 21.6643C539.708 19.9243 536.49 19.0686 533.015 19.0686H461.774V93.4178H497.123V59.331L499.997 59.4308C501.627 59.5022 503.372 59.7161 505.216 60.0726C506.99 60.4292 508.591 60.9997 510.007 61.7699C511.28 62.483 512.424 63.5812 513.41 65.0644C514.254 66.3338 514.683 68.1166 514.683 70.37V93.4178H550.361V74.1923C550.361 70.4413 549.131 67.0754 546.686 64.1089C544.241 61.1281 541.095 59.1171 537.262 58.0617C541.595 57.0063 545.17 54.5959 548.016 50.845L548.03 50.8164ZM513.053 46.1954C511.809 48.3491 510.107 50.0605 507.933 51.2871C505.76 52.5279 503.415 53.1412 500.855 53.1412L497.123 53.241V25.1015H500.855C503.415 25.1015 505.774 25.7433 507.933 27.0127C510.093 28.282 511.809 30.0078 513.053 32.1614C514.297 34.3292 514.912 36.6683 514.912 39.2212C514.912 41.7741 514.283 44.0133 513.053 46.1812V46.1954Z" fill="#D84830"/>
<path d="M617.785 50.0748L602.241 19.0686H571.139V93.4036H577.431V43.9135L599.152 93.4036H608.419L630.14 37.6523V93.4036H664.217V19.0686H630.14L617.785 50.0748Z" fill="#D84830"/>
<path d="M742.966 43.3288C738.461 41.2465 733.542 40.0913 728.222 39.8774L740.263 19.0544H705.443L692.029 42.1023C689.255 46.7803 687.311 50.7595 686.167 54.0541C685.037 57.3486 684.465 60.5862 684.465 63.7667C684.465 70.2132 686.109 75.7042 689.413 80.2253C692.716 84.7607 697.192 88.1694 702.826 90.4799C708.474 92.7761 714.695 93.9314 721.516 93.9314C728.337 93.9314 734.386 92.8047 739.891 90.537C745.396 88.2693 749.744 84.9747 752.933 80.6532C756.121 76.3317 757.723 71.1973 757.723 65.2499C757.723 60.2296 756.393 55.8368 753.733 52.0859C751.074 48.3349 747.484 45.4111 742.98 43.3288H742.966ZM728.208 67.7031C728.208 72.5237 728.137 75.6044 727.994 76.945C727.779 80.3394 727.207 82.9637 726.292 84.8035C725.234 86.7147 723.632 87.6702 721.501 87.6702C719.371 87.6702 717.698 86.7147 716.711 84.8035C715.71 83.035 715.109 80.4107 714.895 76.945C714.752 74.2494 714.68 71.1688 714.68 67.7031V66.2198C714.68 62.6827 714.752 59.5593 714.895 56.878C715.109 53.4123 715.71 50.788 716.711 49.0195C717.626 47.1796 719.228 46.2526 721.501 46.2526C723.775 46.2526 725.291 47.1796 726.292 49.0195C727.207 50.8593 727.779 53.4836 727.994 56.878C728.137 58.2186 728.208 61.3421 728.208 66.2198V67.7031Z" fill="#D84830"/>
<path d="M760.798 19.0686V25.3297H799.021L773.682 93.4036H809.789L838.003 19.0686H760.798Z" fill="#D84830"/>
</svg>
