<svg width="1415" height="72" viewBox="0 0 1415 72" fill="none" xmlns="http://www.w3.org/2000/svg">
<path d="M1377.42 6.49961H1341.52V0.599609H1414.02L1387.52 70.5996H1353.62L1377.42 6.49961Z" fill="#D84830"/>
<path d="M1310.74 71.0996C1304.34 71.0996 1298.47 70.0329 1293.14 67.8996C1287.87 65.6996 1283.67 62.4663 1280.54 58.1996C1277.47 53.9329 1275.94 48.7663 1275.94 42.6996C1275.94 39.6996 1276.47 36.6663 1277.54 33.5996C1278.6 30.4663 1280.44 26.6996 1283.04 22.2996L1295.64 0.599609H1328.34L1317.04 20.1996C1322.04 20.3996 1326.64 21.4996 1330.84 23.4996C1335.1 25.4329 1338.47 28.1663 1340.94 31.6996C1343.47 35.2329 1344.74 39.3663 1344.74 44.0996C1344.74 49.6996 1343.24 54.5329 1340.24 58.5996C1337.24 62.6663 1333.14 65.7663 1327.94 67.8996C1322.8 70.0329 1317.07 71.0996 1310.74 71.0996ZM1310.74 65.1996C1312.74 65.1996 1314.24 64.2996 1315.24 62.4996C1316.1 60.7663 1316.64 58.2996 1316.84 55.0996C1316.97 53.8329 1317.04 50.9329 1317.04 46.3996V44.9996C1317.04 40.3996 1316.97 37.4663 1316.84 36.1996C1316.64 32.9996 1316.1 30.5329 1315.24 28.7996C1314.3 27.0663 1312.8 26.1996 1310.74 26.1996C1308.6 26.1996 1307.1 27.0663 1306.24 28.7996C1305.3 30.4663 1304.74 32.9329 1304.54 36.1996C1304.4 38.7329 1304.34 41.6663 1304.34 44.9996V46.3996C1304.34 49.6663 1304.4 52.5663 1304.54 55.0996C1304.74 58.3663 1305.3 60.8329 1306.24 62.4996C1307.17 64.2996 1308.67 65.1996 1310.74 65.1996Z" fill="#D84830"/>
<path d="M1183.47 23.9996V70.5996H1177.57V0.599609H1206.77L1221.37 29.7996L1232.97 0.599609H1264.97V70.5996H1232.97V18.0996L1212.57 70.5996H1203.87L1183.47 23.9996Z" fill="#D84830"/>
<path d="M1081.53 0.599609H1148.43C1151.7 0.599609 1154.7 1.43294 1157.43 3.09961C1160.23 4.69961 1162.43 6.89961 1164.03 9.69961C1165.7 12.4329 1166.53 15.4329 1166.53 18.6996C1166.53 23.0329 1165.2 26.9663 1162.53 30.4996C1159.87 34.0329 1156.5 36.2996 1152.43 37.2996C1156.03 38.2996 1158.97 40.1996 1161.23 42.9996C1163.57 45.7996 1164.73 48.9663 1164.73 52.4996V70.5996H1131.23V48.8996C1131.23 46.7663 1130.83 45.0996 1130.03 43.8996C1129.1 42.4996 1128.03 41.4663 1126.83 40.7996C1125.5 40.0663 1124 39.5329 1122.33 39.1996C1120.6 38.8663 1118.97 38.6663 1117.43 38.5996L1114.73 38.4996V70.5996H1081.53V0.599609ZM1118.23 32.6996C1120.63 32.6996 1122.83 32.1329 1124.83 30.9996C1126.9 29.7996 1128.5 28.1996 1129.63 26.1996C1130.83 24.1329 1131.43 21.9329 1131.43 19.5996C1131.43 17.1996 1130.83 14.9996 1129.63 12.9996C1128.5 10.9329 1126.9 9.29961 1124.83 8.09961C1122.83 6.89961 1120.63 6.29961 1118.23 6.29961H1114.73V32.7996L1118.23 32.6996Z" fill="#D84830"/>
<path d="M1011.38 0.599609H1040.58L1071.58 70.5996H1033.78L1023.28 47.3996H1001.28L992.281 70.5996H984.981L1011.38 0.599609ZM1020.48 41.2996L1011.38 20.9996L1003.48 41.2996H1020.48Z" fill="#D84830"/>
<path d="M922.266 0.599609H994.866V6.49961H957.366V32.3996H975.766V38.3996H957.366V70.5996H922.266V0.599609Z" fill="#D84830"/>
<path d="M828.437 71.0996C816.37 71.0996 807.737 69.3329 802.537 65.7996C797.403 62.2663 794.837 56.8663 794.837 49.5996V0.599609H833.037V49.5996C833.037 54.3329 834.07 57.7996 836.137 59.9996C838.27 62.1329 841.07 63.1996 844.537 63.1996C852.27 63.1996 856.137 58.6663 856.137 49.5996V0.599609H862.037V49.5996C862.037 55.2663 860.837 59.6663 858.437 62.7996C856.037 65.8663 852.437 68.0329 847.637 69.2996C842.837 70.4996 836.437 71.0996 828.437 71.0996Z" fill="#D84830"/>
<path d="M735.93 71.1C726.996 71.1 718.93 69.7333 711.73 67C704.53 64.2667 698.83 60.2333 694.63 54.9C690.496 49.5 688.43 43.0333 688.43 35.5C688.43 28.0333 690.53 21.6333 694.73 16.3C698.93 10.9667 704.596 6.93333 711.73 4.2C718.93 1.4 726.996 0 735.93 0C744.796 0 752.796 1.4 759.93 4.2C767.13 6.93333 772.796 10.9667 776.93 16.3C781.13 21.6333 783.23 28.0333 783.23 35.5C783.23 43.0333 781.13 49.5 776.93 54.9C772.796 60.2333 767.13 64.2667 759.93 67C752.796 69.7333 744.796 71.1 735.93 71.1ZM735.93 65.2C738.73 65.2 740.796 63.9333 742.13 61.4C743.263 59.4667 744.03 56.0333 744.43 51.1C744.63 48.5 744.73 43.3 744.73 35.5C744.73 27.6333 744.563 22.0667 744.23 18.8C744.03 14.8 743.296 11.7667 742.03 9.7C740.696 7.16667 738.663 5.9 735.93 5.9C733.13 5.9 731.03 7.16667 729.63 9.7C728.496 11.7 727.763 14.7333 727.43 18.8C727.163 22.2667 727.03 27.8333 727.03 35.5C727.03 44.1667 727.13 49.3667 727.33 51.1C727.596 55.7 728.33 59.1333 729.53 61.4C730.93 63.9333 733.063 65.2 735.93 65.2Z" fill="#D84830"/>
<path d="M591.04 0.599609H643.64C653.173 0.599609 661.407 3.99961 668.34 10.7996C675.207 17.6663 678.64 25.8996 678.64 35.4996C678.64 45.2329 675.207 53.5329 668.34 60.3996C661.473 67.1996 653.24 70.5996 643.64 70.5996H591.04V0.599609ZM632.04 64.7996C635.84 64.7996 638.573 63.5663 640.24 61.0996C641.84 58.6996 642.84 55.2996 643.24 50.8996C643.573 48.0329 643.74 42.8996 643.74 35.4996C643.74 29.7663 643.54 24.2996 643.14 19.0996C642.74 15.1663 641.74 12.1663 640.14 10.0996C638.473 7.63295 635.773 6.39961 632.04 6.39961H626.04V64.7996H632.04Z" fill="#D84830"/>
<path d="M546.759 0.599609H579.359V70.5996H546.759V0.599609Z" fill="#D84830"/>
<path d="M476.608 0.599609H505.808L536.808 70.5996H499.008L488.508 47.3996H466.508L457.508 70.5996H450.208L476.608 0.599609ZM485.708 41.2996L476.608 20.9996L468.708 41.2996H485.708Z" fill="#D84830"/>
<path d="M348.528 0.599609H383.628V70.5996H348.528V0.599609ZM383.628 35.4996L400.028 0.599609H434.928L417.428 35.4996L439.628 70.5996H404.328L383.628 35.4996Z" fill="#D84830"/>
<path d="M264.11 0.599609H336.81V6.49961H299.31V32.3996H317.71V38.3996H299.31V64.5996H336.81V70.5996H264.11V0.599609Z" fill="#D84830"/>
<path d="M170.944 23.9996V70.5996H165.044V0.599609H194.244L208.844 29.7996L220.444 0.599609H252.444V70.5996H220.444V18.0996L200.044 70.5996H191.344L170.944 23.9996Z" fill="#D84830"/>
<path d="M119.89 71.0996C107.823 71.0996 99.1899 69.3329 93.9899 65.7996C88.8566 62.2663 86.2899 56.8663 86.2899 49.5996V0.599609H124.49V49.5996C124.49 54.3329 125.523 57.7996 127.59 59.9996C129.723 62.1329 132.523 63.1996 135.99 63.1996C143.723 63.1996 147.59 58.6663 147.59 49.5996V0.599609H153.49V49.5996C153.49 55.2663 152.29 59.6663 149.89 62.7996C147.49 65.8663 143.89 68.0329 139.09 69.2996C134.29 70.4996 127.89 71.0996 119.89 71.0996Z" fill="#D84830"/>
<path d="M21.7 38.4996L0 0.599609H39.2L53.6 29.1996L67.6 0.599609H75.3L56.7 38.4996V70.5996H21.7V38.4996Z" fill="#D84830"/>
</svg>
